<svg width="238" height="28" viewBox="0 0 238 28" fill="none" xmlns="http://www.w3.org/2000/svg">
<path d="M25.5764 22.6833L24.2827 20.489H5.69116L15.0014 4.26915L12.5704 0H9.4332C8.75955 0.00152116 8.09837 0.183069 7.51721 0.526093C6.93602 0.869118 6.45571 1.36133 6.12527 1.95244L0.49918 11.9478C0.172054 12.5247 0 13.1776 0 13.842C0 14.5063 0.172054 15.1592 0.49918 15.7361L4.43802 22.73L6.12527 25.7256C6.41447 26.2395 6.81788 26.6789 7.30391 27.0096C7.78994 27.3402 8.34538 27.553 8.92674 27.6315C9.09358 27.6549 9.26185 27.6666 9.43031 27.6664H20.5581C21.2315 27.6668 21.893 27.4874 22.4751 27.1464C23.0572 26.8055 23.5392 26.3153 23.8718 25.7256L25.5475 22.73L25.5764 22.6833Z" fill="url(#paint0_linear_12353_5412)"/>
<path d="M25.6081 22.6833L25.5763 22.7387L23.8977 25.7227C23.5665 26.3123 23.0857 26.8026 22.5045 27.1436C21.9232 27.4846 21.2625 27.664 20.5898 27.6635H9.46203C9.29356 27.6636 9.1253 27.652 8.95846 27.6285C8.37614 27.5508 7.81963 27.3382 7.33256 27.0075C6.84552 26.6769 6.44115 26.2371 6.1512 25.7227L4.46973 22.7299L5.75471 20.4919L5.82127 20.4511L12.0609 16.6628C13.0246 16.0333 13.7453 15.6633 14.4283 15.5467C14.4437 15.5453 14.4592 15.5453 14.4746 15.5467L14.6077 15.5292L14.8392 15.5117H14.9781C15.0895 15.5148 15.2006 15.5235 15.311 15.5379C16.02 15.6341 16.7783 15.9925 17.8143 16.5928L24.2797 20.4657L24.3174 20.489L25.6081 22.6833Z" fill="url(#paint1_linear_12353_5412)"/>
<path d="M29.525 15.7361L25.5803 22.73L25.6121 22.6746L24.3156 20.489L15.0545 4.24875V4.26915L12.6032 0H20.5938C21.2678 0.00190873 21.9292 0.183588 22.5108 0.526548C23.0923 0.869508 23.5733 1.3615 23.9046 1.95244L29.525 11.9478C29.8506 12.5252 30.0219 13.1779 30.0219 13.842C30.0219 14.506 29.8506 15.1587 29.525 15.7361Z" fill="url(#paint2_linear_12353_5412)"/>
<path d="M0.49918 15.7361L4.4467 22.73L4.41487 22.6746L5.70852 20.4803L14.9696 4.24001V4.26041L17.4267 0H9.4332C8.75955 0.00152116 8.09837 0.183069 7.51721 0.526093C6.93602 0.869118 6.45571 1.36133 6.12527 1.95244L0.49918 11.9478C0.172054 12.5247 0 13.1776 0 13.842C0 14.5063 0.172054 15.1592 0.49918 15.7361Z" fill="url(#paint3_linear_12353_5412)"/>
<path d="M38.9796 22.5353L44.9992 5.51699H48.1712L54.1908 22.5353H50.9032L49.8613 19.5047H43.3091L42.2672 22.5353H38.9796ZM46.5968 10.0164L44.3741 16.474H48.8194L46.5968 10.0164ZM57.7054 22.5353L52.5424 8.89734H55.8069L59.303 18.5022L62.7295 8.89734H65.9478L60.8542 22.5353H57.7054ZM72.7711 22.8151C68.5111 22.8151 65.617 19.6912 65.617 15.7513C65.617 11.7648 68.6963 8.61759 72.6554 8.61759C76.6839 8.61759 79.6243 11.6016 79.6243 15.6347V16.8237H68.6037C69.0436 18.7586 70.5485 20.0409 72.7711 20.0409C74.5307 20.0409 75.8736 19.1083 76.5219 17.6396L79.0918 19.1317C77.911 21.3464 75.8273 22.8151 72.7711 22.8151ZM72.6554 11.3918C70.78 11.3918 69.3214 12.5108 68.7657 14.1893H76.4524C75.9894 12.3476 74.6002 11.3918 72.6554 11.3918ZM80.6312 20.9267C80.6312 19.7844 81.3489 19.0151 82.5297 19.0151C83.7105 19.0151 84.4051 19.7844 84.4051 20.9267C84.4051 22.0458 83.6873 22.8151 82.5065 22.8151C81.3258 22.8151 80.6312 22.0458 80.6312 20.9267ZM92.046 22.8151C88.7815 22.8151 85.3781 20.204 85.3781 15.728C85.3781 11.2053 88.6657 8.61759 92.0923 8.61759C93.8751 8.61759 95.4495 9.34029 96.445 10.5292V8.89734H99.5706V22.5353H96.445V20.7635C95.4495 22.0457 93.8288 22.8151 92.046 22.8151ZM92.5554 19.9243C94.8938 19.9243 96.6071 18.036 96.6071 15.6814C96.6071 13.3501 94.8938 11.4851 92.5554 11.4851C90.2401 11.4851 88.4574 13.3268 88.4574 15.6814C88.4574 18.0593 90.2401 19.9243 92.5554 19.9243ZM101.351 22.5353V8.89734H104.5V22.5353H101.351ZM100.957 5.56362C100.957 4.37467 101.722 3.58203 102.925 3.58203C104.153 3.58203 104.893 4.37467 104.893 5.56362C104.893 6.75257 104.153 7.52189 102.925 7.52189C101.652 7.52189 100.957 6.75257 100.957 5.56362Z" fill="#2A2A2A"/>
<path d="M135.208 5.66385H135.84V6.95985H135.208V5.66385ZM132.224 6.51985H138.904V8.23985H138.272V7.07985H132.832V8.23985H132.224V6.51985ZM134.896 7.43985L135.512 7.57585C135.368 7.88518 135.208 8.21051 135.032 8.55185C134.862 8.88785 134.686 9.22918 134.504 9.57585C134.328 9.91718 134.155 10.2425 133.984 10.5518C133.814 10.8612 133.659 11.1385 133.52 11.3838L132.896 11.2158C133.046 10.9758 133.206 10.7012 133.376 10.3918C133.552 10.0772 133.731 9.74918 133.912 9.40785C134.094 9.06651 134.267 8.72785 134.432 8.39185C134.603 8.05051 134.758 7.73318 134.896 7.43985ZM137.008 9.10385L137.672 9.19985C137.512 9.81851 137.283 10.3465 136.984 10.7838C136.691 11.2212 136.328 11.5892 135.896 11.8878C135.47 12.1812 134.976 12.4185 134.416 12.5998C133.856 12.7865 133.232 12.9358 132.544 13.0478C132.528 12.9945 132.496 12.9332 132.448 12.8638C132.406 12.7998 132.36 12.7332 132.312 12.6638C132.27 12.5998 132.227 12.5465 132.184 12.5038C133.091 12.3865 133.872 12.2052 134.528 11.9598C135.184 11.7092 135.72 11.3572 136.136 10.9038C136.552 10.4452 136.843 9.84518 137.008 9.10385ZM132 8.73585H139.104V9.30385H132V8.73585ZM133.368 10.9278L133.768 10.5038C134.195 10.6212 134.638 10.7598 135.096 10.9198C135.555 11.0798 136.006 11.2532 136.448 11.4398C136.896 11.6212 137.315 11.8078 137.704 11.9998C138.099 12.1865 138.438 12.3705 138.72 12.5518L138.272 13.0478C138.006 12.8665 137.68 12.6772 137.296 12.4798C136.918 12.2878 136.504 12.0958 136.056 11.9038C135.614 11.7118 135.16 11.5332 134.696 11.3678C134.238 11.2025 133.795 11.0558 133.368 10.9278ZM143.512 6.25585C143.352 6.49585 143.152 6.74918 142.912 7.01585C142.678 7.27718 142.416 7.53851 142.128 7.79985C141.84 8.06118 141.534 8.31185 141.208 8.55185C140.888 8.79185 140.56 9.01051 140.224 9.20785C140.182 9.13851 140.123 9.05851 140.048 8.96785C139.979 8.87185 139.91 8.79451 139.84 8.73585C140.304 8.47985 140.75 8.17851 141.176 7.83185C141.608 7.48518 141.998 7.12251 142.344 6.74385C142.691 6.36518 142.968 6.00251 143.176 5.65585H143.784C143.992 5.95451 144.232 6.24785 144.504 6.53585C144.776 6.82385 145.067 7.09851 145.376 7.35985C145.686 7.62118 146 7.86118 146.32 8.07985C146.646 8.29851 146.963 8.48518 147.272 8.63985C147.198 8.71451 147.126 8.79985 147.056 8.89585C146.987 8.98651 146.926 9.07718 146.872 9.16785C146.568 8.98651 146.254 8.78118 145.928 8.55185C145.608 8.32251 145.299 8.07985 145 7.82385C144.702 7.56251 144.424 7.29851 144.168 7.03185C143.912 6.76518 143.694 6.50651 143.512 6.25585ZM140.808 10.4078H146.264V10.9438H140.808V10.4078ZM141.168 8.62385H145.96V9.15985H141.168V8.62385ZM140.152 12.2638H146.976V12.8078H140.152V12.2638ZM143.208 8.84785H143.832V12.5678H143.208V8.84785ZM149.728 12.8398C149.558 12.6265 149.371 12.4132 149.168 12.1998C148.966 11.9865 148.76 11.7812 148.552 11.5838C148.35 11.3865 148.152 11.2105 147.96 11.0558L148.48 10.5998C148.672 10.7545 148.875 10.9332 149.088 11.1358C149.302 11.3385 149.51 11.5465 149.712 11.7598C149.92 11.9732 150.107 12.1785 150.272 12.3758L149.728 12.8398ZM155.992 8.08785H162.976V8.67185H155.992V8.08785ZM156.64 6.56785H162.4V7.13585H156.64V6.56785ZM157.984 9.56785H161.896V10.1278H157.984V9.56785ZM161.712 9.56785H161.832L161.936 9.52785L162.392 9.79985C162.174 10.0292 161.926 10.2798 161.648 10.5518C161.376 10.8238 161.094 11.1038 160.8 11.3918C160.512 11.6745 160.232 11.9438 159.96 12.1998L159.432 11.8798C159.699 11.6345 159.976 11.3732 160.264 11.0958C160.552 10.8132 160.824 10.5438 161.08 10.2878C161.336 10.0318 161.547 9.81585 161.712 9.63985V9.56785ZM157.6 11.5438L157.944 11.1038C158.238 11.1892 158.552 11.2878 158.888 11.3998C159.224 11.5118 159.558 11.6318 159.888 11.7598C160.219 11.8878 160.528 12.0185 160.816 12.1518C161.11 12.2798 161.36 12.4052 161.568 12.5278L161.208 13.0398C161.011 12.9172 160.771 12.7892 160.488 12.6558C160.206 12.5225 159.899 12.3892 159.568 12.2558C159.243 12.1172 158.91 11.9865 158.568 11.8638C158.232 11.7412 157.91 11.6345 157.6 11.5438ZM158.944 5.65585L159.56 5.73585C159.459 6.09318 159.347 6.47185 159.224 6.87185C159.102 7.26651 158.976 7.66385 158.848 8.06385C158.72 8.45851 158.595 8.83451 158.472 9.19185C158.355 9.54385 158.246 9.85585 158.144 10.1278H157.512C157.624 9.83985 157.742 9.51451 157.864 9.15185C157.992 8.78385 158.12 8.39718 158.248 7.99185C158.382 7.58651 158.507 7.18385 158.624 6.78385C158.747 6.38385 158.854 6.00785 158.944 5.65585ZM164.024 12.0238H171.088V12.6158H164.024V12.0238ZM166.264 5.76785H166.88V12.2718H166.264V5.76785ZM168.224 5.77585H168.832V12.3118H168.224V5.77585ZM170.376 7.53585L170.92 7.79185C170.792 8.09585 170.651 8.41585 170.496 8.75185C170.342 9.08785 170.182 9.41318 170.016 9.72785C169.851 10.0372 169.694 10.3172 169.544 10.5678L169.048 10.3118C169.198 10.0665 169.355 9.78385 169.52 9.46385C169.686 9.14385 169.843 8.81585 169.992 8.47985C170.142 8.14385 170.27 7.82918 170.376 7.53585ZM164.2 7.67985L164.76 7.51185C164.904 7.80518 165.048 8.12251 165.192 8.46385C165.336 8.80518 165.47 9.13585 165.592 9.45585C165.72 9.77051 165.822 10.0452 165.896 10.2798L165.296 10.5038C165.232 10.2638 165.139 9.98118 165.016 9.65585C164.899 9.33051 164.768 8.99451 164.624 8.64785C164.486 8.30118 164.344 7.97851 164.2 7.67985ZM173.728 12.8398C173.558 12.6265 173.371 12.4132 173.168 12.1998C172.966 11.9865 172.76 11.7812 172.552 11.5838C172.35 11.3865 172.152 11.2105 171.96 11.0558L172.48 10.5998C172.672 10.7545 172.875 10.9332 173.088 11.1358C173.302 11.3385 173.51 11.5465 173.712 11.7598C173.92 11.9732 174.107 12.1785 174.272 12.3758L173.728 12.8398ZM181.544 7.31185V7.87985H185.56V7.31185H181.544ZM181.544 6.35185V6.91185H185.56V6.35185H181.544ZM180.968 5.92785H186.16V8.30385H180.968V5.92785ZM180.008 8.75185H187.064V9.25585H180.008V8.75185ZM183.568 9.75185H186.408V10.2398H183.568V9.75185ZM181.056 9.79985H183.024V10.2558H181.056V9.79985ZM181.056 10.8158H183.024V11.2638H181.056V10.8158ZM184.4 10.1998C184.635 10.7758 184.998 11.2718 185.488 11.6878C185.984 12.0985 186.571 12.3892 187.248 12.5598C187.211 12.5972 187.168 12.6425 187.12 12.6958C187.072 12.7545 187.027 12.8105 186.984 12.8638C186.947 12.9225 186.915 12.9758 186.888 13.0238C186.184 12.8158 185.579 12.4825 185.072 12.0238C184.571 11.5598 184.187 10.9998 183.92 10.3438L184.4 10.1998ZM186.224 9.75185H186.336L186.44 9.72785L186.808 9.87985C186.632 10.4238 186.382 10.8985 186.056 11.3038C185.731 11.7092 185.358 12.0532 184.936 12.3358C184.515 12.6132 184.072 12.8292 183.608 12.9838C183.576 12.9145 183.526 12.8318 183.456 12.7358C183.392 12.6398 183.331 12.5652 183.272 12.5118C183.592 12.4212 183.904 12.2932 184.208 12.1278C184.518 11.9625 184.803 11.7678 185.064 11.5438C185.331 11.3198 185.563 11.0665 185.76 10.7838C185.963 10.4958 186.118 10.1838 186.224 9.84785V9.75185ZM179.936 12.0398C180.198 12.0132 180.494 11.9838 180.824 11.9518C181.16 11.9198 181.515 11.8825 181.888 11.8398C182.262 11.7972 182.635 11.7545 183.008 11.7118L183.016 12.2078C182.472 12.2772 181.936 12.3438 181.408 12.4078C180.88 12.4718 180.408 12.5278 179.992 12.5758L179.936 12.0398ZM182.712 8.91185H183.288V13.0318H182.712V8.91185ZM180.704 8.92785H181.256V12.1758H180.704V8.92785ZM188.904 5.67185H189.504V13.0238H188.904V5.67185ZM188.184 7.21585L188.64 7.27985C188.63 7.49851 188.606 7.73851 188.568 7.99985C188.536 8.25585 188.491 8.51185 188.432 8.76785C188.379 9.01851 188.315 9.24251 188.24 9.43985L187.768 9.27185C187.843 9.09585 187.907 8.88785 187.96 8.64785C188.019 8.40785 188.067 8.16251 188.104 7.91185C188.142 7.66118 188.168 7.42918 188.184 7.21585ZM189.52 7.14385L189.944 6.95985C190.03 7.11451 190.112 7.28251 190.192 7.46385C190.278 7.63985 190.352 7.81051 190.416 7.97585C190.48 8.14118 190.528 8.28785 190.56 8.41585L190.112 8.63985C190.08 8.51185 190.032 8.36251 189.968 8.19185C189.904 8.01585 189.832 7.83718 189.752 7.65585C189.678 7.46918 189.6 7.29851 189.52 7.14385ZM190.616 6.94385H194.576V9.67185H193.984V7.51185H190.616V6.94385ZM190.184 9.34385H195.264V9.92785H190.184V9.34385ZM192.872 9.46385C193 9.92785 193.176 10.3625 193.4 10.7678C193.624 11.1678 193.896 11.5172 194.216 11.8158C194.542 12.1145 194.915 12.3412 195.336 12.4958C195.288 12.5385 195.235 12.5918 195.176 12.6558C195.123 12.7198 195.072 12.7865 195.024 12.8558C194.976 12.9305 194.936 12.9972 194.904 13.0558C194.462 12.8585 194.075 12.5918 193.744 12.2558C193.414 11.9145 193.134 11.5172 192.904 11.0638C192.675 10.6105 192.488 10.1172 192.344 9.58385L192.872 9.46385ZM192.184 5.67185H192.784V8.33585C192.784 8.65051 192.768 8.97585 192.736 9.31185C192.71 9.64785 192.651 9.98651 192.56 10.3278C192.475 10.6638 192.344 10.9945 192.168 11.3198C191.992 11.6452 191.755 11.9572 191.456 12.2558C191.163 12.5492 190.792 12.8185 190.344 13.0638C190.318 13.0158 190.28 12.9625 190.232 12.9038C190.184 12.8505 190.131 12.7945 190.072 12.7358C190.019 12.6825 189.968 12.6372 189.92 12.5998C190.358 12.3758 190.715 12.1332 190.992 11.8718C191.275 11.6052 191.496 11.3252 191.656 11.0318C191.822 10.7332 191.939 10.4318 192.008 10.1278C192.083 9.81851 192.131 9.51185 192.152 9.20785C192.174 8.90385 192.184 8.61318 192.184 8.33585V5.67185ZM197.728 12.8398C197.558 12.6265 197.371 12.4132 197.168 12.1998C196.966 11.9865 196.76 11.7812 196.552 11.5838C196.35 11.3865 196.152 11.2105 195.96 11.0558L196.48 10.5998C196.672 10.7545 196.875 10.9332 197.088 11.1358C197.302 11.3385 197.51 11.5465 197.712 11.7598C197.92 11.9732 198.107 12.1785 198.272 12.3758L197.728 12.8398ZM205.544 7.31185V7.87985H209.56V7.31185H205.544ZM205.544 6.35185V6.91185H209.56V6.35185H205.544ZM204.968 5.92785H210.16V8.30385H204.968V5.92785ZM204.008 8.75185H211.064V9.25585H204.008V8.75185ZM207.568 9.75185H210.408V10.2398H207.568V9.75185ZM205.056 9.79985H207.024V10.2558H205.056V9.79985ZM205.056 10.8158H207.024V11.2638H205.056V10.8158ZM208.4 10.1998C208.635 10.7758 208.998 11.2718 209.488 11.6878C209.984 12.0985 210.571 12.3892 211.248 12.5598C211.211 12.5972 211.168 12.6425 211.12 12.6958C211.072 12.7545 211.027 12.8105 210.984 12.8638C210.947 12.9225 210.915 12.9758 210.888 13.0238C210.184 12.8158 209.579 12.4825 209.072 12.0238C208.571 11.5598 208.187 10.9998 207.92 10.3438L208.4 10.1998ZM210.224 9.75185H210.336L210.44 9.72785L210.808 9.87985C210.632 10.4238 210.382 10.8985 210.056 11.3038C209.731 11.7092 209.358 12.0532 208.936 12.3358C208.515 12.6132 208.072 12.8292 207.608 12.9838C207.576 12.9145 207.526 12.8318 207.456 12.7358C207.392 12.6398 207.331 12.5652 207.272 12.5118C207.592 12.4212 207.904 12.2932 208.208 12.1278C208.518 11.9625 208.803 11.7678 209.064 11.5438C209.331 11.3198 209.563 11.0665 209.76 10.7838C209.963 10.4958 210.118 10.1838 210.224 9.84785V9.75185ZM203.936 12.0398C204.198 12.0132 204.494 11.9838 204.824 11.9518C205.16 11.9198 205.515 11.8825 205.888 11.8398C206.262 11.7972 206.635 11.7545 207.008 11.7118L207.016 12.2078C206.472 12.2772 205.936 12.3438 205.408 12.4078C204.88 12.4718 204.408 12.5278 203.992 12.5758L203.936 12.0398ZM206.712 8.91185H207.288V13.0318H206.712V8.91185ZM204.704 8.92785H205.256V12.1758H204.704V8.92785ZM215.512 6.25585C215.352 6.49585 215.152 6.74918 214.912 7.01585C214.678 7.27718 214.416 7.53851 214.128 7.79985C213.84 8.06118 213.534 8.31185 213.208 8.55185C212.888 8.79185 212.56 9.01051 212.224 9.20785C212.182 9.13851 212.123 9.05851 212.048 8.96785C211.979 8.87185 211.91 8.79451 211.84 8.73585C212.304 8.47985 212.75 8.17851 213.176 7.83185C213.608 7.48518 213.998 7.12251 214.344 6.74385C214.691 6.36518 214.968 6.00251 215.176 5.65585H215.784C215.992 5.95451 216.232 6.24785 216.504 6.53585C216.776 6.82385 217.067 7.09851 217.376 7.35985C217.686 7.62118 218 7.86118 218.32 8.07985C218.646 8.29851 218.963 8.48518 219.272 8.63985C219.198 8.71451 219.126 8.79985 219.056 8.89585C218.987 8.98651 218.926 9.07718 218.872 9.16785C218.568 8.98651 218.254 8.78118 217.928 8.55185C217.608 8.32251 217.299 8.07985 217 7.82385C216.702 7.56251 216.424 7.29851 216.168 7.03185C215.912 6.76518 215.694 6.50651 215.512 6.25585ZM212.808 10.4078H218.264V10.9438H212.808V10.4078ZM213.168 8.62385H217.96V9.15985H213.168V8.62385ZM212.152 12.2638H218.976V12.8078H212.152V12.2638ZM215.208 8.84785H215.832V12.5678H215.208V8.84785ZM220.592 6.95985H223.024V12.1918H220.592V11.6478H222.472V7.49585H220.592V6.95985ZM220.24 6.95985H220.792V12.8238H220.24V6.95985ZM220.552 9.18385H222.76V9.71185H220.552V9.18385ZM221.464 5.65585L222.112 5.76785C222.032 6.01851 221.944 6.27185 221.848 6.52785C221.758 6.78385 221.672 7.00251 221.592 7.18385L221.104 7.06385C221.152 6.93051 221.198 6.78118 221.24 6.61585C221.288 6.45051 221.331 6.28251 221.368 6.11185C221.411 5.94118 221.443 5.78918 221.464 5.65585ZM224.168 6.93585H226.624V7.48785H224.168V6.93585ZM226.408 6.93585H226.976C226.976 6.93585 226.976 6.95451 226.976 6.99185C226.976 7.02918 226.976 7.07451 226.976 7.12785C226.976 7.17585 226.974 7.21318 226.968 7.23985C226.936 8.15718 226.904 8.93318 226.872 9.56785C226.846 10.2025 226.811 10.7225 226.768 11.1278C226.726 11.5278 226.675 11.8398 226.616 12.0638C226.563 12.2878 226.496 12.4478 226.416 12.5438C226.326 12.6612 226.23 12.7412 226.128 12.7838C226.032 12.8318 225.912 12.8638 225.768 12.8798C225.635 12.8905 225.459 12.8932 225.24 12.8878C225.027 12.8878 224.806 12.8798 224.576 12.8638C224.571 12.7785 224.55 12.6798 224.512 12.5678C224.48 12.4558 224.435 12.3625 224.376 12.2878C224.643 12.3092 224.883 12.3225 225.096 12.3278C225.315 12.3332 225.472 12.3358 225.568 12.3358C225.648 12.3358 225.712 12.3278 225.76 12.3118C225.814 12.2905 225.864 12.2532 225.912 12.1998C225.976 12.1305 226.032 11.9892 226.08 11.7758C226.134 11.5572 226.179 11.2478 226.216 10.8478C226.254 10.4478 226.288 9.93851 226.32 9.31985C226.352 8.69585 226.382 7.94385 226.408 7.06385V6.93585ZM224.328 5.63985L224.904 5.76785C224.808 6.16785 224.691 6.55985 224.552 6.94385C224.419 7.32251 224.27 7.67985 224.104 8.01585C223.944 8.35185 223.774 8.64785 223.592 8.90385C223.555 8.87185 223.504 8.83451 223.44 8.79185C223.382 8.74385 223.32 8.70118 223.256 8.66385C223.192 8.62118 223.136 8.58651 223.088 8.55985C223.275 8.31985 223.446 8.04518 223.6 7.73585C223.755 7.42118 223.894 7.08518 224.016 6.72785C224.139 6.37051 224.243 6.00785 224.328 5.63985ZM223.96 9.00785L224.432 8.74385C224.582 8.93051 224.736 9.13585 224.896 9.35985C225.062 9.58385 225.214 9.79985 225.352 10.0078C225.496 10.2158 225.611 10.3998 225.696 10.5598L225.184 10.8798C225.104 10.7145 224.995 10.5252 224.856 10.3118C224.723 10.0932 224.576 9.87185 224.416 9.64785C224.262 9.41851 224.11 9.20518 223.96 9.00785ZM132.584 17.8798H138.56V18.4798H132.584V17.8798ZM131.968 19.9918H139.152V20.5918H131.968V19.9918ZM135.208 16.6638H135.84V20.3198H135.208V16.6638ZM134.56 20.3758L135.256 20.5678C135.118 20.8772 134.966 21.2025 134.8 21.5438C134.64 21.8852 134.478 22.2185 134.312 22.5438C134.147 22.8638 133.984 23.1465 133.824 23.3918L133.272 23.2078C133.379 23.0158 133.494 22.8025 133.616 22.5678C133.739 22.3332 133.856 22.0878 133.968 21.8318C134.086 21.5758 134.195 21.3225 134.296 21.0718C134.403 20.8212 134.491 20.5892 134.56 20.3758ZM132.248 23.0638C132.627 23.0532 133.051 23.0398 133.52 23.0238C133.995 23.0025 134.496 22.9812 135.024 22.9598C135.558 22.9332 136.102 22.9092 136.656 22.8878C137.216 22.8612 137.771 22.8345 138.32 22.8078L138.296 23.3998C137.576 23.4372 136.854 23.4745 136.128 23.5118C135.408 23.5545 134.723 23.5892 134.072 23.6158C133.422 23.6478 132.843 23.6745 132.336 23.6958L132.248 23.0638ZM136.664 21.5038L137.216 21.2398C137.456 21.5012 137.696 21.7838 137.936 22.0878C138.176 22.3918 138.395 22.6932 138.592 22.9918C138.795 23.2852 138.955 23.5492 139.072 23.7838L138.48 24.0958C138.368 23.8612 138.214 23.5918 138.016 23.2878C137.819 22.9838 137.6 22.6772 137.36 22.3678C137.126 22.0532 136.894 21.7652 136.664 21.5038ZM140.312 18.1038H146.76V21.8638H146.144V18.6878H140.912V21.9038H140.312V18.1038ZM140.632 20.8158H146.504V21.4078H140.632V20.8158ZM143.208 16.6718H143.84V24.0238H143.208V16.6718ZM149.984 18.9038H150.6V22.9278C150.6 23.1145 150.632 23.2345 150.696 23.2878C150.766 23.3412 150.91 23.3678 151.128 23.3678C151.182 23.3678 151.275 23.3678 151.408 23.3678C151.542 23.3678 151.688 23.3678 151.848 23.3678C152.008 23.3678 152.158 23.3678 152.296 23.3678C152.435 23.3678 152.539 23.3678 152.608 23.3678C152.768 23.3678 152.888 23.3252 152.968 23.2398C153.048 23.1545 153.104 22.9918 153.136 22.7518C153.174 22.5065 153.203 22.1545 153.224 21.6958C153.299 21.7492 153.39 21.8025 153.496 21.8558C153.608 21.9092 153.707 21.9465 153.792 21.9678C153.76 22.4692 153.71 22.8638 153.64 23.1518C153.576 23.4345 153.467 23.6345 153.312 23.7518C153.158 23.8692 152.934 23.9278 152.64 23.9278C152.603 23.9278 152.531 23.9278 152.424 23.9278C152.318 23.9278 152.195 23.9278 152.056 23.9278C151.923 23.9278 151.787 23.9278 151.648 23.9278C151.51 23.9278 151.39 23.9278 151.288 23.9278C151.187 23.9278 151.118 23.9278 151.08 23.9278C150.798 23.9278 150.576 23.8985 150.416 23.8398C150.256 23.7812 150.144 23.6772 150.08 23.5278C150.016 23.3838 149.984 23.1812 149.984 22.9198V18.9038ZM150.048 17.1678L150.424 16.7038C150.744 16.8158 151.078 16.9492 151.424 17.1038C151.771 17.2585 152.096 17.4185 152.4 17.5838C152.71 17.7438 152.971 17.8958 153.184 18.0398L152.792 18.5678C152.59 18.4132 152.334 18.2505 152.024 18.0798C151.72 17.9092 151.395 17.7438 151.048 17.5838C150.707 17.4185 150.374 17.2798 150.048 17.1678ZM148.64 19.5518L149.224 19.6718C149.187 20.0292 149.128 20.3998 149.048 20.7838C148.974 21.1678 148.875 21.5332 148.752 21.8798C148.63 22.2265 148.472 22.5278 148.28 22.7838L147.736 22.4638C147.918 22.2238 148.067 21.9438 148.184 21.6238C148.307 21.3038 148.406 20.9652 148.48 20.6078C148.555 20.2505 148.608 19.8985 148.64 19.5518ZM153.312 19.5518L153.848 19.2878C154.088 19.5918 154.31 19.9198 154.512 20.2718C154.72 20.6238 154.896 20.9732 155.04 21.3198C155.19 21.6612 155.296 21.9758 155.36 22.2638L154.768 22.5438C154.71 22.2612 154.608 21.9465 154.464 21.5998C154.32 21.2532 154.147 20.9012 153.944 20.5438C153.747 20.1865 153.536 19.8558 153.312 19.5518ZM159.432 16.8638H160.04V22.8078C160.04 22.9572 160.054 23.0718 160.08 23.1518C160.107 23.2265 160.158 23.2798 160.232 23.3118C160.312 23.3385 160.427 23.3518 160.576 23.3518C160.63 23.3518 160.726 23.3518 160.864 23.3518C161.008 23.3518 161.166 23.3518 161.336 23.3518C161.512 23.3518 161.675 23.3518 161.824 23.3518C161.974 23.3518 162.08 23.3518 162.144 23.3518C162.294 23.3518 162.403 23.3118 162.472 23.2318C162.547 23.1465 162.6 22.9972 162.632 22.7838C162.67 22.5705 162.696 22.2718 162.712 21.8878C162.787 21.9412 162.878 21.9945 162.984 22.0478C163.096 22.0958 163.195 22.1278 163.28 22.1438C163.254 22.5812 163.206 22.9305 163.136 23.1918C163.072 23.4478 162.966 23.6318 162.816 23.7438C162.672 23.8558 162.459 23.9118 162.176 23.9118C162.134 23.9118 162.056 23.9118 161.944 23.9118C161.838 23.9118 161.71 23.9118 161.56 23.9118C161.416 23.9118 161.272 23.9118 161.128 23.9118C160.984 23.9118 160.856 23.9118 160.744 23.9118C160.638 23.9118 160.566 23.9118 160.528 23.9118C160.251 23.9118 160.032 23.8798 159.872 23.8158C159.712 23.7518 159.598 23.6372 159.528 23.4718C159.464 23.3118 159.432 23.0852 159.432 22.7918V16.8638ZM162.44 18.1918L162.872 18.7038C162.606 18.9278 162.304 19.1492 161.968 19.3678C161.632 19.5812 161.28 19.7892 160.912 19.9918C160.55 20.1945 160.192 20.3865 159.84 20.5678C159.819 20.4985 159.782 20.4212 159.728 20.3358C159.68 20.2452 159.635 20.1652 159.592 20.0958C159.934 19.9145 160.28 19.7172 160.632 19.5038C160.984 19.2905 161.318 19.0718 161.632 18.8478C161.947 18.6185 162.216 18.3998 162.44 18.1918ZM158.048 16.7918L158.632 16.9918C158.43 17.4558 158.192 17.9118 157.92 18.3598C157.648 18.8078 157.355 19.2292 157.04 19.6238C156.731 20.0132 156.408 20.3572 156.072 20.6558C156.056 20.6025 156.024 20.5385 155.976 20.4638C155.934 20.3892 155.888 20.3145 155.84 20.2398C155.792 20.1598 155.75 20.0958 155.712 20.0478C156.022 19.7918 156.32 19.4932 156.608 19.1518C156.902 18.8052 157.171 18.4318 157.416 18.0318C157.662 17.6265 157.872 17.2132 158.048 16.7918ZM157.128 18.8878L157.72 18.2958L157.728 18.3118V24.0158H157.128V18.8878ZM168.232 20.9038C168.403 21.2932 168.632 21.6558 168.92 21.9918C169.214 22.3278 169.555 22.6185 169.944 22.8638C170.334 23.1092 170.755 23.2985 171.208 23.4318C171.166 23.4692 171.118 23.5172 171.064 23.5758C171.016 23.6345 170.968 23.6958 170.92 23.7598C170.878 23.8238 170.84 23.8825 170.808 23.9358C170.344 23.7758 169.915 23.5572 169.52 23.2798C169.131 23.0025 168.784 22.6772 168.48 22.3038C168.182 21.9252 167.934 21.5092 167.736 21.0558L168.232 20.9038ZM170.368 20.8078L170.856 21.1118C170.59 21.3252 170.294 21.5412 169.968 21.7598C169.643 21.9785 169.342 22.1652 169.064 22.3198L168.656 22.0318C168.843 21.9252 169.04 21.8025 169.248 21.6638C169.462 21.5198 169.667 21.3732 169.864 21.2238C170.062 21.0745 170.23 20.9358 170.368 20.8078ZM165.816 20.5118L166.328 20.7278C166.142 20.8772 165.934 21.0292 165.704 21.1838C165.48 21.3385 165.251 21.4852 165.016 21.6238C164.782 21.7625 164.558 21.8825 164.344 21.9838C164.318 21.9465 164.278 21.9065 164.224 21.8638C164.171 21.8158 164.115 21.7678 164.056 21.7198C164.003 21.6665 163.955 21.6265 163.912 21.5998C164.243 21.4612 164.579 21.2958 164.92 21.1038C165.267 20.9065 165.566 20.7092 165.816 20.5118ZM166.128 21.9358L166.68 22.1598C166.467 22.3785 166.224 22.5972 165.952 22.8158C165.68 23.0292 165.398 23.2265 165.104 23.4078C164.816 23.5945 164.536 23.7572 164.264 23.8958C164.232 23.8585 164.187 23.8132 164.128 23.7598C164.07 23.7065 164.008 23.6532 163.944 23.5998C163.886 23.5518 163.832 23.5118 163.784 23.4798C164.067 23.3518 164.352 23.2078 164.64 23.0478C164.928 22.8825 165.2 22.7038 165.456 22.5118C165.718 22.3198 165.942 22.1278 166.128 21.9358ZM164.032 17.0638H167.848V17.5118H164.032V17.0638ZM164.928 18.0078H167.064V18.3998H164.928V18.0078ZM164.928 18.8958H167.064V19.2798H164.928V18.8958ZM167.76 17.4558H170.528V17.9438H167.76V17.4558ZM166.792 17.2398H167.344V20.5838H166.792V17.2398ZM170.32 17.4558H170.432L170.528 17.4238L170.912 17.6078C170.731 18.0772 170.478 18.4958 170.152 18.8638C169.827 19.2265 169.462 19.5385 169.056 19.7998C168.656 20.0612 168.246 20.2692 167.824 20.4238C167.787 20.3545 167.734 20.2772 167.664 20.1918C167.6 20.1065 167.542 20.0372 167.488 19.9838C167.878 19.8612 168.259 19.6825 168.632 19.4478C169.011 19.2132 169.35 18.9358 169.648 18.6158C169.947 18.2958 170.171 17.9412 170.32 17.5518V17.4558ZM163.912 19.9438C164.318 19.9172 164.8 19.8825 165.36 19.8398C165.92 19.7972 166.491 19.7518 167.072 19.7038V20.1278C166.523 20.1812 165.976 20.2345 165.432 20.2878C164.888 20.3358 164.406 20.3785 163.984 20.4158L163.912 19.9438ZM167.904 18.6318L168.304 18.2718C168.555 18.3892 168.814 18.5198 169.08 18.6638C169.352 18.8078 169.622 18.9598 169.888 19.1198C170.155 19.2745 170.403 19.4292 170.632 19.5838C170.862 19.7385 171.056 19.8825 171.216 20.0158L170.784 20.4398C170.635 20.3065 170.448 20.1625 170.224 20.0078C170 19.8478 169.758 19.6852 169.496 19.5198C169.235 19.3545 168.968 19.1972 168.696 19.0478C168.424 18.8932 168.16 18.7545 167.904 18.6318ZM168.856 20.2798L169.336 20.5278C169.064 20.6985 168.75 20.8665 168.392 21.0318C168.04 21.1972 167.675 21.3518 167.296 21.4958C166.918 21.6398 166.563 21.7625 166.232 21.8638C166.211 21.8265 166.176 21.7785 166.128 21.7198C166.086 21.6558 166.04 21.5972 165.992 21.5438C165.95 21.4852 165.91 21.4372 165.872 21.3998C166.208 21.3198 166.558 21.2212 166.92 21.1038C167.288 20.9812 167.64 20.8505 167.976 20.7118C168.318 20.5678 168.611 20.4238 168.856 20.2798ZM164.648 17.2398H165.2V20.0398L164.648 20.1038V17.2398ZM167.232 21.3358L167.528 21.0318L167.824 21.1278V24.0078H167.232V21.3358ZM173.528 19.2878H177.568V19.8238H173.528V19.2878ZM173.384 23.1678H177.672V23.7038H173.384V23.1678ZM173.112 20.8318H178.008V24.0398H177.4V21.3758H173.704V24.0398H173.112V20.8318ZM175.528 17.2798C175.31 17.6052 175.024 17.9412 174.672 18.2878C174.326 18.6345 173.939 18.9678 173.512 19.2878C173.091 19.6078 172.651 19.8905 172.192 20.1358C172.166 20.0932 172.131 20.0425 172.088 19.9838C172.046 19.9252 172 19.8665 171.952 19.8078C171.904 19.7492 171.859 19.7012 171.816 19.6638C172.286 19.4238 172.736 19.1385 173.168 18.8078C173.606 18.4772 173.998 18.1278 174.344 17.7598C174.696 17.3918 174.976 17.0345 175.184 16.6878H175.8C176.014 16.9865 176.256 17.2772 176.528 17.5598C176.806 17.8425 177.099 18.1092 177.408 18.3598C177.723 18.6105 178.043 18.8398 178.368 19.0478C178.699 19.2505 179.022 19.4212 179.336 19.5598C179.267 19.6345 179.198 19.7198 179.128 19.8158C179.059 19.9118 178.995 20.0052 178.936 20.0958C178.622 19.9252 178.304 19.7332 177.984 19.5198C177.664 19.3065 177.352 19.0772 177.048 18.8318C176.744 18.5812 176.462 18.3252 176.2 18.0638C175.939 17.7972 175.715 17.5358 175.528 17.2798ZM184.704 19.9198L185.336 20.1038C185.048 20.8452 184.662 21.4718 184.176 21.9838C183.691 22.4958 183.118 22.9198 182.456 23.2558C181.8 23.5865 181.064 23.8558 180.248 24.0638C180.227 24.0105 180.192 23.9465 180.144 23.8718C180.102 23.8025 180.054 23.7332 180 23.6638C179.952 23.5945 179.907 23.5358 179.864 23.4878C180.67 23.3225 181.39 23.0905 182.024 22.7918C182.664 22.4878 183.208 22.1038 183.656 21.6398C184.11 21.1705 184.459 20.5972 184.704 19.9198ZM182.088 18.5438L182.704 18.7758C182.512 19.0318 182.291 19.2825 182.04 19.5278C181.795 19.7732 181.534 20.0052 181.256 20.2238C180.984 20.4372 180.72 20.6238 180.464 20.7838C180.432 20.7412 180.387 20.6905 180.328 20.6318C180.27 20.5678 180.208 20.5065 180.144 20.4478C180.08 20.3892 180.024 20.3412 179.976 20.3038C180.238 20.1652 180.499 20.0025 180.76 19.8158C181.022 19.6292 181.267 19.4292 181.496 19.2158C181.731 18.9972 181.928 18.7732 182.088 18.5438ZM182.416 19.9678C182.79 20.9118 183.379 21.6798 184.184 22.2718C184.995 22.8585 186.019 23.2558 187.256 23.4638C187.214 23.5065 187.166 23.5625 187.112 23.6318C187.064 23.7012 187.016 23.7705 186.968 23.8398C186.926 23.9145 186.888 23.9785 186.856 24.0318C186.008 23.8665 185.262 23.6158 184.616 23.2798C183.971 22.9385 183.419 22.5065 182.96 21.9838C182.507 21.4612 182.136 20.8478 181.848 20.1438L182.416 19.9678ZM180.032 17.7118H187.056V18.3038H180.032V17.7118ZM183.224 16.6638H183.832V18.0878H183.224V16.6638ZM184.488 18.8798L184.976 18.5198C185.232 18.6852 185.496 18.8718 185.768 19.0798C186.04 19.2878 186.296 19.4985 186.536 19.7118C186.782 19.9198 186.982 20.1118 187.136 20.2878L186.608 20.7118C186.47 20.5305 186.283 20.3332 186.048 20.1198C185.814 19.9012 185.558 19.6852 185.28 19.4718C185.008 19.2532 184.744 19.0558 184.488 18.8798ZM189.624 18.8078V19.6078H193.576V18.8078H189.624ZM189.624 17.5438V18.3278H193.576V17.5438H189.624ZM189.032 17.0398H194.176V20.1118H189.032V17.0398ZM189.48 20.7918H194.272V21.3358H189.48V20.7918ZM194.12 20.7918H194.728C194.728 20.7918 194.726 20.8078 194.72 20.8398C194.72 20.8718 194.718 20.9092 194.712 20.9518C194.712 20.9945 194.71 21.0318 194.704 21.0638C194.656 21.6612 194.603 22.1465 194.544 22.5198C194.491 22.8932 194.432 23.1812 194.368 23.3838C194.304 23.5812 194.232 23.7225 194.152 23.8078C194.078 23.8878 193.995 23.9438 193.904 23.9758C193.819 24.0078 193.718 24.0265 193.6 24.0318C193.499 24.0425 193.358 24.0452 193.176 24.0398C193 24.0398 192.811 24.0345 192.608 24.0238C192.603 23.9492 192.587 23.8612 192.56 23.7598C192.534 23.6585 192.496 23.5705 192.448 23.4958C192.646 23.5172 192.827 23.5305 192.992 23.5358C193.163 23.5412 193.283 23.5438 193.352 23.5438C193.427 23.5438 193.486 23.5385 193.528 23.5278C193.571 23.5172 193.611 23.4905 193.648 23.4478C193.712 23.3892 193.771 23.2692 193.824 23.0878C193.878 22.9012 193.928 22.6318 193.976 22.2798C194.03 21.9225 194.078 21.4585 194.12 20.8878V20.7918ZM190.08 19.8558L190.664 20.0398C190.472 20.3545 190.248 20.6558 189.992 20.9438C189.736 21.2318 189.467 21.4985 189.184 21.7438C188.902 21.9892 188.616 22.2025 188.328 22.3838C188.296 22.3465 188.251 22.3012 188.192 22.2478C188.134 22.1892 188.075 22.1332 188.016 22.0798C187.958 22.0265 187.904 21.9865 187.856 21.9598C188.294 21.7092 188.712 21.3998 189.112 21.0318C189.512 20.6638 189.835 20.2718 190.08 19.8558ZM190.952 20.9598L191.52 21.1278C191.328 21.5065 191.096 21.8638 190.824 22.1998C190.552 22.5358 190.262 22.8452 189.952 23.1278C189.643 23.4105 189.323 23.6585 188.992 23.8718C188.966 23.8345 188.923 23.7865 188.864 23.7278C188.806 23.6745 188.747 23.6212 188.688 23.5678C188.63 23.5145 188.579 23.4718 188.536 23.4398C189.032 23.1572 189.494 22.7998 189.92 22.3678C190.347 21.9305 190.691 21.4612 190.952 20.9598ZM192.608 20.9998L193.184 21.1358C192.971 21.7385 192.694 22.2958 192.352 22.8078C192.016 23.3145 191.643 23.7358 191.232 24.0718C191.2 24.0398 191.155 23.9998 191.096 23.9518C191.038 23.9038 190.976 23.8558 190.912 23.8078C190.854 23.7652 190.803 23.7278 190.76 23.6958C191.166 23.3865 191.528 22.9972 191.848 22.5278C192.168 22.0585 192.422 21.5492 192.608 20.9998ZM196.384 17.2078H202.688V17.8078H196.384V17.2078ZM195.96 20.6078H203.136V21.2078H195.96V20.6078ZM196.936 18.3518L197.48 18.1918C197.587 18.3838 197.691 18.5892 197.792 18.8078C197.894 19.0265 197.984 19.2425 198.064 19.4558C198.15 19.6638 198.208 19.8452 198.24 19.9998L197.672 20.1998C197.635 20.0398 197.576 19.8558 197.496 19.6478C197.422 19.4345 197.336 19.2158 197.24 18.9918C197.144 18.7625 197.043 18.5492 196.936 18.3518ZM201.584 18.1518L202.216 18.3278C202.12 18.5465 202.014 18.7705 201.896 18.9998C201.784 19.2292 201.672 19.4505 201.56 19.6638C201.448 19.8772 201.339 20.0638 201.232 20.2238L200.712 20.0558C200.814 19.8852 200.918 19.6905 201.024 19.4718C201.136 19.2478 201.24 19.0212 201.336 18.7918C201.432 18.5572 201.515 18.3438 201.584 18.1518ZM199.216 17.4398H199.84V24.0238H199.216V17.4398ZM205.272 23.0958H209.776V23.6718H205.272V23.0958ZM204.992 20.6158H210.096V24.0158H209.456V21.1918H205.608V24.0318H204.992V20.6158ZM206.6 16.6398L207.264 16.8718C207.104 17.1812 206.926 17.5038 206.728 17.8398C206.536 18.1705 206.342 18.4905 206.144 18.7998C205.947 19.1038 205.758 19.3732 205.576 19.6078L205.048 19.3838C205.23 19.1492 205.416 18.8745 205.608 18.5598C205.8 18.2398 205.982 17.9118 206.152 17.5758C206.328 17.2398 206.478 16.9278 206.6 16.6398ZM208.528 17.9358L209 17.5918C209.272 17.8052 209.55 18.0452 209.832 18.3118C210.115 18.5732 210.374 18.8398 210.608 19.1118C210.848 19.3785 211.038 19.6212 211.176 19.8398L210.656 20.2398C210.528 20.0212 210.347 19.7758 210.112 19.5038C209.883 19.2318 209.63 18.9598 209.352 18.6878C209.075 18.4105 208.8 18.1598 208.528 17.9358ZM204.048 19.1278C204.427 19.1172 204.859 19.1038 205.344 19.0878C205.83 19.0665 206.347 19.0452 206.896 19.0238C207.451 19.0025 208.016 18.9785 208.592 18.9518C209.174 18.9252 209.747 18.9012 210.312 18.8798L210.28 19.4558C209.72 19.4878 209.155 19.5172 208.584 19.5438C208.019 19.5652 207.464 19.5892 206.92 19.6158C206.376 19.6425 205.864 19.6665 205.384 19.6878C204.904 19.7038 204.475 19.7198 204.096 19.7358L204.048 19.1278Z" fill="#2A2A2A"/>
<rect x="117.376" y="11.4119" width="1.22266" height="6.11331" fill="#2A2A2A"/>
<defs>
<linearGradient id="paint0_linear_12353_5412" x1="22.3139" y1="25.2069" x2="0.487302" y2="9.60346" gradientUnits="userSpaceOnUse">
<stop stop-color="#8B4FDD"/>
<stop offset="1" stop-color="#12B886"/>
</linearGradient>
<linearGradient id="paint1_linear_12353_5412" x1="22.9117" y1="26.5832" x2="13.2095" y2="13.5321" gradientUnits="userSpaceOnUse">
<stop stop-color="#8B4FDD"/>
<stop offset="1" stop-color="#12B886"/>
</linearGradient>
<linearGradient id="paint2_linear_12353_5412" x1="27.8" y1="20.7093" x2="11.1763" y2="10.858" gradientUnits="userSpaceOnUse">
<stop stop-color="#8B4FDD"/>
<stop offset="1" stop-color="#12B886"/>
</linearGradient>
<linearGradient id="paint3_linear_12353_5412" x1="15.2037" y1="20.7093" x2="-1.42369" y2="10.8513" gradientUnits="userSpaceOnUse">
<stop stop-color="#8B4FDD"/>
<stop offset="1" stop-color="#12B886"/>
</linearGradient>
</defs>
</svg>
