<svg width="292" height="28" viewBox="0 0 292 28" fill="none" xmlns="http://www.w3.org/2000/svg">
<path d="M25.5764 22.6833L24.2827 20.489H5.69116L15.0014 4.26915L12.5704 0H9.4332C8.75955 0.00152116 8.09837 0.183069 7.51721 0.526093C6.93602 0.869118 6.45571 1.36133 6.12527 1.95244L0.49918 11.9478C0.172054 12.5247 0 13.1776 0 13.842C0 14.5063 0.172054 15.1592 0.49918 15.7361L4.43802 22.73L6.12527 25.7256C6.41447 26.2395 6.81788 26.6789 7.30391 27.0096C7.78994 27.3402 8.34538 27.553 8.92674 27.6315C9.09358 27.6549 9.26185 27.6666 9.43031 27.6664H20.5581C21.2315 27.6668 21.893 27.4874 22.4751 27.1464C23.0572 26.8055 23.5392 26.3153 23.8718 25.7256L25.5475 22.73L25.5764 22.6833Z" fill="url(#paint0_linear_12422_5848)"/>
<path d="M25.6081 22.6833L25.5763 22.7387L23.8977 25.7227C23.5665 26.3123 23.0857 26.8026 22.5045 27.1436C21.9232 27.4846 21.2625 27.664 20.5898 27.6635H9.46202C9.29355 27.6636 9.12529 27.652 8.95845 27.6285C8.37613 27.5508 7.81963 27.3382 7.33255 27.0075C6.84551 26.6769 6.44115 26.2371 6.15119 25.7227L4.46973 22.7299L5.7547 20.4919L5.82126 20.4511L12.0609 16.6628C13.0246 16.0333 13.7453 15.6633 14.4283 15.5467C14.4437 15.5453 14.4592 15.5453 14.4746 15.5467L14.6077 15.5292L14.8392 15.5117H14.9781C15.0894 15.5148 15.2006 15.5235 15.311 15.5379C16.02 15.6341 16.7783 15.9925 17.8143 16.5928L24.2797 20.4657L24.3173 20.489L25.6081 22.6833Z" fill="url(#paint1_linear_12422_5848)"/>
<path d="M29.525 15.7361L25.5803 22.73L25.6122 22.6746L24.3156 20.489L15.0546 4.24875V4.26915L12.6033 0H20.5938C21.2678 0.00190873 21.9292 0.183588 22.5108 0.526548C23.0924 0.869508 23.5733 1.3615 23.9047 1.95244L29.525 11.9478C29.8506 12.5252 30.0219 13.1779 30.0219 13.842C30.0219 14.506 29.8506 15.1587 29.525 15.7361Z" fill="url(#paint2_linear_12422_5848)"/>
<path d="M0.49918 15.7361L4.4467 22.73L4.41487 22.6746L5.70852 20.4803L14.9696 4.24001V4.26041L17.4267 0H9.4332C8.75955 0.00152116 8.09837 0.183069 7.51721 0.526093C6.93602 0.869118 6.45571 1.36133 6.12527 1.95244L0.49918 11.9478C0.172054 12.5247 0 13.1776 0 13.842C0 14.5063 0.172054 15.1592 0.49918 15.7361Z" fill="url(#paint3_linear_12422_5848)"/>
<path d="M38.9795 22.5353L44.9992 5.51699H48.1711L54.1908 22.5353H50.9031L49.8612 19.5047H43.309L42.2672 22.5353H38.9795ZM46.5967 10.0164L44.3741 16.474H48.8194L46.5967 10.0164ZM57.7054 22.5353L52.5423 8.89734H55.8068L59.3029 18.5022L62.7295 8.89734H65.9477L60.8541 22.5353H57.7054ZM72.7711 22.8151C68.511 22.8151 65.6169 19.6912 65.6169 15.7513C65.6169 11.7648 68.6962 8.61759 72.6553 8.61759C76.6839 8.61759 79.6243 11.6016 79.6243 15.6347V16.8237H68.6036C69.0435 18.7586 70.5484 20.0409 72.7711 20.0409C74.5307 20.0409 75.8735 19.1083 76.5218 17.6396L79.0918 19.1317C77.911 21.3464 75.8272 22.8151 72.7711 22.8151ZM72.6553 11.3918C70.78 11.3918 69.3213 12.5108 68.7657 14.1893H76.4524C75.9893 12.3476 74.6001 11.3918 72.6553 11.3918ZM80.6311 20.9267C80.6311 19.7844 81.3489 19.0151 82.5296 19.0151C83.7104 19.0151 84.405 19.7844 84.405 20.9267C84.405 22.0458 83.6873 22.8151 82.5065 22.8151C81.3257 22.8151 80.6311 22.0458 80.6311 20.9267ZM92.046 22.8151C88.7814 22.8151 85.378 20.204 85.378 15.728C85.378 11.2053 88.6657 8.61759 92.0923 8.61759C93.875 8.61759 95.4494 9.34029 96.445 10.5292V8.89734H99.5706V22.5353H96.445V20.7635C95.4494 22.0457 93.8287 22.8151 92.046 22.8151ZM92.5553 19.9243C94.8937 19.9243 96.607 18.036 96.607 15.6814C96.607 13.3501 94.8937 11.4851 92.5553 11.4851C90.2401 11.4851 88.4573 13.3268 88.4573 15.6814C88.4573 18.0593 90.2401 19.9243 92.5553 19.9243ZM101.351 22.5353V8.89734H104.5V22.5353H101.351ZM100.957 5.56362C100.957 4.37467 101.721 3.58203 102.925 3.58203C104.152 3.58203 104.893 4.37467 104.893 5.56362C104.893 6.75257 104.152 7.52189 102.925 7.52189C101.652 7.52189 100.957 6.75257 100.957 5.56362Z" fill="#2A2A2A"/>
<path d="M132.916 14.582V8.95703H131.179V7.87703H135.859V8.95703H134.149V14.582H132.916ZM136.507 14.582V7.76903H137.686V10.649L137.524 10.478C137.638 10.184 137.824 9.96203 138.082 9.81203C138.346 9.65603 138.652 9.57803 139 9.57803C139.36 9.57803 139.678 9.65603 139.954 9.81203C140.236 9.96803 140.455 10.187 140.611 10.469C140.767 10.745 140.845 11.066 140.845 11.432V14.582H139.666V11.711C139.666 11.495 139.624 11.309 139.54 11.153C139.456 10.997 139.339 10.877 139.189 10.793C139.045 10.703 138.874 10.658 138.676 10.658C138.484 10.658 138.313 10.703 138.163 10.793C138.013 10.877 137.896 10.997 137.812 11.153C137.728 11.309 137.686 11.495 137.686 11.711V14.582H136.507ZM144.164 14.69C143.66 14.69 143.219 14.576 142.841 14.348C142.463 14.12 142.169 13.811 141.959 13.421C141.749 13.031 141.644 12.599 141.644 12.125C141.644 11.633 141.749 11.198 141.959 10.82C142.175 10.436 142.466 10.133 142.832 9.91103C143.204 9.68903 143.618 9.57803 144.074 9.57803C144.458 9.57803 144.794 9.64103 145.082 9.76703C145.376 9.89303 145.625 10.067 145.829 10.289C146.033 10.511 146.189 10.766 146.297 11.054C146.405 11.336 146.459 11.642 146.459 11.972C146.459 12.056 146.453 12.143 146.441 12.233C146.435 12.323 146.42 12.401 146.396 12.467H142.616V11.567H145.73L145.172 11.99C145.226 11.714 145.211 11.468 145.127 11.252C145.049 11.036 144.917 10.865 144.731 10.739C144.551 10.613 144.332 10.55 144.074 10.55C143.828 10.55 143.609 10.613 143.417 10.739C143.225 10.859 143.078 11.039 142.976 11.279C142.88 11.513 142.844 11.798 142.868 12.134C142.844 12.434 142.883 12.701 142.985 12.935C143.093 13.163 143.249 13.34 143.453 13.466C143.663 13.592 143.903 13.655 144.173 13.655C144.443 13.655 144.671 13.598 144.857 13.484C145.049 13.37 145.199 13.217 145.307 13.025L146.261 13.493C146.165 13.727 146.015 13.934 145.811 14.114C145.607 14.294 145.364 14.435 145.082 14.537C144.806 14.639 144.5 14.69 144.164 14.69ZM151.635 14.69C151.119 14.69 150.66 14.582 150.258 14.366C149.862 14.15 149.55 13.853 149.322 13.475C149.094 13.097 148.98 12.668 148.98 12.188V7.87703H150.204V12.125C150.204 12.401 150.264 12.65 150.384 12.872C150.51 13.094 150.681 13.268 150.897 13.394C151.113 13.514 151.359 13.574 151.635 13.574C151.917 13.574 152.163 13.514 152.373 13.394C152.589 13.268 152.757 13.094 152.877 12.872C153.003 12.65 153.066 12.401 153.066 12.125V7.87703H154.29V12.188C154.29 12.668 154.176 13.097 153.948 13.475C153.72 13.853 153.405 14.15 153.003 14.366C152.607 14.582 152.151 14.69 151.635 14.69ZM155.413 14.582V7.76903H156.592V14.582H155.413ZM159.912 14.636C159.36 14.636 158.931 14.486 158.625 14.186C158.325 13.88 158.175 13.451 158.175 12.899V10.739H157.329V9.68603H157.419C157.659 9.68603 157.845 9.62303 157.977 9.49703C158.109 9.37103 158.175 9.18803 158.175 8.94803V8.57003H159.354V9.68603H160.479V10.739H159.354V12.836C159.354 12.998 159.381 13.136 159.435 13.25C159.495 13.364 159.585 13.451 159.705 13.511C159.831 13.571 159.99 13.601 160.182 13.601C160.224 13.601 160.272 13.598 160.326 13.592C160.386 13.586 160.443 13.58 160.497 13.574V14.582C160.413 14.594 160.317 14.606 160.209 14.618C160.101 14.63 160.002 14.636 159.912 14.636ZM161.398 14.582V9.68603H162.577V14.582H161.398ZM161.398 9.13703V7.87703H162.577V9.13703H161.398ZM163.665 14.582V9.68603H164.772V10.82L164.646 10.631C164.736 10.277 164.916 10.013 165.186 9.83903C165.456 9.66503 165.774 9.57803 166.14 9.57803C166.542 9.57803 166.896 9.68303 167.202 9.89303C167.508 10.103 167.706 10.379 167.796 10.721L167.463 10.748C167.613 10.358 167.838 10.067 168.138 9.87503C168.438 9.67703 168.783 9.57803 169.173 9.57803C169.521 9.57803 169.83 9.65603 170.1 9.81203C170.376 9.96803 170.592 10.187 170.748 10.469C170.904 10.745 170.982 11.066 170.982 11.432V14.582H169.803V11.711C169.803 11.495 169.764 11.309 169.686 11.153C169.608 10.997 169.5 10.877 169.362 10.793C169.224 10.703 169.056 10.658 168.858 10.658C168.672 10.658 168.507 10.703 168.363 10.793C168.219 10.877 168.108 10.997 168.03 11.153C167.952 11.309 167.913 11.495 167.913 11.711V14.582H166.734V11.711C166.734 11.495 166.695 11.309 166.617 11.153C166.539 10.997 166.428 10.877 166.284 10.793C166.146 10.703 165.981 10.658 165.789 10.658C165.603 10.658 165.438 10.703 165.294 10.793C165.15 10.877 165.039 10.997 164.961 11.153C164.883 11.309 164.844 11.495 164.844 11.711V14.582H163.665ZM173.465 14.69C173.123 14.69 172.826 14.633 172.574 14.519C172.322 14.405 172.127 14.243 171.989 14.033C171.851 13.817 171.782 13.568 171.782 13.286C171.782 13.016 171.842 12.776 171.962 12.566C172.082 12.35 172.268 12.17 172.52 12.026C172.772 11.882 173.09 11.78 173.474 11.72L175.076 11.459V12.359L173.699 12.593C173.465 12.635 173.291 12.71 173.177 12.818C173.063 12.926 173.006 13.067 173.006 13.241C173.006 13.409 173.069 13.544 173.195 13.646C173.327 13.742 173.489 13.79 173.681 13.79C173.927 13.79 174.143 13.739 174.329 13.637C174.521 13.529 174.668 13.382 174.77 13.196C174.878 13.01 174.932 12.806 174.932 12.584V11.324C174.932 11.114 174.848 10.94 174.68 10.802C174.518 10.658 174.302 10.586 174.032 10.586C173.78 10.586 173.555 10.655 173.357 10.793C173.165 10.925 173.024 11.102 172.934 11.324L171.971 10.856C172.067 10.598 172.217 10.376 172.421 10.19C172.631 9.99803 172.877 9.84803 173.159 9.74003C173.441 9.63203 173.747 9.57803 174.077 9.57803C174.479 9.57803 174.833 9.65303 175.139 9.80303C175.445 9.94703 175.682 10.151 175.85 10.415C176.024 10.673 176.111 10.976 176.111 11.324V14.582H174.995V13.745L175.247 13.727C175.121 13.937 174.971 14.114 174.797 14.258C174.623 14.396 174.425 14.504 174.203 14.582C173.981 14.654 173.735 14.69 173.465 14.69ZM179.345 14.636C178.793 14.636 178.364 14.486 178.058 14.186C177.758 13.88 177.608 13.451 177.608 12.899V10.739H176.762V9.68603H176.852C177.092 9.68603 177.278 9.62303 177.41 9.49703C177.542 9.37103 177.608 9.18803 177.608 8.94803V8.57003H178.787V9.68603H179.912V10.739H178.787V12.836C178.787 12.998 178.814 13.136 178.868 13.25C178.928 13.364 179.018 13.451 179.138 13.511C179.264 13.571 179.423 13.601 179.615 13.601C179.657 13.601 179.705 13.598 179.759 13.592C179.819 13.586 179.876 13.58 179.93 13.574V14.582C179.846 14.594 179.75 14.606 179.642 14.618C179.534 14.63 179.435 14.636 179.345 14.636ZM183.109 14.69C182.605 14.69 182.164 14.576 181.786 14.348C181.408 14.12 181.114 13.811 180.904 13.421C180.694 13.031 180.589 12.599 180.589 12.125C180.589 11.633 180.694 11.198 180.904 10.82C181.12 10.436 181.411 10.133 181.777 9.91103C182.149 9.68903 182.563 9.57803 183.019 9.57803C183.403 9.57803 183.739 9.64103 184.027 9.76703C184.321 9.89303 184.57 10.067 184.774 10.289C184.978 10.511 185.134 10.766 185.242 11.054C185.35 11.336 185.404 11.642 185.404 11.972C185.404 12.056 185.398 12.143 185.386 12.233C185.38 12.323 185.365 12.401 185.341 12.467H181.561V11.567H184.675L184.117 11.99C184.171 11.714 184.156 11.468 184.072 11.252C183.994 11.036 183.862 10.865 183.676 10.739C183.496 10.613 183.277 10.55 183.019 10.55C182.773 10.55 182.554 10.613 182.362 10.739C182.17 10.859 182.023 11.039 181.921 11.279C181.825 11.513 181.789 11.798 181.813 12.134C181.789 12.434 181.828 12.701 181.93 12.935C182.038 13.163 182.194 13.34 182.398 13.466C182.608 13.592 182.848 13.655 183.118 13.655C183.388 13.655 183.616 13.598 183.802 13.484C183.994 13.37 184.144 13.217 184.252 13.025L185.206 13.493C185.11 13.727 184.96 13.934 184.756 14.114C184.552 14.294 184.309 14.435 184.027 14.537C183.751 14.639 183.445 14.69 183.109 14.69ZM189.247 14.582L187.447 7.87703H188.761L190.174 13.592H189.832L191.308 7.87703H192.577L194.044 13.592H193.702L195.115 7.87703H196.429L194.629 14.582H193.225L191.74 9.02003H192.136L190.651 14.582H189.247ZM199.105 14.69C198.601 14.69 198.16 14.576 197.782 14.348C197.404 14.12 197.11 13.811 196.9 13.421C196.69 13.031 196.585 12.599 196.585 12.125C196.585 11.633 196.69 11.198 196.9 10.82C197.116 10.436 197.407 10.133 197.773 9.91103C198.145 9.68903 198.559 9.57803 199.015 9.57803C199.399 9.57803 199.735 9.64103 200.023 9.76703C200.317 9.89303 200.566 10.067 200.77 10.289C200.974 10.511 201.13 10.766 201.238 11.054C201.346 11.336 201.4 11.642 201.4 11.972C201.4 12.056 201.394 12.143 201.382 12.233C201.376 12.323 201.361 12.401 201.337 12.467H197.557V11.567H200.671L200.113 11.99C200.167 11.714 200.152 11.468 200.068 11.252C199.99 11.036 199.858 10.865 199.672 10.739C199.492 10.613 199.273 10.55 199.015 10.55C198.769 10.55 198.55 10.613 198.358 10.739C198.166 10.859 198.019 11.039 197.917 11.279C197.821 11.513 197.785 11.798 197.809 12.134C197.785 12.434 197.824 12.701 197.926 12.935C198.034 13.163 198.19 13.34 198.394 13.466C198.604 13.592 198.844 13.655 199.114 13.655C199.384 13.655 199.612 13.598 199.798 13.484C199.99 13.37 200.14 13.217 200.248 13.025L201.202 13.493C201.106 13.727 200.956 13.934 200.752 14.114C200.548 14.294 200.305 14.435 200.023 14.537C199.747 14.639 199.441 14.69 199.105 14.69ZM204.966 14.69C204.612 14.69 204.285 14.621 203.985 14.483C203.691 14.339 203.457 14.135 203.283 13.871L203.4 13.637V14.582H202.293V7.76903H203.472V10.658L203.292 10.415C203.46 10.151 203.688 9.94703 203.976 9.80303C204.264 9.65303 204.597 9.57803 204.975 9.57803C205.437 9.57803 205.854 9.69203 206.226 9.92003C206.598 10.148 206.892 10.454 207.108 10.838C207.33 11.222 207.441 11.654 207.441 12.134C207.441 12.608 207.333 13.04 207.117 13.43C206.901 13.82 206.607 14.129 206.235 14.357C205.863 14.579 205.44 14.69 204.966 14.69ZM204.831 13.61C205.101 13.61 205.341 13.547 205.551 13.421C205.761 13.295 205.923 13.121 206.037 12.899C206.157 12.677 206.217 12.422 206.217 12.134C206.217 11.846 206.157 11.594 206.037 11.378C205.923 11.156 205.761 10.982 205.551 10.856C205.341 10.724 205.101 10.658 204.831 10.658C204.573 10.658 204.339 10.721 204.129 10.847C203.925 10.973 203.763 11.15 203.643 11.378C203.529 11.6 203.472 11.852 203.472 12.134C203.472 12.422 203.529 12.677 203.643 12.899C203.763 13.121 203.925 13.295 204.129 13.421C204.339 13.547 204.573 13.61 204.831 13.61ZM210.428 14.69C210.062 14.69 209.714 14.624 209.384 14.492C209.06 14.354 208.781 14.162 208.547 13.916C208.319 13.664 208.163 13.367 208.079 13.025L209.15 12.647C209.258 12.953 209.423 13.187 209.645 13.349C209.867 13.505 210.128 13.583 210.428 13.583C210.668 13.583 210.875 13.538 211.049 13.448C211.229 13.358 211.37 13.229 211.472 13.061C211.574 12.887 211.625 12.683 211.625 12.449C211.625 12.215 211.574 12.017 211.472 11.855C211.376 11.687 211.238 11.558 211.058 11.468C210.878 11.378 210.665 11.333 210.419 11.333C210.305 11.333 210.185 11.345 210.059 11.369C209.939 11.393 209.831 11.429 209.735 11.477L209.456 10.892L211.193 8.91203H208.457V7.87703H212.57V8.84003L210.824 10.883L210.842 10.424C211.244 10.43 211.595 10.517 211.895 10.685C212.195 10.853 212.429 11.084 212.597 11.378C212.765 11.672 212.849 12.017 212.849 12.413C212.849 12.845 212.744 13.235 212.534 13.583C212.324 13.925 212.036 14.195 211.67 14.393C211.304 14.591 210.89 14.69 210.428 14.69ZM216.729 14.582V8.95703H214.992V7.87703H219.672V8.95703H217.962V14.582H216.729ZM219.784 14.582V9.68603H220.891V10.775L220.801 10.613C220.915 10.247 221.092 9.99203 221.332 9.84803C221.578 9.70403 221.872 9.63203 222.214 9.63203H222.502V10.676H222.079C221.743 10.676 221.473 10.781 221.269 10.991C221.065 11.195 220.963 11.483 220.963 11.855V14.582H219.784ZM224.635 14.69C224.293 14.69 223.996 14.633 223.744 14.519C223.492 14.405 223.297 14.243 223.159 14.033C223.021 13.817 222.952 13.568 222.952 13.286C222.952 13.016 223.012 12.776 223.132 12.566C223.252 12.35 223.438 12.17 223.69 12.026C223.942 11.882 224.26 11.78 224.644 11.72L226.246 11.459V12.359L224.869 12.593C224.635 12.635 224.461 12.71 224.347 12.818C224.233 12.926 224.176 13.067 224.176 13.241C224.176 13.409 224.239 13.544 224.365 13.646C224.497 13.742 224.659 13.79 224.851 13.79C225.097 13.79 225.313 13.739 225.499 13.637C225.691 13.529 225.838 13.382 225.94 13.196C226.048 13.01 226.102 12.806 226.102 12.584V11.324C226.102 11.114 226.018 10.94 225.85 10.802C225.688 10.658 225.472 10.586 225.202 10.586C224.95 10.586 224.725 10.655 224.527 10.793C224.335 10.925 224.194 11.102 224.104 11.324L223.141 10.856C223.237 10.598 223.387 10.376 223.591 10.19C223.801 9.99803 224.047 9.84803 224.329 9.74003C224.611 9.63203 224.917 9.57803 225.247 9.57803C225.649 9.57803 226.003 9.65303 226.309 9.80303C226.615 9.94703 226.852 10.151 227.02 10.415C227.194 10.673 227.281 10.976 227.281 11.324V14.582H226.165V13.745L226.417 13.727C226.291 13.937 226.141 14.114 225.967 14.258C225.793 14.396 225.595 14.504 225.373 14.582C225.151 14.654 224.905 14.69 224.635 14.69ZM230.648 14.69C230.174 14.69 229.751 14.579 229.379 14.357C229.007 14.129 228.713 13.82 228.497 13.43C228.281 13.04 228.173 12.608 228.173 12.134C228.173 11.654 228.281 11.222 228.497 10.838C228.713 10.454 229.007 10.148 229.379 9.92003C229.757 9.69203 230.177 9.57803 230.639 9.57803C231.011 9.57803 231.341 9.65303 231.629 9.80303C231.923 9.94703 232.154 10.151 232.322 10.415L232.142 10.658V7.76903H233.321V14.582H232.205V13.637L232.331 13.871C232.163 14.135 231.929 14.339 231.629 14.483C231.329 14.621 231.002 14.69 230.648 14.69ZM230.774 13.61C231.044 13.61 231.281 13.547 231.485 13.421C231.689 13.295 231.848 13.121 231.962 12.899C232.082 12.677 232.142 12.422 232.142 12.134C232.142 11.852 232.082 11.6 231.962 11.378C231.848 11.15 231.689 10.973 231.485 10.847C231.281 10.721 231.044 10.658 230.774 10.658C230.51 10.658 230.273 10.724 230.063 10.856C229.853 10.982 229.688 11.156 229.568 11.378C229.454 11.594 229.397 11.846 229.397 12.134C229.397 12.422 229.454 12.677 229.568 12.899C229.688 13.121 229.853 13.295 230.063 13.421C230.273 13.547 230.51 13.61 230.774 13.61ZM234.417 14.582V9.68603H235.596V14.582H234.417ZM234.417 9.13703V7.87703H235.596V9.13703H234.417ZM236.685 14.582V9.68603H237.792V10.649L237.702 10.478C237.816 10.184 238.002 9.96203 238.26 9.81203C238.524 9.65603 238.83 9.57803 239.178 9.57803C239.538 9.57803 239.856 9.65603 240.132 9.81203C240.414 9.96803 240.633 10.187 240.789 10.469C240.945 10.745 241.023 11.066 241.023 11.432V14.582H239.844V11.711C239.844 11.495 239.802 11.309 239.718 11.153C239.634 10.997 239.517 10.877 239.367 10.793C239.223 10.703 239.052 10.658 238.854 10.658C238.662 10.658 238.491 10.703 238.341 10.793C238.191 10.877 238.074 10.997 237.99 11.153C237.906 11.309 237.864 11.495 237.864 11.711V14.582H236.685ZM244.396 16.562C244.03 16.562 243.691 16.502 243.379 16.382C243.067 16.262 242.797 16.094 242.569 15.878C242.347 15.668 242.185 15.419 242.083 15.131L243.181 14.717C243.253 14.945 243.394 15.128 243.604 15.266C243.82 15.41 244.084 15.482 244.396 15.482C244.636 15.482 244.846 15.437 245.026 15.347C245.212 15.257 245.356 15.125 245.458 14.951C245.56 14.783 245.611 14.579 245.611 14.339V13.223L245.836 13.493C245.668 13.787 245.443 14.009 245.161 14.159C244.879 14.309 244.558 14.384 244.198 14.384C243.742 14.384 243.334 14.279 242.974 14.069C242.614 13.859 242.332 13.571 242.128 13.205C241.924 12.839 241.822 12.428 241.822 11.972C241.822 11.51 241.924 11.099 242.128 10.739C242.332 10.379 242.611 10.097 242.965 9.89303C243.319 9.68303 243.721 9.57803 244.171 9.57803C244.537 9.57803 244.858 9.65603 245.134 9.81203C245.416 9.96203 245.65 10.181 245.836 10.469L245.674 10.766V9.68603H246.79V14.339C246.79 14.765 246.685 15.146 246.475 15.482C246.271 15.818 245.989 16.082 245.629 16.274C245.275 16.466 244.864 16.562 244.396 16.562ZM244.342 13.295C244.594 13.295 244.813 13.241 244.999 13.133C245.191 13.019 245.341 12.863 245.449 12.665C245.557 12.467 245.611 12.239 245.611 11.981C245.611 11.729 245.554 11.504 245.44 11.306C245.332 11.102 245.182 10.943 244.99 10.829C244.804 10.715 244.588 10.658 244.342 10.658C244.096 10.658 243.874 10.715 243.676 10.829C243.478 10.943 243.322 11.102 243.208 11.306C243.1 11.504 243.046 11.729 243.046 11.981C243.046 12.233 243.1 12.458 243.208 12.656C243.322 12.854 243.475 13.01 243.667 13.124C243.865 13.238 244.09 13.295 244.342 13.295ZM250.778 14.582V8.95703H249.041V7.87703H253.721V8.95703H252.011V14.582H250.778ZM256.058 14.69C255.554 14.69 255.113 14.576 254.735 14.348C254.357 14.12 254.063 13.811 253.853 13.421C253.643 13.031 253.538 12.599 253.538 12.125C253.538 11.633 253.643 11.198 253.853 10.82C254.069 10.436 254.36 10.133 254.726 9.91103C255.098 9.68903 255.512 9.57803 255.968 9.57803C256.352 9.57803 256.688 9.64103 256.976 9.76703C257.27 9.89303 257.519 10.067 257.723 10.289C257.927 10.511 258.083 10.766 258.191 11.054C258.299 11.336 258.353 11.642 258.353 11.972C258.353 12.056 258.347 12.143 258.335 12.233C258.329 12.323 258.314 12.401 258.29 12.467H254.51V11.567H257.624L257.066 11.99C257.12 11.714 257.105 11.468 257.021 11.252C256.943 11.036 256.811 10.865 256.625 10.739C256.445 10.613 256.226 10.55 255.968 10.55C255.722 10.55 255.503 10.613 255.311 10.739C255.119 10.859 254.972 11.039 254.87 11.279C254.774 11.513 254.738 11.798 254.762 12.134C254.738 12.434 254.777 12.701 254.879 12.935C254.987 13.163 255.143 13.34 255.347 13.466C255.557 13.592 255.797 13.655 256.067 13.655C256.337 13.655 256.565 13.598 256.751 13.484C256.943 13.37 257.093 13.217 257.201 13.025L258.155 13.493C258.059 13.727 257.909 13.934 257.705 14.114C257.501 14.294 257.258 14.435 256.976 14.537C256.7 14.639 256.394 14.69 256.058 14.69ZM259.247 14.582V9.68603H260.354V10.775L260.264 10.613C260.378 10.247 260.555 9.99203 260.795 9.84803C261.041 9.70403 261.335 9.63203 261.677 9.63203H261.965V10.676H261.542C261.206 10.676 260.936 10.781 260.732 10.991C260.528 11.195 260.426 11.483 260.426 11.855V14.582H259.247ZM262.613 14.582V9.68603H263.72V10.82L263.594 10.631C263.684 10.277 263.864 10.013 264.134 9.83903C264.404 9.66503 264.722 9.57803 265.088 9.57803C265.49 9.57803 265.844 9.68303 266.15 9.89303C266.456 10.103 266.654 10.379 266.744 10.721L266.411 10.748C266.561 10.358 266.786 10.067 267.086 9.87503C267.386 9.67703 267.731 9.57803 268.121 9.57803C268.469 9.57803 268.778 9.65603 269.048 9.81203C269.324 9.96803 269.54 10.187 269.696 10.469C269.852 10.745 269.93 11.066 269.93 11.432V14.582H268.751V11.711C268.751 11.495 268.712 11.309 268.634 11.153C268.556 10.997 268.448 10.877 268.31 10.793C268.172 10.703 268.004 10.658 267.806 10.658C267.62 10.658 267.455 10.703 267.311 10.793C267.167 10.877 267.056 10.997 266.978 11.153C266.9 11.309 266.861 11.495 266.861 11.711V14.582H265.682V11.711C265.682 11.495 265.643 11.309 265.565 11.153C265.487 10.997 265.376 10.877 265.232 10.793C265.094 10.703 264.929 10.658 264.737 10.658C264.551 10.658 264.386 10.703 264.242 10.793C264.098 10.877 263.987 10.997 263.909 11.153C263.831 11.309 263.792 11.495 263.792 11.711V14.582H262.613ZM270.927 14.582V9.68603H272.106V14.582H270.927ZM270.927 9.13703V7.87703H272.106V9.13703H270.927ZM273.195 14.582V9.68603H274.302V10.649L274.212 10.478C274.326 10.184 274.512 9.96203 274.77 9.81203C275.034 9.65603 275.34 9.57803 275.688 9.57803C276.048 9.57803 276.366 9.65603 276.642 9.81203C276.924 9.96803 277.143 10.187 277.299 10.469C277.455 10.745 277.533 11.066 277.533 11.432V14.582H276.354V11.711C276.354 11.495 276.312 11.309 276.228 11.153C276.144 10.997 276.027 10.877 275.877 10.793C275.733 10.703 275.562 10.658 275.364 10.658C275.172 10.658 275.001 10.703 274.851 10.793C274.701 10.877 274.584 10.997 274.5 11.153C274.416 11.309 274.374 11.495 274.374 11.711V14.582H273.195ZM280.015 14.69C279.673 14.69 279.376 14.633 279.124 14.519C278.872 14.405 278.677 14.243 278.539 14.033C278.401 13.817 278.332 13.568 278.332 13.286C278.332 13.016 278.392 12.776 278.512 12.566C278.632 12.35 278.818 12.17 279.07 12.026C279.322 11.882 279.64 11.78 280.024 11.72L281.626 11.459V12.359L280.249 12.593C280.015 12.635 279.841 12.71 279.727 12.818C279.613 12.926 279.556 13.067 279.556 13.241C279.556 13.409 279.619 13.544 279.745 13.646C279.877 13.742 280.039 13.79 280.231 13.79C280.477 13.79 280.693 13.739 280.879 13.637C281.071 13.529 281.218 13.382 281.32 13.196C281.428 13.01 281.482 12.806 281.482 12.584V11.324C281.482 11.114 281.398 10.94 281.23 10.802C281.068 10.658 280.852 10.586 280.582 10.586C280.33 10.586 280.105 10.655 279.907 10.793C279.715 10.925 279.574 11.102 279.484 11.324L278.521 10.856C278.617 10.598 278.767 10.376 278.971 10.19C279.181 9.99803 279.427 9.84803 279.709 9.74003C279.991 9.63203 280.297 9.57803 280.627 9.57803C281.029 9.57803 281.383 9.65303 281.689 9.80303C281.995 9.94703 282.232 10.151 282.4 10.415C282.574 10.673 282.661 10.976 282.661 11.324V14.582H281.545V13.745L281.797 13.727C281.671 13.937 281.521 14.114 281.347 14.258C281.173 14.396 280.975 14.504 280.753 14.582C280.531 14.654 280.285 14.69 280.015 14.69ZM283.75 14.582V7.76903H284.929V14.582H283.75ZM286.576 14.582V13.322H287.764V14.582H286.576ZM132.775 23.642C132.539 23.642 132.324 23.597 132.13 23.507C131.937 23.417 131.774 23.297 131.64 23.147C131.507 22.9937 131.412 22.8254 131.355 22.642L131.715 22.507C131.802 22.7604 131.937 22.9537 132.12 23.087C132.304 23.217 132.522 23.282 132.775 23.282C132.935 23.282 133.075 23.257 133.195 23.207C133.319 23.1537 133.414 23.0804 133.48 22.987C133.547 22.8937 133.58 22.7854 133.58 22.662C133.58 22.4787 133.53 22.337 133.43 22.237C133.33 22.137 133.187 22.0604 133 22.007L132.33 21.807C132.067 21.7304 131.864 21.602 131.72 21.422C131.58 21.242 131.51 21.037 131.51 20.807C131.51 20.6104 131.559 20.437 131.655 20.287C131.752 20.1337 131.884 20.0137 132.05 19.927C132.22 19.8404 132.412 19.797 132.625 19.797C132.849 19.797 133.049 19.8387 133.225 19.922C133.405 20.002 133.557 20.1087 133.68 20.242C133.804 20.3754 133.892 20.5237 133.945 20.687L133.595 20.827C133.515 20.607 133.39 20.4404 133.22 20.327C133.054 20.2137 132.857 20.157 132.63 20.157C132.487 20.157 132.36 20.182 132.25 20.232C132.144 20.282 132.06 20.3537 132 20.447C131.94 20.5404 131.91 20.6504 131.91 20.777C131.91 20.9304 131.959 21.0687 132.055 21.192C132.152 21.312 132.3 21.402 132.5 21.462L133.09 21.637C133.384 21.7237 133.605 21.8487 133.755 22.012C133.905 22.1754 133.98 22.3804 133.98 22.627C133.98 22.827 133.929 23.0037 133.825 23.157C133.725 23.307 133.584 23.4254 133.4 23.512C133.22 23.5987 133.012 23.642 132.775 23.642ZM135.375 23.642C135.205 23.642 135.053 23.6104 134.92 23.547C134.787 23.4804 134.682 23.3904 134.605 23.277C134.528 23.1637 134.49 23.0337 134.49 22.887C134.49 22.747 134.52 22.6204 134.58 22.507C134.64 22.3904 134.733 22.292 134.86 22.212C134.987 22.132 135.148 22.0754 135.345 22.042L136.395 21.867V22.207L135.435 22.367C135.242 22.4004 135.102 22.462 135.015 22.552C134.932 22.642 134.89 22.7487 134.89 22.872C134.89 22.992 134.937 23.0937 135.03 23.177C135.127 23.2604 135.25 23.302 135.4 23.302C135.583 23.302 135.743 23.2637 135.88 23.187C136.017 23.107 136.123 23.0004 136.2 22.867C136.277 22.7337 136.315 22.5854 136.315 22.422V21.742C136.315 21.582 136.257 21.452 136.14 21.352C136.023 21.252 135.872 21.202 135.685 21.202C135.522 21.202 135.378 21.2437 135.255 21.327C135.132 21.407 135.04 21.512 134.98 21.642L134.64 21.457C134.69 21.3437 134.768 21.2404 134.875 21.147C134.985 21.0537 135.11 20.9804 135.25 20.927C135.39 20.8704 135.535 20.842 135.685 20.842C135.882 20.842 136.055 20.8804 136.205 20.957C136.358 21.0337 136.477 21.1404 136.56 21.277C136.647 21.4104 136.69 21.5654 136.69 21.742V23.582H136.315V23.047L136.37 23.102C136.323 23.202 136.25 23.2937 136.15 23.377C136.053 23.457 135.938 23.522 135.805 23.572C135.675 23.6187 135.532 23.642 135.375 23.642ZM137.736 23.582V21.277H137.201V20.902H137.736V20.662C137.736 20.4754 137.778 20.3187 137.861 20.192C137.945 20.062 138.055 19.9637 138.191 19.897C138.328 19.8304 138.475 19.797 138.631 19.797C138.665 19.797 138.703 19.8004 138.746 19.807C138.79 19.8104 138.825 19.8154 138.851 19.822V20.162C138.828 20.1554 138.796 20.152 138.756 20.152C138.716 20.1487 138.688 20.147 138.671 20.147C138.511 20.147 138.378 20.1854 138.271 20.262C138.165 20.3387 138.111 20.472 138.111 20.662V20.902H138.766V21.277H138.111V23.582H137.736ZM140.493 23.642C140.243 23.642 140.016 23.582 139.813 23.462C139.613 23.3387 139.455 23.1704 139.338 22.957C139.221 22.7437 139.163 22.502 139.163 22.232C139.163 21.962 139.22 21.7237 139.333 21.517C139.446 21.307 139.6 21.142 139.793 21.022C139.99 20.902 140.21 20.842 140.453 20.842C140.646 20.842 140.818 20.8787 140.968 20.952C141.121 21.022 141.251 21.1187 141.358 21.242C141.465 21.362 141.546 21.4987 141.603 21.652C141.66 21.802 141.688 21.957 141.688 22.117C141.688 22.1504 141.686 22.1887 141.683 22.232C141.68 22.272 141.675 22.3137 141.668 22.357H139.403V22.007H141.453L141.273 22.157C141.303 21.9737 141.281 21.8104 141.208 21.667C141.138 21.5204 141.036 21.4054 140.903 21.322C140.77 21.2354 140.62 21.192 140.453 21.192C140.286 21.192 140.131 21.2354 139.988 21.322C139.848 21.4087 139.738 21.5304 139.658 21.687C139.578 21.8404 139.546 22.0237 139.563 22.237C139.546 22.4504 139.58 22.637 139.663 22.797C139.75 22.9537 139.866 23.0754 140.013 23.162C140.163 23.2487 140.323 23.292 140.493 23.292C140.69 23.292 140.855 23.2454 140.988 23.152C141.121 23.0587 141.23 22.942 141.313 22.802L141.633 22.972C141.58 23.092 141.498 23.2037 141.388 23.307C141.278 23.407 141.146 23.4887 140.993 23.552C140.843 23.612 140.676 23.642 140.493 23.642ZM142.364 24.232V24.057C142.464 24.0304 142.537 23.9787 142.584 23.902C142.631 23.8254 142.654 23.7187 142.654 23.582H142.464V23.032H142.864V23.452C142.864 23.6687 142.822 23.842 142.739 23.972C142.656 24.1054 142.531 24.192 142.364 24.232ZM144.601 23.582V19.857H145.881C146.125 19.857 146.338 19.9054 146.521 20.002C146.705 20.0954 146.846 20.2287 146.946 20.402C147.05 20.572 147.101 20.7704 147.101 20.997C147.101 21.2237 147.05 21.422 146.946 21.592C146.846 21.762 146.705 21.8954 146.521 21.992C146.341 22.0854 146.128 22.132 145.881 22.132H145.001V23.582H144.601ZM145.001 21.757H145.901C146.061 21.757 146.201 21.727 146.321 21.667C146.441 21.6037 146.535 21.5154 146.601 21.402C146.668 21.2854 146.701 21.1487 146.701 20.992C146.701 20.8354 146.668 20.7004 146.601 20.587C146.535 20.4737 146.441 20.387 146.321 20.327C146.201 20.2637 146.061 20.232 145.901 20.232H145.001V21.757ZM147.759 23.582V20.902H148.134V21.342L148.084 21.277C148.148 21.1504 148.243 21.0504 148.369 20.977C148.499 20.9037 148.656 20.867 148.839 20.867H149.009V21.242H148.774C148.581 21.242 148.426 21.302 148.309 21.422C148.193 21.542 148.134 21.712 148.134 21.932V23.582H147.759ZM150.704 23.642C150.45 23.642 150.22 23.582 150.014 23.462C149.807 23.3387 149.642 23.172 149.519 22.962C149.399 22.7487 149.339 22.507 149.339 22.237C149.339 21.9704 149.399 21.732 149.519 21.522C149.639 21.312 149.8 21.147 150.004 21.027C150.21 20.9037 150.444 20.842 150.704 20.842C150.964 20.842 151.195 20.902 151.399 21.022C151.605 21.142 151.767 21.307 151.884 21.517C152.004 21.727 152.064 21.967 152.064 22.237C152.064 22.5104 152.002 22.7537 151.879 22.967C151.755 23.177 151.59 23.342 151.384 23.462C151.18 23.582 150.954 23.642 150.704 23.642ZM150.704 23.267C150.884 23.267 151.045 23.222 151.189 23.132C151.335 23.042 151.45 22.9187 151.534 22.762C151.62 22.6054 151.664 22.4304 151.664 22.237C151.664 22.0437 151.62 21.8704 151.534 21.717C151.45 21.5637 151.335 21.442 151.189 21.352C151.045 21.262 150.884 21.217 150.704 21.217C150.524 21.217 150.36 21.262 150.214 21.352C150.07 21.442 149.955 21.5637 149.869 21.717C149.782 21.8704 149.739 22.0437 149.739 22.237C149.739 22.4304 149.782 22.6054 149.869 22.762C149.955 22.9187 150.07 23.042 150.214 23.132C150.36 23.222 150.524 23.267 150.704 23.267ZM152.902 23.582V21.277H152.367V20.902H152.902V20.662C152.902 20.4754 152.944 20.3187 153.027 20.192C153.111 20.062 153.221 19.9637 153.357 19.897C153.494 19.8304 153.641 19.797 153.797 19.797C153.831 19.797 153.869 19.8004 153.912 19.807C153.956 19.8104 153.991 19.8154 154.017 19.822V20.162C153.994 20.1554 153.962 20.152 153.922 20.152C153.882 20.1487 153.854 20.147 153.837 20.147C153.677 20.147 153.544 20.1854 153.437 20.262C153.331 20.3387 153.277 20.472 153.277 20.662V20.902H153.932V21.277H153.277V23.582H152.902ZM155.659 23.642C155.409 23.642 155.182 23.582 154.979 23.462C154.779 23.3387 154.621 23.1704 154.504 22.957C154.387 22.7437 154.329 22.502 154.329 22.232C154.329 21.962 154.386 21.7237 154.499 21.517C154.612 21.307 154.766 21.142 154.959 21.022C155.156 20.902 155.376 20.842 155.619 20.842C155.812 20.842 155.984 20.8787 156.134 20.952C156.287 21.022 156.417 21.1187 156.524 21.242C156.631 21.362 156.712 21.4987 156.769 21.652C156.826 21.802 156.854 21.957 156.854 22.117C156.854 22.1504 156.852 22.1887 156.849 22.232C156.846 22.272 156.841 22.3137 156.834 22.357H154.569V22.007H156.619L156.439 22.157C156.469 21.9737 156.447 21.8104 156.374 21.667C156.304 21.5204 156.202 21.4054 156.069 21.322C155.936 21.2354 155.786 21.192 155.619 21.192C155.452 21.192 155.297 21.2354 155.154 21.322C155.014 21.4087 154.904 21.5304 154.824 21.687C154.744 21.8404 154.712 22.0237 154.729 22.237C154.712 22.4504 154.746 22.637 154.829 22.797C154.916 22.9537 155.032 23.0754 155.179 23.162C155.329 23.2487 155.489 23.292 155.659 23.292C155.856 23.292 156.021 23.2454 156.154 23.152C156.287 23.0587 156.396 22.942 156.479 22.802L156.799 22.972C156.746 23.092 156.664 23.2037 156.554 23.307C156.444 23.407 156.312 23.4887 156.159 23.552C156.009 23.612 155.842 23.642 155.659 23.642ZM158.445 23.642C158.188 23.642 157.963 23.577 157.77 23.447C157.577 23.317 157.437 23.1404 157.35 22.917L157.665 22.767C157.742 22.9304 157.848 23.0604 157.985 23.157C158.125 23.2537 158.278 23.302 158.445 23.302C158.605 23.302 158.74 23.2637 158.85 23.187C158.96 23.107 159.015 23.0037 159.015 22.877C159.015 22.7837 158.988 22.7104 158.935 22.657C158.882 22.6004 158.82 22.557 158.75 22.527C158.68 22.497 158.618 22.4754 158.565 22.462L158.18 22.352C157.933 22.282 157.755 22.1837 157.645 22.057C157.535 21.9304 157.48 21.7837 157.48 21.617C157.48 21.4604 157.52 21.3237 157.6 21.207C157.68 21.0904 157.788 21.0004 157.925 20.937C158.062 20.8737 158.213 20.842 158.38 20.842C158.607 20.842 158.812 20.902 158.995 21.022C159.182 21.1387 159.313 21.302 159.39 21.512L159.07 21.662C159.003 21.512 158.907 21.3954 158.78 21.312C158.657 21.2254 158.518 21.182 158.365 21.182C158.215 21.182 158.095 21.2204 158.005 21.297C157.915 21.3737 157.87 21.4704 157.87 21.587C157.87 21.677 157.893 21.7487 157.94 21.802C157.987 21.8554 158.04 21.8954 158.1 21.922C158.163 21.9487 158.218 21.9687 158.265 21.982L158.71 22.112C158.927 22.1754 159.095 22.2737 159.215 22.407C159.338 22.5404 159.4 22.697 159.4 22.877C159.4 23.0237 159.358 23.1554 159.275 23.272C159.195 23.3887 159.083 23.4804 158.94 23.547C158.797 23.6104 158.632 23.642 158.445 23.642ZM160.989 23.642C160.732 23.642 160.507 23.577 160.314 23.447C160.121 23.317 159.981 23.1404 159.894 22.917L160.209 22.767C160.286 22.9304 160.392 23.0604 160.529 23.157C160.669 23.2537 160.822 23.302 160.989 23.302C161.149 23.302 161.284 23.2637 161.394 23.187C161.504 23.107 161.559 23.0037 161.559 22.877C161.559 22.7837 161.532 22.7104 161.479 22.657C161.426 22.6004 161.364 22.557 161.294 22.527C161.224 22.497 161.162 22.4754 161.109 22.462L160.724 22.352C160.477 22.282 160.299 22.1837 160.189 22.057C160.079 21.9304 160.024 21.7837 160.024 21.617C160.024 21.4604 160.064 21.3237 160.144 21.207C160.224 21.0904 160.332 21.0004 160.469 20.937C160.606 20.8737 160.757 20.842 160.924 20.842C161.151 20.842 161.356 20.902 161.539 21.022C161.726 21.1387 161.857 21.302 161.934 21.512L161.614 21.662C161.547 21.512 161.451 21.3954 161.324 21.312C161.201 21.2254 161.062 21.182 160.909 21.182C160.759 21.182 160.639 21.2204 160.549 21.297C160.459 21.3737 160.414 21.4704 160.414 21.587C160.414 21.677 160.437 21.7487 160.484 21.802C160.531 21.8554 160.584 21.8954 160.644 21.922C160.707 21.9487 160.762 21.9687 160.809 21.982L161.254 22.112C161.471 22.1754 161.639 22.2737 161.759 22.407C161.882 22.5404 161.944 22.697 161.944 22.877C161.944 23.0237 161.902 23.1554 161.819 23.272C161.739 23.3887 161.627 23.4804 161.484 23.547C161.341 23.6104 161.176 23.642 160.989 23.642ZM162.603 23.582V20.902H162.978V23.582H162.603ZM162.603 20.407V19.857H162.978V20.407H162.603ZM165.001 23.642C164.747 23.642 164.517 23.582 164.311 23.462C164.104 23.3387 163.939 23.172 163.816 22.962C163.696 22.7487 163.636 22.507 163.636 22.237C163.636 21.9704 163.696 21.732 163.816 21.522C163.936 21.312 164.097 21.147 164.301 21.027C164.507 20.9037 164.741 20.842 165.001 20.842C165.261 20.842 165.492 20.902 165.696 21.022C165.902 21.142 166.064 21.307 166.181 21.517C166.301 21.727 166.361 21.967 166.361 22.237C166.361 22.5104 166.299 22.7537 166.176 22.967C166.052 23.177 165.887 23.342 165.681 23.462C165.477 23.582 165.251 23.642 165.001 23.642ZM165.001 23.267C165.181 23.267 165.342 23.222 165.486 23.132C165.632 23.042 165.747 22.9187 165.831 22.762C165.917 22.6054 165.961 22.4304 165.961 22.237C165.961 22.0437 165.917 21.8704 165.831 21.717C165.747 21.5637 165.632 21.442 165.486 21.352C165.342 21.262 165.181 21.217 165.001 21.217C164.821 21.217 164.657 21.262 164.511 21.352C164.367 21.442 164.252 21.5637 164.166 21.717C164.079 21.8704 164.036 22.0437 164.036 22.237C164.036 22.4304 164.079 22.6054 164.166 22.762C164.252 22.9187 164.367 23.042 164.511 23.132C164.657 23.222 164.821 23.267 165.001 23.267ZM167.022 23.582V20.902H167.397V21.422L167.312 21.402C167.379 21.2287 167.487 21.092 167.637 20.992C167.79 20.892 167.967 20.842 168.167 20.842C168.357 20.842 168.527 20.8854 168.677 20.972C168.83 21.0587 168.95 21.1787 169.037 21.332C169.127 21.482 169.172 21.652 169.172 21.842V23.582H168.797V21.987C168.797 21.8237 168.767 21.6854 168.707 21.572C168.65 21.4587 168.569 21.372 168.462 21.312C168.359 21.2487 168.239 21.217 168.102 21.217C167.965 21.217 167.844 21.2487 167.737 21.312C167.63 21.372 167.547 21.4604 167.487 21.577C167.427 21.6904 167.397 21.827 167.397 21.987V23.582H167.022ZM170.663 23.642C170.493 23.642 170.342 23.6104 170.208 23.547C170.075 23.4804 169.97 23.3904 169.893 23.277C169.817 23.1637 169.778 23.0337 169.778 22.887C169.778 22.747 169.808 22.6204 169.868 22.507C169.928 22.3904 170.022 22.292 170.148 22.212C170.275 22.132 170.437 22.0754 170.633 22.042L171.683 21.867V22.207L170.723 22.367C170.53 22.4004 170.39 22.462 170.303 22.552C170.22 22.642 170.178 22.7487 170.178 22.872C170.178 22.992 170.225 23.0937 170.318 23.177C170.415 23.2604 170.538 23.302 170.688 23.302C170.872 23.302 171.032 23.2637 171.168 23.187C171.305 23.107 171.412 23.0004 171.488 22.867C171.565 22.7337 171.603 22.5854 171.603 22.422V21.742C171.603 21.582 171.545 21.452 171.428 21.352C171.312 21.252 171.16 21.202 170.973 21.202C170.81 21.202 170.667 21.2437 170.543 21.327C170.42 21.407 170.328 21.512 170.268 21.642L169.928 21.457C169.978 21.3437 170.057 21.2404 170.163 21.147C170.273 21.0537 170.398 20.9804 170.538 20.927C170.678 20.8704 170.823 20.842 170.973 20.842C171.17 20.842 171.343 20.8804 171.493 20.957C171.647 21.0337 171.765 21.1404 171.848 21.277C171.935 21.4104 171.978 21.5654 171.978 21.742V23.582H171.603V23.047L171.658 23.102C171.612 23.202 171.538 23.2937 171.438 23.377C171.342 23.457 171.227 23.522 171.093 23.572C170.963 23.6187 170.82 23.642 170.663 23.642ZM172.75 23.582V19.797H173.125V23.582H172.75ZM173.907 24.232V24.057C174.007 24.0304 174.08 23.9787 174.127 23.902C174.174 23.8254 174.197 23.7187 174.197 23.582H174.007V23.032H174.407V23.452C174.407 23.6687 174.365 23.842 174.282 23.972C174.199 24.1054 174.074 24.192 173.907 24.232ZM176.144 23.582V19.857H178.444V20.232H176.544V21.527H178.294V21.902H176.544V23.582H176.144ZM179.618 23.642C179.448 23.642 179.297 23.6104 179.163 23.547C179.03 23.4804 178.925 23.3904 178.848 23.277C178.772 23.1637 178.733 23.0337 178.733 22.887C178.733 22.747 178.763 22.6204 178.823 22.507C178.883 22.3904 178.977 22.292 179.103 22.212C179.23 22.132 179.392 22.0754 179.588 22.042L180.638 21.867V22.207L179.678 22.367C179.485 22.4004 179.345 22.462 179.258 22.552C179.175 22.642 179.133 22.7487 179.133 22.872C179.133 22.992 179.18 23.0937 179.273 23.177C179.37 23.2604 179.493 23.302 179.643 23.302C179.827 23.302 179.987 23.2637 180.123 23.187C180.26 23.107 180.367 23.0004 180.443 22.867C180.52 22.7337 180.558 22.5854 180.558 22.422V21.742C180.558 21.582 180.5 21.452 180.383 21.352C180.267 21.252 180.115 21.202 179.928 21.202C179.765 21.202 179.622 21.2437 179.498 21.327C179.375 21.407 179.283 21.512 179.223 21.642L178.883 21.457C178.933 21.3437 179.012 21.2404 179.118 21.147C179.228 21.0537 179.353 20.9804 179.493 20.927C179.633 20.8704 179.778 20.842 179.928 20.842C180.125 20.842 180.298 20.8804 180.448 20.957C180.602 21.0337 180.72 21.1404 180.803 21.277C180.89 21.4104 180.933 21.5654 180.933 21.742V23.582H180.558V23.047L180.613 23.102C180.567 23.202 180.493 23.2937 180.393 23.377C180.297 23.457 180.182 23.522 180.048 23.572C179.918 23.6187 179.775 23.642 179.618 23.642ZM182.635 23.642C182.378 23.642 182.153 23.577 181.96 23.447C181.766 23.317 181.626 23.1404 181.54 22.917L181.855 22.767C181.931 22.9304 182.038 23.0604 182.175 23.157C182.315 23.2537 182.468 23.302 182.635 23.302C182.795 23.302 182.93 23.2637 183.04 23.187C183.15 23.107 183.205 23.0037 183.205 22.877C183.205 22.7837 183.178 22.7104 183.125 22.657C183.071 22.6004 183.01 22.557 182.94 22.527C182.87 22.497 182.808 22.4754 182.755 22.462L182.37 22.352C182.123 22.282 181.945 22.1837 181.835 22.057C181.725 21.9304 181.67 21.7837 181.67 21.617C181.67 21.4604 181.71 21.3237 181.79 21.207C181.87 21.0904 181.978 21.0004 182.115 20.937C182.251 20.8737 182.403 20.842 182.57 20.842C182.796 20.842 183.001 20.902 183.185 21.022C183.371 21.1387 183.503 21.302 183.58 21.512L183.26 21.662C183.193 21.512 183.096 21.3954 182.97 21.312C182.846 21.2254 182.708 21.182 182.555 21.182C182.405 21.182 182.285 21.2204 182.195 21.297C182.105 21.3737 182.06 21.4704 182.06 21.587C182.06 21.677 182.083 21.7487 182.13 21.802C182.176 21.8554 182.23 21.8954 182.29 21.922C182.353 21.9487 182.408 21.9687 182.455 21.982L182.9 22.112C183.116 22.1754 183.285 22.2737 183.405 22.407C183.528 22.5404 183.59 22.697 183.59 22.877C183.59 23.0237 183.548 23.1554 183.465 23.272C183.385 23.3887 183.273 23.4804 183.13 23.547C182.986 23.6104 182.821 23.642 182.635 23.642ZM185.274 23.612C185.034 23.612 184.849 23.542 184.719 23.402C184.589 23.262 184.524 23.062 184.524 22.802V21.277H184.029V20.902H184.154C184.267 20.902 184.357 20.8654 184.424 20.792C184.49 20.7154 184.524 20.6204 184.524 20.507V20.282H184.899V20.902H185.489V21.277H184.899V22.802C184.899 22.892 184.912 22.972 184.939 23.042C184.965 23.1087 185.01 23.162 185.074 23.202C185.14 23.242 185.229 23.262 185.339 23.262C185.365 23.262 185.397 23.2604 185.434 23.257C185.47 23.2537 185.502 23.2504 185.529 23.247V23.582C185.489 23.592 185.444 23.5987 185.394 23.602C185.344 23.6087 185.304 23.612 185.274 23.612ZM187.309 23.642C187.059 23.642 186.833 23.582 186.629 23.462C186.429 23.3387 186.271 23.1704 186.154 22.957C186.038 22.7437 185.979 22.502 185.979 22.232C185.979 21.962 186.036 21.7237 186.149 21.517C186.263 21.307 186.416 21.142 186.609 21.022C186.806 20.902 187.026 20.842 187.269 20.842C187.463 20.842 187.634 20.8787 187.784 20.952C187.938 21.022 188.068 21.1187 188.174 21.242C188.281 21.362 188.363 21.4987 188.419 21.652C188.476 21.802 188.504 21.957 188.504 22.117C188.504 22.1504 188.503 22.1887 188.499 22.232C188.496 22.272 188.491 22.3137 188.484 22.357H186.219V22.007H188.269L188.089 22.157C188.119 21.9737 188.098 21.8104 188.024 21.667C187.954 21.5204 187.853 21.4054 187.719 21.322C187.586 21.2354 187.436 21.192 187.269 21.192C187.103 21.192 186.948 21.2354 186.804 21.322C186.664 21.4087 186.554 21.5304 186.474 21.687C186.394 21.8404 186.363 22.0237 186.379 22.237C186.363 22.4504 186.396 22.637 186.479 22.797C186.566 22.9537 186.683 23.0754 186.829 23.162C186.979 23.2487 187.139 23.292 187.309 23.292C187.506 23.292 187.671 23.2454 187.804 23.152C187.938 23.0587 188.046 22.942 188.129 22.802L188.449 22.972C188.396 23.092 188.314 23.2037 188.204 23.307C188.094 23.407 187.963 23.4887 187.809 23.552C187.659 23.612 187.493 23.642 187.309 23.642ZM190.096 23.642C189.839 23.642 189.614 23.577 189.421 23.447C189.227 23.317 189.087 23.1404 189.001 22.917L189.316 22.767C189.392 22.9304 189.499 23.0604 189.636 23.157C189.776 23.2537 189.929 23.302 190.096 23.302C190.256 23.302 190.391 23.2637 190.501 23.187C190.611 23.107 190.666 23.0037 190.666 22.877C190.666 22.7837 190.639 22.7104 190.586 22.657C190.532 22.6004 190.471 22.557 190.401 22.527C190.331 22.497 190.269 22.4754 190.216 22.462L189.831 22.352C189.584 22.282 189.406 22.1837 189.296 22.057C189.186 21.9304 189.131 21.7837 189.131 21.617C189.131 21.4604 189.171 21.3237 189.251 21.207C189.331 21.0904 189.439 21.0004 189.576 20.937C189.712 20.8737 189.864 20.842 190.031 20.842C190.257 20.842 190.462 20.902 190.646 21.022C190.832 21.1387 190.964 21.302 191.041 21.512L190.721 21.662C190.654 21.512 190.557 21.3954 190.431 21.312C190.307 21.2254 190.169 21.182 190.016 21.182C189.866 21.182 189.746 21.2204 189.656 21.297C189.566 21.3737 189.521 21.4704 189.521 21.587C189.521 21.677 189.544 21.7487 189.591 21.802C189.637 21.8554 189.691 21.8954 189.751 21.922C189.814 21.9487 189.869 21.9687 189.916 21.982L190.361 22.112C190.577 22.1754 190.746 22.2737 190.866 22.407C190.989 22.5404 191.051 22.697 191.051 22.877C191.051 23.0237 191.009 23.1554 190.926 23.272C190.846 23.3887 190.734 23.4804 190.591 23.547C190.447 23.6104 190.282 23.642 190.096 23.642ZM192.734 23.612C192.494 23.612 192.309 23.542 192.179 23.402C192.049 23.262 191.984 23.062 191.984 22.802V21.277H191.489V20.902H191.614C191.728 20.902 191.818 20.8654 191.884 20.792C191.951 20.7154 191.984 20.6204 191.984 20.507V20.282H192.359V20.902H192.949V21.277H192.359V22.802C192.359 22.892 192.373 22.972 192.399 23.042C192.426 23.1087 192.471 23.162 192.534 23.202C192.601 23.242 192.689 23.262 192.799 23.262C192.826 23.262 192.858 23.2604 192.894 23.257C192.931 23.2537 192.963 23.2504 192.989 23.247V23.582C192.949 23.592 192.904 23.5987 192.854 23.602C192.804 23.6087 192.764 23.612 192.734 23.612ZM193.663 24.232V24.057C193.763 24.0304 193.836 23.9787 193.883 23.902C193.93 23.8254 193.953 23.7187 193.953 23.582H193.763V23.032H194.163V23.452C194.163 23.6687 194.121 23.842 194.038 23.972C193.955 24.1054 193.83 24.192 193.663 24.232ZM195.9 23.582V19.857H196.25L197.65 21.887H197.455L198.85 19.857H199.2V23.582H198.8V20.397L198.93 20.447L197.56 22.432H197.54L196.175 20.447L196.3 20.397V23.582H195.9ZM201.28 23.642C201.027 23.642 200.797 23.582 200.59 23.462C200.383 23.3387 200.218 23.172 200.095 22.962C199.975 22.7487 199.915 22.507 199.915 22.237C199.915 21.9704 199.975 21.732 200.095 21.522C200.215 21.312 200.377 21.147 200.58 21.027C200.787 20.9037 201.02 20.842 201.28 20.842C201.54 20.842 201.772 20.902 201.975 21.022C202.182 21.142 202.343 21.307 202.46 21.517C202.58 21.727 202.64 21.967 202.64 22.237C202.64 22.5104 202.578 22.7537 202.455 22.967C202.332 23.177 202.167 23.342 201.96 23.462C201.757 23.582 201.53 23.642 201.28 23.642ZM201.28 23.267C201.46 23.267 201.622 23.222 201.765 23.132C201.912 23.042 202.027 22.9187 202.11 22.762C202.197 22.6054 202.24 22.4304 202.24 22.237C202.24 22.0437 202.197 21.8704 202.11 21.717C202.027 21.5637 201.912 21.442 201.765 21.352C201.622 21.262 201.46 21.217 201.28 21.217C201.1 21.217 200.937 21.262 200.79 21.352C200.647 21.442 200.532 21.5637 200.445 21.717C200.358 21.8704 200.315 22.0437 200.315 22.237C200.315 22.4304 200.358 22.6054 200.445 22.762C200.532 22.9187 200.647 23.042 200.79 23.132C200.937 23.222 201.1 23.267 201.28 23.267ZM204.231 23.642C203.975 23.642 203.75 23.577 203.556 23.447C203.363 23.317 203.223 23.1404 203.136 22.917L203.451 22.767C203.528 22.9304 203.635 23.0604 203.771 23.157C203.911 23.2537 204.065 23.302 204.231 23.302C204.391 23.302 204.526 23.2637 204.636 23.187C204.746 23.107 204.801 23.0037 204.801 22.877C204.801 22.7837 204.775 22.7104 204.721 22.657C204.668 22.6004 204.606 22.557 204.536 22.527C204.466 22.497 204.405 22.4754 204.351 22.462L203.966 22.352C203.72 22.282 203.541 22.1837 203.431 22.057C203.321 21.9304 203.266 21.7837 203.266 21.617C203.266 21.4604 203.306 21.3237 203.386 21.207C203.466 21.0904 203.575 21.0004 203.711 20.937C203.848 20.8737 204 20.842 204.166 20.842C204.393 20.842 204.598 20.902 204.781 21.022C204.968 21.1387 205.1 21.302 205.176 21.512L204.856 21.662C204.79 21.512 204.693 21.3954 204.566 21.312C204.443 21.2254 204.305 21.182 204.151 21.182C204.001 21.182 203.881 21.2204 203.791 21.297C203.701 21.3737 203.656 21.4704 203.656 21.587C203.656 21.677 203.68 21.7487 203.726 21.802C203.773 21.8554 203.826 21.8954 203.886 21.922C203.95 21.9487 204.005 21.9687 204.051 21.982L204.496 22.112C204.713 22.1754 204.881 22.2737 205.001 22.407C205.125 22.5404 205.186 22.697 205.186 22.877C205.186 23.0237 205.145 23.1554 205.061 23.272C204.981 23.3887 204.87 23.4804 204.726 23.547C204.583 23.6104 204.418 23.642 204.231 23.642ZM206.87 23.612C206.63 23.612 206.445 23.542 206.315 23.402C206.185 23.262 206.12 23.062 206.12 22.802V21.277H205.625V20.902H205.75C205.864 20.902 205.954 20.8654 206.02 20.792C206.087 20.7154 206.12 20.6204 206.12 20.507V20.282H206.495V20.902H207.085V21.277H206.495V22.802C206.495 22.892 206.509 22.972 206.535 23.042C206.562 23.1087 206.607 23.162 206.67 23.202C206.737 23.242 206.825 23.262 206.935 23.262C206.962 23.262 206.994 23.2604 207.03 23.257C207.067 23.2537 207.099 23.2504 207.125 23.247V23.582C207.085 23.592 207.04 23.5987 206.99 23.602C206.94 23.6087 206.9 23.612 206.87 23.612ZM210.388 23.642C210.125 23.642 209.883 23.5954 209.663 23.502C209.443 23.4054 209.252 23.272 209.088 23.102C208.928 22.9287 208.803 22.7254 208.713 22.492C208.623 22.2587 208.578 22.002 208.578 21.722C208.578 21.442 208.623 21.1854 208.713 20.952C208.803 20.7187 208.928 20.5154 209.088 20.342C209.252 20.1687 209.443 20.0354 209.663 19.942C209.883 19.8454 210.125 19.797 210.388 19.797C210.642 19.797 210.868 19.842 211.068 19.932C211.272 20.022 211.442 20.1387 211.578 20.282C211.718 20.422 211.818 20.5704 211.878 20.727L211.503 20.892C211.41 20.6754 211.267 20.502 211.073 20.372C210.883 20.2387 210.655 20.172 210.388 20.172C210.115 20.172 209.872 20.237 209.658 20.367C209.445 20.497 209.278 20.6787 209.158 20.912C209.038 21.142 208.978 21.412 208.978 21.722C208.978 22.0287 209.038 22.2987 209.158 22.532C209.278 22.7654 209.445 22.947 209.658 23.077C209.872 23.2037 210.115 23.267 210.388 23.267C210.655 23.267 210.883 23.202 211.073 23.072C211.267 22.942 211.41 22.7687 211.503 22.552L211.878 22.717C211.818 22.8704 211.718 23.0187 211.578 23.162C211.442 23.302 211.272 23.417 211.068 23.507C210.868 23.597 210.642 23.642 210.388 23.642ZM213.746 23.642C213.492 23.642 213.262 23.582 213.056 23.462C212.849 23.3387 212.684 23.172 212.561 22.962C212.441 22.7487 212.381 22.507 212.381 22.237C212.381 21.9704 212.441 21.732 212.561 21.522C212.681 21.312 212.842 21.147 213.046 21.027C213.252 20.9037 213.486 20.842 213.746 20.842C214.006 20.842 214.237 20.902 214.441 21.022C214.647 21.142 214.809 21.307 214.926 21.517C215.046 21.727 215.106 21.967 215.106 22.237C215.106 22.5104 215.044 22.7537 214.921 22.967C214.797 23.177 214.632 23.342 214.426 23.462C214.222 23.582 213.996 23.642 213.746 23.642ZM213.746 23.267C213.926 23.267 214.087 23.222 214.231 23.132C214.377 23.042 214.492 22.9187 214.576 22.762C214.662 22.6054 214.706 22.4304 214.706 22.237C214.706 22.0437 214.662 21.8704 214.576 21.717C214.492 21.5637 214.377 21.442 214.231 21.352C214.087 21.262 213.926 21.217 213.746 21.217C213.566 21.217 213.402 21.262 213.256 21.352C213.112 21.442 212.997 21.5637 212.911 21.717C212.824 21.8704 212.781 22.0437 212.781 22.237C212.781 22.4304 212.824 22.6054 212.911 22.762C212.997 22.9187 213.112 23.042 213.256 23.132C213.402 23.222 213.566 23.267 213.746 23.267ZM215.767 23.582V20.902H216.142V21.412L216.082 21.337C216.155 21.1804 216.264 21.0587 216.407 20.972C216.554 20.8854 216.714 20.842 216.887 20.842C217.094 20.842 217.28 20.9004 217.447 21.017C217.614 21.1337 217.732 21.2854 217.802 21.472L217.697 21.477C217.764 21.2704 217.879 21.1137 218.042 21.007C218.209 20.897 218.392 20.842 218.592 20.842C218.772 20.842 218.937 20.8854 219.087 20.972C219.24 21.0587 219.362 21.1787 219.452 21.332C219.545 21.482 219.592 21.652 219.592 21.842V23.582H219.217V21.987C219.217 21.8237 219.187 21.6854 219.127 21.572C219.07 21.4587 218.992 21.372 218.892 21.312C218.792 21.2487 218.677 21.217 218.547 21.217C218.42 21.217 218.305 21.2487 218.202 21.312C218.099 21.372 218.017 21.4604 217.957 21.577C217.897 21.6904 217.867 21.827 217.867 21.987V23.582H217.492V21.987C217.492 21.8237 217.462 21.6854 217.402 21.572C217.345 21.4587 217.267 21.372 217.167 21.312C217.067 21.2487 216.952 21.217 216.822 21.217C216.692 21.217 216.575 21.2487 216.472 21.312C216.372 21.372 216.292 21.4604 216.232 21.577C216.172 21.6904 216.142 21.827 216.142 21.987V23.582H215.767ZM220.308 24.582V20.902H220.683V21.502L220.623 21.397C220.73 21.227 220.871 21.092 221.048 20.992C221.228 20.892 221.433 20.842 221.663 20.842C221.916 20.842 222.141 20.9037 222.338 21.027C222.538 21.147 222.695 21.312 222.808 21.522C222.925 21.732 222.983 21.972 222.983 22.242C222.983 22.5087 222.925 22.7487 222.808 22.962C222.695 23.172 222.538 23.3387 222.338 23.462C222.141 23.582 221.916 23.642 221.663 23.642C221.433 23.642 221.225 23.5904 221.038 23.487C220.855 23.3804 220.716 23.2304 220.623 23.037L220.683 22.982V24.582H220.308ZM221.643 23.267C221.823 23.267 221.983 23.222 222.123 23.132C222.266 23.042 222.378 22.9204 222.458 22.767C222.541 22.6104 222.583 22.4354 222.583 22.242C222.583 22.0454 222.541 21.8704 222.458 21.717C222.378 21.5637 222.266 21.442 222.123 21.352C221.983 21.262 221.823 21.217 221.643 21.217C221.463 21.217 221.3 21.262 221.153 21.352C221.01 21.442 220.895 21.5654 220.808 21.722C220.725 21.8754 220.683 22.0487 220.683 22.242C220.683 22.4354 220.725 22.6104 220.808 22.767C220.895 22.9204 221.01 23.042 221.153 23.132C221.3 23.222 221.463 23.267 221.643 23.267ZM223.643 23.582V20.902H224.018V21.342L223.968 21.277C224.031 21.1504 224.126 21.0504 224.253 20.977C224.383 20.9037 224.54 20.867 224.723 20.867H224.893V21.242H224.658C224.465 21.242 224.31 21.302 224.193 21.422C224.076 21.542 224.018 21.712 224.018 21.932V23.582H223.643ZM226.553 23.642C226.303 23.642 226.076 23.582 225.873 23.462C225.673 23.3387 225.514 23.1704 225.398 22.957C225.281 22.7437 225.223 22.502 225.223 22.232C225.223 21.962 225.279 21.7237 225.393 21.517C225.506 21.307 225.659 21.142 225.853 21.022C226.049 20.902 226.269 20.842 226.513 20.842C226.706 20.842 226.878 20.8787 227.028 20.952C227.181 21.022 227.311 21.1187 227.418 21.242C227.524 21.362 227.606 21.4987 227.663 21.652C227.719 21.802 227.748 21.957 227.748 22.117C227.748 22.1504 227.746 22.1887 227.743 22.232C227.739 22.272 227.734 22.3137 227.728 22.357H225.463V22.007H227.513L227.333 22.157C227.363 21.9737 227.341 21.8104 227.268 21.667C227.198 21.5204 227.096 21.4054 226.963 21.322C226.829 21.2354 226.679 21.192 226.513 21.192C226.346 21.192 226.191 21.2354 226.048 21.322C225.908 21.4087 225.798 21.5304 225.718 21.687C225.638 21.8404 225.606 22.0237 225.623 22.237C225.606 22.4504 225.639 22.637 225.723 22.797C225.809 22.9537 225.926 23.0754 226.073 23.162C226.223 23.2487 226.383 23.292 226.553 23.292C226.749 23.292 226.914 23.2454 227.048 23.152C227.181 23.0587 227.289 22.942 227.373 22.802L227.693 22.972C227.639 23.092 227.558 23.2037 227.448 23.307C227.338 23.407 227.206 23.4887 227.053 23.552C226.903 23.612 226.736 23.642 226.553 23.642ZM228.409 23.582V19.797H228.784V21.422L228.699 21.402C228.765 21.2287 228.874 21.092 229.024 20.992C229.177 20.892 229.354 20.842 229.554 20.842C229.744 20.842 229.914 20.8854 230.064 20.972C230.217 21.0587 230.337 21.1787 230.424 21.332C230.514 21.482 230.559 21.652 230.559 21.842V23.582H230.184V21.987C230.184 21.8237 230.154 21.6854 230.094 21.572C230.034 21.4587 229.95 21.372 229.844 21.312C229.74 21.2487 229.622 21.217 229.489 21.217C229.355 21.217 229.235 21.2487 229.129 21.312C229.022 21.372 228.937 21.4604 228.874 21.577C228.814 21.6904 228.784 21.827 228.784 21.987V23.582H228.409ZM232.495 23.642C232.245 23.642 232.018 23.582 231.815 23.462C231.615 23.3387 231.457 23.1704 231.34 22.957C231.223 22.7437 231.165 22.502 231.165 22.232C231.165 21.962 231.222 21.7237 231.335 21.517C231.448 21.307 231.602 21.142 231.795 21.022C231.992 20.902 232.212 20.842 232.455 20.842C232.648 20.842 232.82 20.8787 232.97 20.952C233.123 21.022 233.253 21.1187 233.36 21.242C233.467 21.362 233.548 21.4987 233.605 21.652C233.662 21.802 233.69 21.957 233.69 22.117C233.69 22.1504 233.688 22.1887 233.685 22.232C233.682 22.272 233.677 22.3137 233.67 22.357H231.405V22.007H233.455L233.275 22.157C233.305 21.9737 233.283 21.8104 233.21 21.667C233.14 21.5204 233.038 21.4054 232.905 21.322C232.772 21.2354 232.622 21.192 232.455 21.192C232.288 21.192 232.133 21.2354 231.99 21.322C231.85 21.4087 231.74 21.5304 231.66 21.687C231.58 21.8404 231.548 22.0237 231.565 22.237C231.548 22.4504 231.582 22.637 231.665 22.797C231.752 22.9537 231.868 23.0754 232.015 23.162C232.165 23.2487 232.325 23.292 232.495 23.292C232.692 23.292 232.857 23.2454 232.99 23.152C233.123 23.0587 233.232 22.942 233.315 22.802L233.635 22.972C233.582 23.092 233.5 23.2037 233.39 23.307C233.28 23.407 233.148 23.4887 232.995 23.552C232.845 23.612 232.678 23.642 232.495 23.642ZM234.351 23.582V20.902H234.726V21.422L234.641 21.402C234.708 21.2287 234.816 21.092 234.966 20.992C235.119 20.892 235.296 20.842 235.496 20.842C235.686 20.842 235.856 20.8854 236.006 20.972C236.159 21.0587 236.279 21.1787 236.366 21.332C236.456 21.482 236.501 21.652 236.501 21.842V23.582H236.126V21.987C236.126 21.8237 236.096 21.6854 236.036 21.572C235.979 21.4587 235.898 21.372 235.791 21.312C235.688 21.2487 235.568 21.217 235.431 21.217C235.294 21.217 235.173 21.2487 235.066 21.312C234.959 21.372 234.876 21.4604 234.816 21.577C234.756 21.6904 234.726 21.827 234.726 21.987V23.582H234.351ZM238.147 23.642C237.891 23.642 237.666 23.577 237.472 23.447C237.279 23.317 237.139 23.1404 237.052 22.917L237.367 22.767C237.444 22.9304 237.551 23.0604 237.687 23.157C237.827 23.2537 237.981 23.302 238.147 23.302C238.307 23.302 238.442 23.2637 238.552 23.187C238.662 23.107 238.717 23.0037 238.717 22.877C238.717 22.7837 238.691 22.7104 238.637 22.657C238.584 22.6004 238.522 22.557 238.452 22.527C238.382 22.497 238.321 22.4754 238.267 22.462L237.882 22.352C237.636 22.282 237.457 22.1837 237.347 22.057C237.237 21.9304 237.182 21.7837 237.182 21.617C237.182 21.4604 237.222 21.3237 237.302 21.207C237.382 21.0904 237.491 21.0004 237.627 20.937C237.764 20.8737 237.916 20.842 238.082 20.842C238.309 20.842 238.514 20.902 238.697 21.022C238.884 21.1387 239.016 21.302 239.092 21.512L238.772 21.662C238.706 21.512 238.609 21.3954 238.482 21.312C238.359 21.2254 238.221 21.182 238.067 21.182C237.917 21.182 237.797 21.2204 237.707 21.297C237.617 21.3737 237.572 21.4704 237.572 21.587C237.572 21.677 237.596 21.7487 237.642 21.802C237.689 21.8554 237.742 21.8954 237.802 21.922C237.866 21.9487 237.921 21.9687 237.967 21.982L238.412 22.112C238.629 22.1754 238.797 22.2737 238.917 22.407C239.041 22.5404 239.102 22.697 239.102 22.877C239.102 23.0237 239.061 23.1554 238.977 23.272C238.897 23.3887 238.786 23.4804 238.642 23.547C238.499 23.6104 238.334 23.642 238.147 23.642ZM239.761 23.582V20.902H240.136V23.582H239.761ZM239.761 20.407V19.857H240.136V20.407H239.761ZM241.619 23.582L240.574 20.902H240.994L241.874 23.252H241.739L242.624 20.902H243.049L241.994 23.582H241.619ZM244.658 23.642C244.408 23.642 244.181 23.582 243.978 23.462C243.778 23.3387 243.62 23.1704 243.503 22.957C243.386 22.7437 243.328 22.502 243.328 22.232C243.328 21.962 243.385 21.7237 243.498 21.517C243.611 21.307 243.765 21.142 243.958 21.022C244.155 20.902 244.375 20.842 244.618 20.842C244.811 20.842 244.983 20.8787 245.133 20.952C245.286 21.022 245.416 21.1187 245.523 21.242C245.63 21.362 245.711 21.4987 245.768 21.652C245.825 21.802 245.853 21.957 245.853 22.117C245.853 22.1504 245.851 22.1887 245.848 22.232C245.845 22.272 245.84 22.3137 245.833 22.357H243.568V22.007H245.618L245.438 22.157C245.468 21.9737 245.446 21.8104 245.373 21.667C245.303 21.5204 245.201 21.4054 245.068 21.322C244.935 21.2354 244.785 21.192 244.618 21.192C244.451 21.192 244.296 21.2354 244.153 21.322C244.013 21.4087 243.903 21.5304 243.823 21.687C243.743 21.8404 243.711 22.0237 243.728 22.237C243.711 22.4504 243.745 22.637 243.828 22.797C243.915 22.9537 244.031 23.0754 244.178 23.162C244.328 23.2487 244.488 23.292 244.658 23.292C244.855 23.292 245.02 23.2454 245.153 23.152C245.286 23.0587 245.395 22.942 245.478 22.802L245.798 22.972C245.745 23.092 245.663 23.2037 245.553 23.307C245.443 23.407 245.311 23.4887 245.158 23.552C245.008 23.612 244.841 23.642 244.658 23.642ZM246.644 23.582V23.032H247.044V23.582H246.644Z" fill="#2A2A2A"/>
<rect x="117.376" y="11.4119" width="1.22266" height="6.11331" fill="#2A2A2A"/>
<defs>
<linearGradient id="paint0_linear_12422_5848" x1="22.3139" y1="25.2069" x2="0.487302" y2="9.60346" gradientUnits="userSpaceOnUse">
<stop stop-color="#8B4FDD"/>
<stop offset="1" stop-color="#12B886"/>
</linearGradient>
<linearGradient id="paint1_linear_12422_5848" x1="22.9117" y1="26.5832" x2="13.2095" y2="13.5321" gradientUnits="userSpaceOnUse">
<stop stop-color="#8B4FDD"/>
<stop offset="1" stop-color="#12B886"/>
</linearGradient>
<linearGradient id="paint2_linear_12422_5848" x1="27.8" y1="20.7093" x2="11.1763" y2="10.858" gradientUnits="userSpaceOnUse">
<stop stop-color="#8B4FDD"/>
<stop offset="1" stop-color="#12B886"/>
</linearGradient>
<linearGradient id="paint3_linear_12422_5848" x1="15.2037" y1="20.7093" x2="-1.42369" y2="10.8513" gradientUnits="userSpaceOnUse">
<stop stop-color="#8B4FDD"/>
<stop offset="1" stop-color="#12B886"/>
</linearGradient>
</defs>
</svg>
