<svg width="137" height="36" viewBox="0 0 137 36" fill="none" xmlns="http://www.w3.org/2000/svg">
<path d="M0 12C0 5.37258 5.37258 0 12 0H130.917C133.793 0 135.729 2.94453 134.589 5.58515L122.504 33.5852C121.871 35.0508 120.428 36 118.831 36H0V12Z" fill="url(#paint0_linear_12353_5373)"/>
<path d="M21.6078 12.592H27.8638C27.6078 12.048 27.3198 11.536 26.9998 11.056L28.8718 10.736C29.1598 11.296 29.4478 11.92 29.7198 12.592H35.8958V14.176H21.6078V12.592ZM31.4318 14.272C33.1918 15.632 34.6958 16.992 35.9118 18.352L34.6798 19.6C33.6558 18.288 32.1838 16.88 30.2958 15.36L31.4318 14.272ZM31.1918 17.296L32.7278 17.984C32.0078 19.36 31.1278 20.56 30.1038 21.584C31.7358 22.688 33.7518 23.536 36.1198 24.128L35.0798 25.696C32.6158 25.008 30.5198 24.016 28.8078 22.736C27.0478 24.112 24.9518 25.104 22.4878 25.744L21.4478 24.208C23.8158 23.632 25.8158 22.752 27.4478 21.6C26.3918 20.608 25.4958 19.472 24.7918 18.208L26.2318 17.392C26.8718 18.576 27.7038 19.616 28.7438 20.528C29.7358 19.584 30.5518 18.512 31.1918 17.296ZM25.9438 14.288L27.1598 15.344C25.9438 16.944 24.4238 18.32 22.6318 19.504L21.5598 18.096C23.2878 17.008 24.7598 15.744 25.9438 14.288ZM41.6078 17.376H39.7198V11.344H49.8478V17.376H43.5598C43.3358 17.696 43.0958 18.016 42.8398 18.304H51.0638C51.0158 20.064 50.9198 21.488 50.7758 22.576C50.6158 23.648 50.3598 24.4 50.0238 24.832C49.6878 25.248 49.1438 25.472 48.3758 25.504H46.0878L45.6718 23.936C46.3278 23.984 46.9678 24.016 47.5758 24.016C48.2638 24.016 48.7118 23.744 48.9358 23.232C49.1598 22.688 49.3038 21.536 49.3678 19.776H48.2318C46.8558 22.72 44.6798 24.688 41.7358 25.648L40.7918 24.24C43.3838 23.44 45.2878 21.952 46.5038 19.776H44.9518C43.8318 21.472 42.0558 22.816 39.6238 23.792L38.5678 22.496C40.6158 21.776 42.1358 20.864 43.1278 19.776H41.2078C40.4398 20.32 39.5918 20.816 38.6478 21.264L37.7358 19.792C39.4478 19.152 40.7438 18.336 41.6078 17.376ZM48.1998 15.968V15.008H41.3678V15.968H48.1998ZM41.3678 13.696H48.1998V12.752H41.3678V13.696ZM60.8238 10.88H62.4078V25.664H60.8238V22.304H57.9118V20.8H60.8238V18.48H58.8078V16.976H60.8238V14.768H58.4878V13.264H60.8238V10.88ZM55.2078 25.52H53.7518L53.3838 23.904C53.8318 23.968 54.2478 24 54.6318 24C55.0478 24 55.2558 23.84 55.2558 23.552V20.288C54.7758 20.464 54.2798 20.64 53.7998 20.8L53.3838 19.104C54.0078 18.976 54.6318 18.8 55.2558 18.592V15.36H53.7198V13.744H55.2558V10.912H56.8878V13.744H58.1358V15.36H56.8878V17.952C57.3198 17.76 57.7518 17.536 58.1838 17.312V19.024C57.7518 19.232 57.3198 19.44 56.8878 19.632V23.968C56.8878 24.992 56.3278 25.52 55.2078 25.52ZM63.8318 10.88H65.4318V13.264H67.9918V14.768H65.4318V16.976H67.5918V18.48H65.4318V20.8H68.1038V22.304H65.4318V25.664H63.8318V10.88ZM75.4318 11.696H83.3038V13.344H75.4318V11.696ZM75.0478 15.664H83.9918V17.312H81.5278V24.016C81.5278 25.072 80.9358 25.6 79.7518 25.6H77.4318L77.0638 23.968C77.7998 24.032 78.5038 24.08 79.1758 24.08C79.6078 24.08 79.8318 23.92 79.8318 23.6V17.312H75.0478V15.664ZM72.6478 10.944L74.1678 11.664C73.3198 13.408 71.8638 14.992 69.7998 16.416L69.2878 14.736C70.7918 13.664 71.9118 12.4 72.6478 10.944ZM73.3998 14.624L74.9038 15.328C74.4878 16.16 73.9598 16.96 73.3198 17.728V25.664H71.6718V19.376C71.1278 19.824 70.5358 20.272 69.9278 20.704L69.4158 19.056C71.2078 17.808 72.5358 16.32 73.3998 14.624ZM85.4958 13.616H87.3678V10.864H88.9998V13.616H90.5038V15.216H88.9998V16.192C89.5918 16.848 90.1838 17.568 90.7598 18.352L89.8158 19.776C89.4958 19.136 89.2238 18.576 88.9998 18.128V25.616H87.3678V18.624C86.9838 19.792 86.5038 20.88 85.9598 21.888L85.2238 20.048C86.1838 18.64 86.8878 17.024 87.3358 15.216H85.4958V13.616ZM91.0638 12.08H94.4878C94.3438 11.728 94.1838 11.392 94.0238 11.072L95.6878 10.784C95.8478 11.168 95.9918 11.6 96.1518 12.08H99.6398V13.552H98.1678C98.0398 14.064 97.8958 14.544 97.7358 15.008H99.8478V17.696H98.2638V16.448H92.4078V17.696H90.8238V15.008H93.0638C92.9358 14.48 92.7918 14 92.6318 13.552H91.0638V12.08ZM96.1678 15.008C96.3438 14.528 96.4878 14.048 96.5838 13.552H94.2638C94.3918 14 94.5038 14.496 94.6318 15.008H96.1678ZM90.8718 18.24H94.5998C94.4398 17.792 94.2798 17.392 94.1198 17.008L95.7678 16.72C95.9278 17.168 96.0878 17.68 96.2478 18.24H99.9758V19.744H94.7598C94.7278 20.112 94.6958 20.464 94.6318 20.816H99.0638C99.0478 23.28 98.7758 24.704 98.2478 25.12C98.0398 25.28 97.7198 25.392 97.3038 25.488C96.9038 25.552 96.5198 25.584 96.1358 25.6H95.3358L94.9038 24.112C95.4478 24.112 95.9438 24.128 96.4078 24.128C96.7598 24.112 96.9998 24.048 97.1598 23.92C97.3038 23.792 97.3998 23.248 97.4318 22.256H94.2478C93.6558 23.792 92.5998 24.992 91.0638 25.84L90.1838 24.432C92.0238 23.536 93.0158 21.968 93.1758 19.744H90.8718V18.24Z" fill="white"/>
<defs>
<linearGradient id="paint0_linear_12353_5373" x1="-3.32079" y1="13.8308" x2="130.675" y2="13.8308" gradientUnits="userSpaceOnUse">
<stop stop-color="#FA966E"/>
<stop offset="1" stop-color="#FF5D5E"/>
</linearGradient>
</defs>
</svg>
