<svg width="187" height="36" viewBox="0 0 187 36" fill="none" xmlns="http://www.w3.org/2000/svg">
<path d="M0 12C0 5.37258 5.37258 0 12 0H180.917C183.793 0 185.729 2.94453 184.589 5.58515L172.504 33.5852C171.871 35.0508 170.428 36 168.831 36H0V12Z" fill="url(#paint0_linear_12418_5071)"/>
<path d="M20.9838 12.576H30.3438V14.176H26.5998V24H24.7278V14.176H20.9838V12.576ZM35.4515 15.504C35.8515 15.504 36.2035 15.568 36.4915 15.712V17.536C36.0755 17.408 35.6915 17.36 35.3075 17.36C34.8275 17.36 34.3955 17.536 34.0115 17.92C33.5635 18.352 33.3555 18.912 33.3555 19.616V24H31.5475V15.728H33.3555V16.912C33.5795 16.496 33.8355 16.176 34.1395 15.952C34.5075 15.648 34.9395 15.504 35.4515 15.504ZM41.2919 15.504C42.5079 15.504 43.4199 15.808 43.9959 16.416C44.5079 16.944 44.7639 17.712 44.7639 18.72V24H43.0679V22.912C42.7479 23.328 42.3479 23.632 41.8839 23.856C41.3559 24.096 40.7319 24.224 40.0119 24.224C39.1479 24.224 38.4759 24 37.9799 23.568C37.4679 23.12 37.2119 22.56 37.2119 21.872C37.2119 20.944 37.5639 20.224 38.2999 19.728C38.9719 19.248 39.9159 18.992 41.1319 18.96L42.9399 18.912V18.592C42.9399 17.504 42.3479 16.976 41.1639 16.976C40.6519 16.976 40.2519 17.056 39.9479 17.248C39.5959 17.456 39.3559 17.776 39.2599 18.208L37.4519 18.064C37.6279 17.152 38.0759 16.48 38.7959 16.064C39.4039 15.68 40.2359 15.504 41.2919 15.504ZM42.9399 20.224L41.2599 20.272C39.8039 20.304 39.0839 20.816 39.0839 21.808C39.0839 22.096 39.1959 22.336 39.4519 22.528C39.7079 22.72 40.0279 22.832 40.4279 22.832C41.1319 22.832 41.7239 22.624 42.2039 22.224C42.6839 21.808 42.9399 21.28 42.9399 20.64V20.224ZM52.5761 12.352H54.4002V24H52.7041V23.12C52.1281 23.856 51.2961 24.224 50.2081 24.224C48.9761 24.224 48.0161 23.792 47.3281 22.928C46.6881 22.128 46.3681 21.088 46.3681 19.824C46.3681 18.608 46.6721 17.6 47.3121 16.8C47.9841 15.936 48.9281 15.504 50.1121 15.504C51.0721 15.504 51.8881 15.952 52.5761 16.864V12.352ZM50.5441 16.976C49.7121 16.976 49.1201 17.248 48.7361 17.792C48.4001 18.256 48.2401 18.928 48.2401 19.824C48.2401 20.72 48.3841 21.408 48.7041 21.888C49.0721 22.464 49.6641 22.752 50.4801 22.752C51.1841 22.752 51.7441 22.464 52.1281 21.904C52.4641 21.392 52.6401 20.72 52.6401 19.92V19.792C52.6401 18.912 52.4161 18.208 52.0001 17.696C51.6161 17.216 51.1201 16.976 50.5441 16.976ZM57.5451 12.352C57.8971 12.352 58.2011 12.464 58.4411 12.688C58.6651 12.912 58.7931 13.2 58.7931 13.552C58.7931 13.904 58.6651 14.208 58.4251 14.432C58.1851 14.656 57.8971 14.768 57.5451 14.768C57.1931 14.768 56.9051 14.656 56.6651 14.432C56.4251 14.192 56.3131 13.904 56.3131 13.552C56.3131 13.2 56.4251 12.912 56.6651 12.688C56.9051 12.464 57.1931 12.352 57.5451 12.352ZM56.6331 15.728H58.4571V24H56.6331V15.728ZM64.9914 15.504C67.0554 15.504 68.0954 16.624 68.0954 18.896V24H66.2714V19.056C66.2714 17.696 65.6474 17.024 64.3994 17.024C63.9514 17.024 63.5514 17.184 63.2154 17.504C62.8314 17.856 62.6074 18.368 62.5434 19.024V24H60.7194V15.728H62.5434V16.688C62.8634 16.304 63.2314 16 63.6314 15.808C64.0474 15.6 64.4954 15.504 64.9914 15.504ZM73.4563 15.504C74.4803 15.504 75.2963 15.904 75.9043 16.736V15.728H77.7283V23.472C77.7283 26.08 76.4323 27.392 73.8403 27.392C72.6723 27.392 71.7923 27.168 71.1843 26.752C70.5763 26.304 70.1923 25.632 70.0323 24.704H71.8563C71.9523 25.168 72.1443 25.488 72.4483 25.68C72.7363 25.856 73.2003 25.952 73.8403 25.952C75.2163 25.952 75.9043 25.216 75.9043 23.744V22.528C75.2963 23.376 74.4803 23.808 73.4563 23.808C72.3363 23.808 71.4243 23.424 70.7363 22.688C70.0323 21.936 69.6963 20.928 69.6963 19.68C69.6963 18.432 70.0323 17.424 70.7363 16.656C71.4243 15.888 72.3363 15.504 73.4563 15.504ZM73.7443 16.976C73.0563 16.976 72.5283 17.216 72.1443 17.696C71.7603 18.16 71.5683 18.816 71.5683 19.68C71.5683 20.464 71.7123 21.072 72.0163 21.52C72.3683 22.048 72.9283 22.32 73.7283 22.32C74.4323 22.32 74.9763 22.08 75.3603 21.632C75.7283 21.152 75.9203 20.512 75.9203 19.68C75.9203 18.832 75.7283 18.176 75.3603 17.696C74.9763 17.216 74.4323 16.976 73.7443 16.976ZM85.1294 12.576H90.2174C91.3854 12.576 92.3134 12.832 92.9854 13.36C93.6894 13.936 94.0574 14.768 94.0574 15.856C94.0574 16.448 93.8974 16.976 93.5774 17.44C93.2254 17.952 92.7294 18.288 92.1214 18.448V18.48C93.1134 18.704 93.6734 19.36 93.8014 20.48L93.9934 22.32C94.0574 23.024 94.2974 23.584 94.6814 24H92.6494C92.3774 23.648 92.2174 23.152 92.1534 22.512L92.0094 21.104C91.9454 20.48 91.7534 20.032 91.4334 19.76C91.0974 19.472 90.6014 19.344 89.9614 19.344H87.0014V24H85.1294V12.576ZM87.0014 14.176V17.744H89.9614C90.6974 17.744 91.2574 17.584 91.6414 17.28C91.9934 16.96 92.1694 16.512 92.1694 15.936C92.1694 15.312 91.9934 14.864 91.6414 14.592C91.2894 14.304 90.7294 14.176 89.9614 14.176H87.0014ZM99.8856 15.504C101.102 15.504 102.014 15.808 102.59 16.416C103.102 16.944 103.358 17.712 103.358 18.72V24H101.662V22.912C101.342 23.328 100.942 23.632 100.478 23.856C99.9496 24.096 99.3256 24.224 98.6056 24.224C97.7416 24.224 97.0696 24 96.5736 23.568C96.0616 23.12 95.8056 22.56 95.8056 21.872C95.8056 20.944 96.1576 20.224 96.8936 19.728C97.5656 19.248 98.5096 18.992 99.7256 18.96L101.534 18.912V18.592C101.534 17.504 100.942 16.976 99.7576 16.976C99.2456 16.976 98.8456 17.056 98.5416 17.248C98.1896 17.456 97.9496 17.776 97.8536 18.208L96.0456 18.064C96.2216 17.152 96.6696 16.48 97.3896 16.064C97.9976 15.68 98.8296 15.504 99.8856 15.504ZM101.534 20.224L99.8536 20.272C98.3976 20.304 97.6776 20.816 97.6776 21.808C97.6776 22.096 97.7896 22.336 98.0456 22.528C98.3016 22.72 98.6216 22.832 99.0216 22.832C99.7256 22.832 100.318 22.624 100.798 22.224C101.278 21.808 101.534 21.28 101.534 20.64V20.224ZM109.554 15.504C111.618 15.504 112.658 16.624 112.658 18.896V24H110.834V19.056C110.834 17.696 110.21 17.024 108.962 17.024C108.514 17.024 108.114 17.184 107.778 17.504C107.394 17.856 107.17 18.368 107.106 19.024V24H105.282V15.728H107.106V16.688C107.426 16.304 107.794 16 108.194 15.808C108.61 15.6 109.058 15.504 109.554 15.504ZM114.579 12.352H116.403V19.008L119.795 15.728H122.147L118.483 19.152L122.467 24H120.131L117.235 20.32L116.403 21.104V24H114.579V12.352ZM124.655 12.352C125.007 12.352 125.311 12.464 125.551 12.688C125.775 12.912 125.903 13.2 125.903 13.552C125.903 13.904 125.775 14.208 125.535 14.432C125.295 14.656 125.007 14.768 124.655 14.768C124.303 14.768 124.015 14.656 123.775 14.432C123.535 14.192 123.423 13.904 123.423 13.552C123.423 13.2 123.535 12.912 123.775 12.688C124.015 12.464 124.303 12.352 124.655 12.352ZM123.743 15.728H125.567V24H123.743V15.728ZM132.101 15.504C134.165 15.504 135.205 16.624 135.205 18.896V24H133.381V19.056C133.381 17.696 132.757 17.024 131.509 17.024C131.061 17.024 130.661 17.184 130.325 17.504C129.941 17.856 129.717 18.368 129.653 19.024V24H127.829V15.728H129.653V16.688C129.973 16.304 130.341 16 130.741 15.808C131.157 15.6 131.605 15.504 132.101 15.504ZM140.566 15.504C141.59 15.504 142.406 15.904 143.014 16.736V15.728H144.838V23.472C144.838 26.08 143.542 27.392 140.95 27.392C139.782 27.392 138.902 27.168 138.294 26.752C137.686 26.304 137.302 25.632 137.142 24.704H138.966C139.062 25.168 139.254 25.488 139.558 25.68C139.846 25.856 140.31 25.952 140.95 25.952C142.326 25.952 143.014 25.216 143.014 23.744V22.528C142.406 23.376 141.59 23.808 140.566 23.808C139.446 23.808 138.534 23.424 137.846 22.688C137.142 21.936 136.806 20.928 136.806 19.68C136.806 18.432 137.142 17.424 137.846 16.656C138.534 15.888 139.446 15.504 140.566 15.504ZM140.854 16.976C140.166 16.976 139.638 17.216 139.254 17.696C138.87 18.16 138.678 18.816 138.678 19.68C138.678 20.464 138.822 21.072 139.126 21.52C139.478 22.048 140.038 22.32 140.838 22.32C141.542 22.32 142.086 22.08 142.47 21.632C142.838 21.152 143.03 20.512 143.03 19.68C143.03 18.832 142.838 18.176 142.47 17.696C142.086 17.216 141.542 16.976 140.854 16.976ZM149.871 15.504C152.047 15.504 153.247 16.368 153.439 18.128H151.663C151.535 17.712 151.343 17.408 151.087 17.248C150.815 17.072 150.399 16.992 149.839 16.992C149.359 16.992 148.991 17.056 148.751 17.2C148.463 17.344 148.335 17.568 148.335 17.888C148.335 18.144 148.543 18.384 148.991 18.576C149.263 18.688 149.807 18.848 150.639 19.056C151.567 19.28 152.271 19.536 152.719 19.84C153.375 20.256 153.711 20.848 153.711 21.584C153.711 23.344 152.463 24.224 149.983 24.224C147.679 24.224 146.447 23.248 146.271 21.312H148.047C148.143 21.84 148.335 22.208 148.607 22.432C148.879 22.624 149.311 22.736 149.919 22.736C151.199 22.736 151.839 22.384 151.839 21.712C151.839 21.328 151.599 21.024 151.119 20.8C150.863 20.672 150.319 20.528 149.487 20.336C148.511 20.112 147.823 19.872 147.423 19.616C146.783 19.216 146.463 18.656 146.463 17.936C146.463 17.168 146.767 16.576 147.407 16.16C148.031 15.712 148.847 15.504 149.871 15.504Z" fill="white"/>
<defs>
<linearGradient id="paint0_linear_12418_5071" x1="-4.53276" y1="13.8308" x2="178.366" y2="13.8308" gradientUnits="userSpaceOnUse">
<stop stop-color="#FA966E"/>
<stop offset="1" stop-color="#FF5D5E"/>
</linearGradient>
</defs>
</svg>
