<svg width="335" height="160" viewBox="0 0 335 160" fill="none" xmlns="http://www.w3.org/2000/svg">
<rect y="12" width="335" height="147.414" rx="12" fill="white"/>
<path d="M16.61 56.781H20.166C20.194 56.417 20.236 56.053 20.264 55.689L21.244 55.829C21.216 56.165 21.174 56.473 21.146 56.781H24.492V57.663H21.034C20.978 57.971 20.936 58.279 20.894 58.573H23.694V65.041H24.982V65.937H16.12V65.041H17.422V58.573H19.928C19.984 58.265 20.026 57.957 20.068 57.663H16.61V56.781ZM18.374 65.041H22.742V64.131H18.374V65.041ZM18.374 63.403H22.742V62.549H18.374V63.403ZM18.374 61.821H22.742V60.967H18.374V61.821ZM18.374 60.253H22.742V59.371H18.374V60.253ZM22.112 66.133C23.078 66.637 23.974 67.239 24.814 67.939L24.198 68.639C23.358 67.897 22.448 67.253 21.482 66.707L22.112 66.133ZM19.018 66.119L19.69 66.721C18.878 67.449 17.87 68.093 16.666 68.639L16.064 67.883C17.24 67.379 18.22 66.791 19.018 66.119ZM12.2 59.175H13.768V55.801H14.734V59.175H16.176V60.127H14.734V64.495C15.21 64.327 15.686 64.145 16.148 63.949V64.943C14.972 65.419 13.698 65.811 12.34 66.133L12.088 65.167C12.648 65.055 13.208 64.929 13.768 64.789V60.127H12.2V59.175ZM30.33 60.267C30.162 60.925 29.98 61.541 29.798 62.115H37.316C37.274 65.531 37.05 67.463 36.63 67.911C36.28 68.289 35.524 68.485 34.362 68.499H33.144L32.864 67.561C33.424 67.575 33.928 67.589 34.404 67.589C35.16 67.575 35.636 67.435 35.86 67.183C36.112 66.889 36.266 65.517 36.308 63.053H28.524C29.112 61.093 29.56 59.357 29.854 57.859L30.848 57.957C30.75 58.433 30.652 58.881 30.554 59.315H36.266V60.267H30.33ZM26.522 64.733H34.922V65.699H26.522V64.733ZM38.086 56.333V59.371H37.092V57.285H27.908V59.357H26.914V56.333H38.086ZM39.57 57.187H40.858L43.056 65.573H43.112L45.394 57.187H46.64L48.908 65.573H48.964L51.162 57.187H52.45L49.58 67.183H48.306L46.038 58.853H45.996L43.714 67.183H42.44L39.57 57.187ZM56.3656 59.749C57.5276 59.749 58.4096 60.141 58.9976 60.925C59.5296 61.625 59.8096 62.619 59.8376 63.879H54.1256C54.1816 64.691 54.3916 65.321 54.7836 65.769C55.1756 66.217 55.7216 66.441 56.4076 66.441C56.9956 66.441 57.4856 66.287 57.8496 65.993C58.1576 65.741 58.3956 65.363 58.5776 64.859H59.6976C59.5296 65.559 59.2076 66.119 58.7176 66.567C58.1156 67.099 57.3456 67.379 56.4076 67.379C55.3716 67.379 54.5316 67.029 53.9156 66.357C53.2716 65.657 52.9636 64.733 52.9636 63.557C52.9636 62.493 53.2576 61.597 53.8736 60.883C54.4896 60.127 55.3156 59.749 56.3656 59.749ZM56.3936 60.687C55.7496 60.687 55.2316 60.897 54.8396 61.317C54.4476 61.737 54.2236 62.297 54.1536 63.011H58.6756C58.5356 61.457 57.7656 60.687 56.3936 60.687ZM61.1493 56.991H62.2693V61.275C62.8293 60.253 63.6273 59.749 64.6633 59.749C65.6853 59.749 66.4973 60.127 67.0853 60.911C67.6173 61.611 67.8973 62.479 67.8973 63.543C67.8973 64.635 67.6173 65.531 67.0853 66.231C66.4833 66.987 65.6573 67.379 64.6073 67.379C63.4873 67.379 62.6893 66.917 62.1993 65.993V67.183H61.1493V56.991ZM64.4253 60.673C63.7673 60.673 63.2353 60.925 62.8433 61.457C62.4233 61.975 62.2273 62.661 62.2273 63.501V63.641C62.2273 64.453 62.4093 65.111 62.7733 65.615C63.1653 66.175 63.7393 66.455 64.4673 66.455C65.2513 66.455 65.8393 66.161 66.2313 65.601C66.5673 65.097 66.7493 64.411 66.7493 63.543C66.7493 62.675 66.5673 62.003 66.2033 61.513C65.7973 60.953 65.2093 60.673 64.4253 60.673ZM69.3524 56.991H70.4724V63.305L74.0984 59.945H75.5824L72.3904 62.857L75.8904 67.183H74.4484L71.6204 63.585L70.4724 64.621V67.183H69.3524V56.991ZM79.7445 59.749C80.9065 59.749 81.7885 60.141 82.3765 60.925C82.9085 61.625 83.1885 62.619 83.2165 63.879H77.5045C77.5605 64.691 77.7705 65.321 78.1625 65.769C78.5545 66.217 79.1005 66.441 79.7865 66.441C80.3745 66.441 80.8645 66.287 81.2285 65.993C81.5365 65.741 81.7745 65.363 81.9565 64.859H83.0765C82.9085 65.559 82.5865 66.119 82.0965 66.567C81.4945 67.099 80.7245 67.379 79.7865 67.379C78.7505 67.379 77.9105 67.029 77.2945 66.357C76.6505 65.657 76.3425 64.733 76.3425 63.557C76.3425 62.493 76.6365 61.597 77.2525 60.883C77.8685 60.127 78.6945 59.749 79.7445 59.749ZM79.7725 60.687C79.1285 60.687 78.6105 60.897 78.2185 61.317C77.8265 61.737 77.6025 62.297 77.5325 63.011H82.0545C81.9145 61.457 81.1445 60.687 79.7725 60.687ZM83.7302 59.945H84.9482L87.1602 65.657L89.3022 59.945H90.5342L86.5722 69.955H85.3542L86.6002 67.015L83.7302 59.945ZM102.309 55.871L102.799 56.725C101.525 57.061 100.055 57.327 98.3755 57.495V59.861H102.841V60.841H98.3755V63.137H103.891V64.103H98.3755V67.197C98.3755 68.037 97.9275 68.471 97.0595 68.471H94.8895L94.6655 67.491C95.3795 67.519 96.0655 67.547 96.7095 67.547C97.1295 67.547 97.3535 67.337 97.3535 66.945V64.103H91.3335V63.137H97.3535V60.841H92.4955V59.861H97.3535V57.579C95.8695 57.691 94.2595 57.761 92.5235 57.761L92.2155 56.851C96.2755 56.851 99.6355 56.515 102.309 55.871ZM105.417 58.489H107.503V55.759H108.511V58.489H110.247V59.455H108.511V60.169C109.155 60.841 109.813 61.583 110.485 62.409L109.897 63.277C109.365 62.395 108.903 61.681 108.511 61.135V68.513H107.503V61.401C107.013 62.801 106.369 64.061 105.585 65.209L105.151 64.117C106.229 62.759 106.999 61.205 107.461 59.455H105.417V58.489ZM109.589 67.897C110.191 67.015 110.611 66.077 110.849 65.083C111.031 64.229 111.129 63.081 111.129 61.639V56.333H115.651V66.931C115.651 67.169 115.749 67.295 115.973 67.295H116.449C116.617 67.295 116.743 67.267 116.841 67.211C116.953 67.127 117.023 67.001 117.051 66.805C117.107 66.525 117.149 65.727 117.149 64.383L118.073 64.677C118.073 65.685 118.031 66.441 117.975 66.973C117.919 67.477 117.779 67.813 117.555 68.009C117.331 68.163 116.995 68.247 116.547 68.247H115.973C115.077 68.247 114.629 67.841 114.629 67.029V57.285H112.137V61.639C112.137 63.179 112.011 64.467 111.759 65.503C111.521 66.595 111.073 67.631 110.415 68.639L109.589 67.897ZM119.865 65.811L119.557 64.957C119.753 64.873 119.865 64.761 119.865 64.621V56.949H120.845V64.593C121.545 64.397 122.245 64.159 122.945 63.893V55.815H123.939V68.499H122.945V64.873C121.965 65.223 120.929 65.531 119.865 65.811ZM126.795 58.867C126.627 59.315 126.459 59.735 126.277 60.127C126.781 61.499 127.425 62.759 128.237 63.907C129.077 62.479 129.525 60.799 129.609 58.867H126.795ZM125.689 61.219C125.423 61.639 125.143 62.017 124.849 62.367L124.219 61.597C125.367 60.141 126.151 58.167 126.557 55.703L127.565 55.871C127.425 56.585 127.271 57.257 127.103 57.873H131.779V58.867H130.575C130.477 61.163 129.917 63.137 128.881 64.761C129.805 65.909 130.869 66.931 132.101 67.827L131.415 68.639C130.197 67.729 129.147 66.721 128.265 65.629C127.341 66.791 126.151 67.757 124.695 68.541L124.121 67.631C125.591 66.903 126.767 65.965 127.635 64.817C126.851 63.697 126.193 62.507 125.689 61.219ZM143.917 60.967H140.879C140.011 60.967 139.591 60.575 139.591 59.805V59.217C139.017 59.385 138.429 59.553 137.841 59.721L137.295 58.923C138.107 58.713 138.877 58.489 139.591 58.265V55.815H140.571V57.943C142.167 57.355 143.469 56.725 144.491 56.025L145.135 56.697C143.847 57.537 142.335 58.279 140.571 58.895V59.609C140.571 59.931 140.753 60.099 141.145 60.099H143.735C144.043 60.099 144.267 60.029 144.393 59.917C144.561 59.777 144.673 59.343 144.729 58.643L145.653 58.937C145.555 59.903 145.359 60.491 145.079 60.701C144.827 60.869 144.449 60.967 143.917 60.967ZM144.155 61.765V65.937H143.119V62.689H136.385V66.133H135.363V61.765H144.155ZM140.641 65.951C142.447 66.455 144.085 67.085 145.569 67.813L145.009 68.667C143.427 67.841 141.803 67.197 140.137 66.721L140.641 65.951ZM139.269 63.305L140.249 63.389C140.053 65.209 139.619 66.441 138.961 67.085C138.233 67.869 136.609 68.373 134.075 68.583L133.669 67.673C135.923 67.561 137.407 67.169 138.135 66.497C138.779 65.867 139.157 64.803 139.269 63.305ZM135.531 58.545C134.971 58.937 134.355 59.315 133.683 59.665L133.375 58.685C135.097 57.803 136.357 56.795 137.141 55.675L137.967 56.081C137.575 56.683 137.085 57.243 136.511 57.761V61.149H135.531V58.545ZM159.527 58.447C159.527 61.275 159.457 62.997 159.317 63.613C159.177 64.201 158.575 64.509 157.525 64.509H157.441L157.161 63.515C157.371 63.529 157.567 63.543 157.735 63.543C158.113 63.543 158.351 63.389 158.435 63.081C158.505 62.787 158.547 61.681 158.561 59.777L156.517 60.393V65.685H155.537V60.687L153.493 61.303V66.735C153.493 67.155 153.731 67.379 154.221 67.379H158.155C158.449 67.379 158.659 67.281 158.771 67.099C158.925 66.875 159.037 66.189 159.093 65.055L160.031 65.349C159.933 66.763 159.751 67.617 159.471 67.925C159.233 68.191 158.855 68.331 158.337 68.331H153.913C152.975 68.331 152.513 67.855 152.513 66.931V61.597L151.337 61.961V60.981L152.513 60.617V57.173H153.493V60.309L155.537 59.679V55.745H156.517V59.371L159.527 58.447ZM151.519 64.397V65.391C150.231 65.993 148.845 66.497 147.361 66.889L147.109 65.881C147.697 65.755 148.285 65.601 148.873 65.433V60.449H147.277V59.469H148.873V55.857H149.867V59.469H151.323V60.449H149.867V65.097C150.427 64.887 150.987 64.649 151.519 64.397ZM169.887 55.731H170.909V60.211H173.569V61.177H170.909V67.043H173.975V68.023H165.155V67.043H166.779V58.699H167.787V67.043H169.887V55.731ZM165.855 64.509V65.559C164.455 66.063 162.929 66.497 161.305 66.833L161.039 65.769C161.683 65.657 162.313 65.531 162.929 65.391V60.337H161.179V59.357H162.929V55.801H163.965V59.357H165.687V60.337H163.965V65.111C164.609 64.929 165.239 64.733 165.855 64.509ZM177.209 65.517C177.517 65.517 177.783 65.643 177.979 65.909C178.161 66.161 178.259 66.483 178.259 66.889C178.259 67.505 178.077 68.051 177.713 68.527C177.349 68.975 176.859 69.283 176.271 69.437V68.751C176.635 68.625 176.929 68.415 177.153 68.135C177.349 67.841 177.461 67.533 177.461 67.197C177.405 67.225 177.293 67.253 177.153 67.253C176.915 67.253 176.719 67.169 176.551 67.001C176.383 66.833 176.299 66.623 176.299 66.385C176.299 66.119 176.383 65.909 176.551 65.755C176.719 65.587 176.929 65.517 177.209 65.517ZM194.429 55.745H195.465V60.071H200.659V61.051H195.465V67.043H201.849V68.023H189.389V67.043H194.429V55.745ZM203.333 58.307H205.125V55.745H206.105V58.307H207.589V59.287H206.105V60.309C206.665 60.981 207.225 61.737 207.785 62.549L207.225 63.403C206.791 62.563 206.413 61.891 206.105 61.387V68.541H205.125V61.541C204.719 62.857 204.201 64.061 203.557 65.153L203.123 64.047C204.047 62.647 204.705 61.065 205.097 59.287H203.333V58.307ZM208.191 56.949H211.425C211.257 56.543 211.089 56.165 210.893 55.829L211.901 55.661C212.083 56.039 212.251 56.473 212.419 56.949H215.583V57.845H214.197C214.071 58.405 213.903 58.965 213.707 59.497H215.639V61.611H214.673V60.393H209.073V61.667H208.107V59.497H210.123C209.955 58.881 209.773 58.335 209.577 57.845H208.191V56.949ZM212.741 59.497C212.965 58.965 213.119 58.419 213.231 57.845H210.585C210.753 58.349 210.921 58.895 211.075 59.497H212.741ZM208.051 62.339H211.537C211.369 61.863 211.173 61.429 210.977 61.037L211.971 60.869C212.167 61.303 212.349 61.793 212.517 62.339H215.849V63.263H211.187C211.159 63.711 211.117 64.145 211.033 64.551H214.911C214.911 66.581 214.701 67.771 214.295 68.121C214.127 68.261 213.861 68.373 213.525 68.443C213.245 68.485 212.951 68.513 212.671 68.513H211.859L211.593 67.617H212.839C213.203 67.617 213.469 67.533 213.623 67.393C213.791 67.239 213.889 66.581 213.931 65.433H210.795C210.291 66.847 209.367 67.939 208.009 68.695L207.477 67.855C209.199 66.931 210.123 65.405 210.235 63.263H208.051V62.339ZM226.055 55.647L227.035 55.983C226.741 56.543 226.419 57.047 226.083 57.495H229.863V58.475H217.333V57.495H221.169C220.889 56.907 220.595 56.389 220.259 55.913L221.323 55.731C221.631 56.249 221.939 56.837 222.247 57.495H224.977C225.383 56.907 225.747 56.291 226.055 55.647ZM222.191 68.499H221.085L220.819 67.505L221.869 67.547C222.233 67.547 222.415 67.309 222.415 66.847V65.545H219.293V68.611H218.313V59.609H223.395V67.071C223.395 68.023 222.989 68.499 222.191 68.499ZM219.293 64.649H222.415V63.053H219.293V64.649ZM219.293 62.157H222.415V60.547H219.293V62.157ZM227.637 68.457H225.775L225.565 67.491C226.153 67.533 226.727 67.561 227.287 67.561C227.679 67.561 227.875 67.337 227.875 66.917V59.217H228.883V67.169C228.883 68.023 228.463 68.457 227.637 68.457ZM224.963 60.267H225.943V66.301H224.963V60.267ZM233.825 57.187H234.721V67.183H233.573V58.587C232.943 59.231 232.159 59.679 231.221 59.959V58.811C231.669 58.685 232.145 58.489 232.621 58.209C233.097 57.901 233.489 57.565 233.825 57.187ZM240.425 56.991C241.615 56.991 242.511 57.509 243.127 58.573C243.659 59.469 243.925 60.673 243.925 62.185C243.925 63.697 243.659 64.901 243.127 65.797C242.511 66.847 241.615 67.379 240.425 67.379C239.221 67.379 238.325 66.847 237.723 65.797C237.191 64.901 236.925 63.697 236.925 62.185C236.925 60.673 237.191 59.469 237.723 58.573C238.325 57.509 239.221 56.991 240.425 56.991ZM240.425 57.971C239.529 57.971 238.885 58.447 238.493 59.413C238.213 60.085 238.073 61.009 238.073 62.185C238.073 63.347 238.213 64.271 238.493 64.957C238.885 65.909 239.529 66.399 240.425 66.399C241.321 66.399 241.965 65.909 242.357 64.957C242.637 64.271 242.791 63.347 242.791 62.185C242.791 61.009 242.637 60.085 242.357 59.413C241.965 58.447 241.321 57.971 240.425 57.971ZM248.819 56.991C250.009 56.991 250.905 57.509 251.521 58.573C252.053 59.469 252.319 60.673 252.319 62.185C252.319 63.697 252.053 64.901 251.521 65.797C250.905 66.847 250.009 67.379 248.819 67.379C247.615 67.379 246.719 66.847 246.117 65.797C245.585 64.901 245.319 63.697 245.319 62.185C245.319 60.673 245.585 59.469 246.117 58.573C246.719 57.509 247.615 56.991 248.819 56.991ZM248.819 57.971C247.923 57.971 247.279 58.447 246.887 59.413C246.607 60.085 246.467 61.009 246.467 62.185C246.467 63.347 246.607 64.271 246.887 64.957C247.279 65.909 247.923 66.399 248.819 66.399C249.715 66.399 250.359 65.909 250.751 64.957C251.031 64.271 251.185 63.347 251.185 62.185C251.185 61.009 251.031 60.085 250.751 59.413C250.359 58.447 249.715 57.971 248.819 57.971ZM257.984 67.715V68.541H256.976V63.599C256.108 63.879 255.198 64.131 254.218 64.369L253.686 63.403C256.108 62.899 258.124 62.255 259.734 61.443C259.118 60.925 258.278 60.365 257.214 59.763L258.082 59.217C259.146 59.875 259.986 60.463 260.588 60.981C262.016 60.127 263.052 59.133 263.71 57.985H258.53C257.578 58.867 256.374 59.651 254.89 60.351L254.218 59.483C256.612 58.461 258.222 57.201 259.062 55.717L260.168 55.843C259.944 56.263 259.692 56.655 259.412 57.033H264.872V57.929C263.864 59.847 262.058 61.415 259.426 62.633H265.264V68.541H264.242V67.715H257.984ZM264.242 66.735V63.571H257.984V66.735H264.242ZM269.996 60.631V63.081H273.552V60.631H269.996ZM269.94 64.005C269.786 65.797 269.268 67.281 268.372 68.457L267.602 67.771C268.498 66.525 268.96 64.943 268.988 63.025V56.305H279.418V66.791C279.418 67.771 278.928 68.261 277.948 68.261H276.338L276.072 67.267C276.632 67.295 277.15 67.323 277.626 67.323C278.13 67.323 278.396 67.029 278.396 66.441V64.005H274.588V68.107H273.552V64.005H269.94ZM278.396 63.081V60.631H274.588V63.081H278.396ZM278.396 59.693V57.285H274.588V59.693H278.396ZM273.552 57.285H269.996V59.693H273.552V57.285ZM292.2 58.461H284.206V61.191H292.2V58.461ZM284.206 62.171C284.136 64.677 283.478 66.833 282.218 68.639L281.476 67.967C282.61 66.399 283.184 64.355 283.212 61.849V57.467H287.776C287.524 56.879 287.258 56.333 286.964 55.829L288.042 55.661C288.294 56.193 288.546 56.795 288.798 57.467H293.222V62.171H284.206ZM300.124 56.781H303.68C303.708 56.417 303.75 56.053 303.778 55.689L304.758 55.829C304.73 56.165 304.688 56.473 304.66 56.781H308.006V57.663H304.548C304.492 57.971 304.45 58.279 304.408 58.573H307.208V65.041H308.496V65.937H299.634V65.041H300.936V58.573H303.442C303.498 58.265 303.54 57.957 303.582 57.663H300.124V56.781ZM301.888 65.041H306.256V64.131H301.888V65.041ZM301.888 63.403H306.256V62.549H301.888V63.403ZM301.888 61.821H306.256V60.967H301.888V61.821ZM301.888 60.253H306.256V59.371H301.888V60.253ZM305.626 66.133C306.592 66.637 307.488 67.239 308.328 67.939L307.712 68.639C306.872 67.897 305.962 67.253 304.996 66.707L305.626 66.133ZM302.532 66.119L303.204 66.721C302.392 67.449 301.384 68.093 300.18 68.639L299.578 67.883C300.754 67.379 301.734 66.791 302.532 66.119ZM295.714 59.175H297.282V55.801H298.248V59.175H299.69V60.127H298.248V64.495C298.724 64.327 299.2 64.145 299.662 63.949V64.943C298.486 65.419 297.212 65.811 295.854 66.133L295.602 65.167C296.162 65.055 296.722 64.929 297.282 64.789V60.127H295.714V59.175ZM313.844 60.267C313.676 60.925 313.494 61.541 313.312 62.115H320.83C320.788 65.531 320.564 67.463 320.144 67.911C319.794 68.289 319.038 68.485 317.876 68.499H316.658L316.378 67.561C316.938 67.575 317.442 67.589 317.918 67.589C318.674 67.575 319.15 67.435 319.374 67.183C319.626 66.889 319.78 65.517 319.822 63.053H312.038C312.626 61.093 313.074 59.357 313.368 57.859L314.362 57.957C314.264 58.433 314.166 58.881 314.068 59.315H319.78V60.267H313.844ZM310.036 64.733H318.436V65.699H310.036V64.733ZM321.6 56.333V59.371H320.606V57.285H311.422V59.357H310.428V56.333H321.6Z" fill="black"/>
<rect x="20" y="88.366" width="295" height="40" rx="4" fill="url(#paint0_linear_12368_4767)"/>
<path d="M117.276 102.238H121.18L121.276 101.134L122.892 101.358L122.796 102.238H126.412V103.662H122.604C122.572 103.902 122.524 104.142 122.492 104.366H125.612V111.662H126.972V113.134H123.98C125.004 113.662 125.948 114.286 126.812 114.99L125.804 116.142C124.86 115.31 123.852 114.574 122.764 113.95L123.644 113.134H120.044L120.988 113.95C120.06 114.782 118.924 115.518 117.564 116.158L116.588 114.91C117.804 114.398 118.844 113.806 119.708 113.134H116.716V112.014C115.372 112.542 113.964 112.99 112.476 113.358L112.06 111.742C112.652 111.646 113.244 111.518 113.836 111.358V106.542H112.236V104.974H113.836V101.294H115.452V104.974H116.908V106.542H115.452V110.878C115.932 110.702 116.396 110.51 116.844 110.318V111.662H118.092V104.366H120.908C120.94 104.11 120.988 103.886 121.02 103.662H117.276V102.238ZM119.66 111.662H124.044V110.974H119.66V111.662ZM119.66 109.838H124.044V109.182H119.66V109.838ZM119.66 108.062H124.044V107.422H119.66V108.062ZM119.66 106.286H124.044V105.646H119.66V106.286ZM133.212 106.702C133.052 107.278 132.892 107.822 132.732 108.334H141.244C141.18 112.366 140.924 114.638 140.476 115.15C140.028 115.662 139.068 115.934 137.612 115.934H136.268L135.788 114.382C136.46 114.414 137.1 114.43 137.676 114.43C138.412 114.43 138.892 114.286 139.148 114.014C139.372 113.726 139.516 112.334 139.564 109.87H130.636C131.34 107.534 131.868 105.486 132.204 103.71L133.852 103.87C133.756 104.318 133.676 104.734 133.58 105.134H139.868V106.702H133.212ZM128.588 111.262H138.252V112.862H128.588V111.262ZM142.108 101.758V105.518H140.46V103.326H130.54V105.502H128.892V101.758H142.108ZM144.828 113.006L144.348 111.598C144.62 111.486 144.764 111.31 144.764 111.086V102.638H146.396V111.006C147.004 110.814 147.612 110.606 148.204 110.382V101.294H149.852V107.838C151.1 106.158 151.932 103.934 152.364 101.182L154.044 101.47C153.916 102.174 153.772 102.846 153.612 103.47H158.556V105.118H157.34C157.212 107.582 156.604 109.694 155.532 111.486C156.524 112.702 157.676 113.806 158.988 114.782L157.836 116.142C156.572 115.166 155.468 114.094 154.508 112.926C153.484 114.142 152.188 115.182 150.62 116.014L149.852 114.766V115.918H148.204V111.982C147.116 112.366 145.996 112.702 144.828 113.006ZM153.1 105.118C152.94 105.534 152.78 105.934 152.62 106.318C153.116 107.662 153.74 108.91 154.476 110.03C155.212 108.622 155.644 106.974 155.756 105.118H153.1ZM151.644 108.11C151.388 108.494 151.116 108.846 150.844 109.166L149.852 107.934V114.382C151.356 113.646 152.572 112.702 153.484 111.55C152.748 110.462 152.14 109.31 151.644 108.11ZM172.492 107.39H168.956C167.82 107.39 167.26 106.878 167.26 105.854V105.662L165.628 106.142L164.748 104.814C165.644 104.59 166.476 104.35 167.26 104.094V101.31H168.892V103.518C170.524 102.878 171.852 102.19 172.908 101.438L173.964 102.542C172.524 103.518 170.828 104.366 168.892 105.102V105.534C168.892 105.822 169.052 105.982 169.388 105.982H172.172C172.428 105.982 172.604 105.918 172.732 105.806C172.876 105.678 172.972 105.31 173.02 104.702L174.524 105.182C174.412 106.27 174.188 106.894 173.868 107.086C173.564 107.278 173.1 107.39 172.492 107.39ZM172.956 107.966V113.006H171.26V109.47H164.076V113.214H162.396V107.966H172.956ZM168.828 112.83C170.876 113.358 172.732 114.014 174.412 114.798L173.468 116.238C171.692 115.326 169.868 114.606 167.98 114.078L168.828 112.83ZM166.86 109.934L168.476 110.078C168.252 112.222 167.772 113.646 167.036 114.334C166.252 115.23 164.348 115.806 161.324 116.078L160.668 114.558C163.196 114.446 164.844 114.046 165.644 113.374C166.348 112.702 166.748 111.566 166.86 109.934ZM162.636 104.926C162.076 105.294 161.468 105.646 160.812 105.998L160.3 104.366C162.188 103.47 163.58 102.398 164.492 101.182L165.868 101.838C165.452 102.478 164.908 103.102 164.268 103.678V107.534H162.636V104.926ZM177.708 107.806C177.324 108.318 176.924 108.798 176.508 109.278L175.948 107.486C177.388 105.662 178.476 103.518 179.18 101.054L180.748 101.79C180.396 102.99 179.932 104.126 179.356 105.214V116.062H177.708V107.806ZM180.38 103.086H184.972C184.764 102.574 184.54 102.094 184.3 101.614L185.9 101.182C186.22 101.87 186.46 102.51 186.62 103.086H190.924V104.654H180.38V103.086ZM181.82 105.502H189.58V106.99H181.82V105.502ZM181.82 107.758H189.58V109.262H181.82V107.758ZM189.932 110.142V116.03H188.316V115.23H183.084V116.03H181.452V110.142H189.932ZM183.084 113.646H188.316V111.694H183.084V113.646ZM194.396 102.27H197.932C198.124 101.886 198.268 101.486 198.364 101.07L200.124 101.31C200.028 101.646 199.9 101.966 199.74 102.27H204.732V110.446H194.396V102.27ZM203.116 109.038V108.11H196.012V109.038H203.116ZM196.012 106.798H203.116V105.902H196.012V106.798ZM196.012 104.59H203.116V103.694H196.012V104.59ZM193.516 111.326L195.084 111.646C194.716 113.134 194.204 114.43 193.548 115.518L192.14 114.606C192.796 113.582 193.26 112.478 193.516 111.326ZM201.596 115.79H197.532C196.412 115.79 195.852 115.246 195.852 114.19V111.31H197.548V113.822C197.548 114.142 197.692 114.318 198.012 114.318H201.276C201.532 114.318 201.724 114.222 201.852 114.062C202.012 113.886 202.108 113.342 202.156 112.446L203.756 112.974C203.612 114.35 203.372 115.166 203.036 115.422C202.716 115.662 202.236 115.79 201.596 115.79ZM199.692 110.654C200.428 111.454 201.02 112.142 201.436 112.734L200.172 113.598C199.756 112.958 199.18 112.222 198.46 111.422L199.692 110.654ZM204.78 110.974C205.708 112.222 206.412 113.31 206.924 114.238L205.58 115.166C205.068 114.158 204.364 113.038 203.468 111.79L204.78 110.974ZM219.276 105.006L223.148 108.606L219.276 112.206L218.54 111.422L220.38 109.31H207.852V107.902H220.38L218.54 105.79L219.276 105.006Z" fill="white"/>
<path d="M0 12C0 5.37258 5.37258 0 12 0H108.313C111.082 0 113.014 2.74593 112.078 5.35209L102.021 33.3521C101.451 34.9406 99.9445 36 98.2566 36H0V12Z" fill="url(#paint1_linear_12368_4767)"/>
<path d="M28.1998 11.36H35.9118V12.928H32.8718C32.8078 13.376 32.7438 13.792 32.6638 14.208H35.6078V22.032H33.9758V15.744H30.3758V22.192H28.7438V14.208H31.0318C31.1118 13.792 31.1758 13.36 31.2398 12.928H28.1998V11.36ZM33.5598 21.92C34.5838 22.8 35.4798 23.68 36.2158 24.56L35.0158 25.76C34.4078 24.896 33.5598 23.984 32.4398 22.992L33.5598 21.92ZM31.3678 16.496H32.9358V19.28C32.8718 21.024 32.5198 22.432 31.8798 23.488C31.2718 24.448 30.2638 25.2 28.8878 25.728L28.0078 24.336C29.2878 23.824 30.1678 23.2 30.6158 22.448C31.0638 21.648 31.3038 20.592 31.3678 19.28V16.496ZM24.3438 10.912H25.5918C26.6798 12.176 27.7038 13.488 28.6798 14.848L27.5758 16.032C26.5998 14.464 25.7838 13.296 25.1438 12.512C24.3118 13.984 23.3038 15.392 22.1358 16.736L21.1758 15.392C22.3278 14.128 23.3838 12.64 24.3438 10.912ZM22.1198 17.824H28.0558V19.216C27.4158 20.544 26.6958 21.76 25.8638 22.848C26.4238 23.376 26.9358 23.904 27.3998 24.432L26.2158 25.632C25.3038 24.448 24.0078 23.184 22.3438 21.824L23.4478 20.752C23.8958 21.104 24.3438 21.472 24.7758 21.84C25.2558 21.136 25.7518 20.32 26.2638 19.376H22.1198V17.824ZM25.1278 14.48C25.7838 15.376 26.2798 16.176 26.6318 16.848L25.4478 17.696C25.0798 16.944 24.5838 16.112 23.9438 15.216L25.1278 14.48ZM45.5918 20.928V22.592C45.1438 22.688 44.7118 22.8 44.2958 22.896V25.616H42.6638V23.232C41.0958 23.552 39.4638 23.824 37.7998 24.08L37.3838 22.432C37.8318 22.384 38.2638 22.336 38.6958 22.272V12.912H37.5918V11.344H45.3358V12.24H51.6398V13.76C51.3038 16.576 50.6158 19.008 49.5918 21.04C50.3118 22.24 51.2078 23.344 52.2638 24.336L51.1438 25.648C50.1998 24.672 49.3838 23.648 48.6958 22.56C47.8958 23.76 46.9518 24.784 45.8638 25.648L44.7278 24.336C45.9438 23.392 46.9678 22.256 47.7678 20.928C46.6798 18.752 46.0238 16.4 45.7998 13.84H45.1598V12.912H44.2958V21.248C44.7438 21.136 45.1758 21.024 45.5918 20.928ZM47.3358 13.84C47.4958 15.792 47.9438 17.584 48.6478 19.216C49.3358 17.632 49.8158 15.84 50.0718 13.84H47.3358ZM42.6638 21.6V19.856H40.3278V22.032C41.1278 21.904 41.8958 21.76 42.6638 21.6ZM40.3278 18.352H42.6638V16.384H40.3278V18.352ZM40.3278 14.88H42.6638V12.912H40.3278V14.88ZM53.7358 19.568H59.9438C59.9758 19.248 60.0078 18.896 60.0078 18.512H61.6398C61.6398 18.88 61.6238 19.232 61.5918 19.568H67.7518V21.2H62.0718C63.1758 22.608 65.1758 23.568 68.0718 24.096L67.3838 25.664C63.9758 24.896 61.7998 23.648 60.8718 21.888C59.7838 23.6 57.5118 24.864 54.0718 25.68L53.3678 24.128C56.4078 23.504 58.4078 22.528 59.3518 21.2H53.7358V19.568ZM57.8638 10.928H59.5598V18.432H57.8638V16.56C56.8078 17.072 55.5918 17.536 54.2158 17.952L53.5278 16.416C55.1598 15.984 56.6158 15.472 57.8638 14.896V10.928ZM54.8078 11.472C55.7678 11.92 56.6318 12.48 57.3998 13.152L56.4878 14.528C55.6558 13.792 54.7918 13.216 53.8958 12.8L54.8078 11.472ZM62.6638 10.912L64.3598 11.12C64.2318 11.424 64.1038 11.712 63.9438 11.984H67.5438V13.392C66.8558 15.792 64.6638 17.472 60.9678 18.416L60.1678 16.96C61.2558 16.704 62.2158 16.4 63.0158 16.016C62.6158 15.6 62.2318 15.232 61.8478 14.912L62.9838 14.064C63.4318 14.448 63.8638 14.864 64.2478 15.296C64.9838 14.768 65.5278 14.16 65.8798 13.488H62.8078C62.1998 14.096 61.4798 14.656 60.6638 15.152L59.6558 13.824C61.1278 13.024 62.1358 12.064 62.6638 10.912ZM72.7278 15.808H71.6238V18.832C71.5758 21.68 71.1598 23.952 70.3918 25.664L69.2238 24.624C69.7678 23.248 70.0558 21.312 70.0878 18.832V11.36H77.5278V12.864H71.6238V14.304H77.1118V15.808H74.1998V17.744H77.1278C77.0798 21.216 76.9358 23.376 76.6958 24.224C76.4398 25.056 75.8958 25.472 75.0478 25.488C74.7758 25.488 74.4718 25.456 74.1358 25.392L73.6718 24.016C74.1518 24.048 74.5518 24.08 74.8718 24.08C75.1598 24.064 75.3358 23.808 75.4318 23.312C75.5118 22.8 75.5598 21.424 75.5918 19.184H74.1838C74.0878 22.064 73.4798 24.192 72.3438 25.568L71.1758 24.56C72.1998 23.312 72.7118 21.344 72.7278 18.624V15.808ZM79.2078 10.928H80.8078V14.128H83.6078C83.6078 19.296 83.5278 22.48 83.3998 23.696C83.2398 24.88 82.5518 25.488 81.3038 25.488C81.0158 25.488 80.5038 25.456 79.7998 25.408L79.4478 24C80.0718 24.048 80.6158 24.08 81.0638 24.08C81.5598 24.08 81.8478 23.728 81.9438 23.04C82.0078 22.336 82.0398 19.872 82.0718 15.664H80.7918C80.6958 20.224 79.7838 23.584 78.0558 25.728L76.8718 24.672C78.3438 22.768 79.1278 19.76 79.2078 15.664H77.5598V14.128H79.2078V10.928Z" fill="white"/>
<defs>
<linearGradient id="paint0_linear_12368_4767" x1="12.8494" y1="103.734" x2="301.38" y2="103.734" gradientUnits="userSpaceOnUse">
<stop stop-color="#FA966E"/>
<stop offset="1" stop-color="#FF5D5E"/>
</linearGradient>
<linearGradient id="paint1_linear_12368_4767" x1="-2.76329" y1="13.8308" x2="108.737" y2="13.8308" gradientUnits="userSpaceOnUse">
<stop stop-color="#FA966E"/>
<stop offset="1" stop-color="#FF5D5E"/>
</linearGradient>
</defs>
</svg>
