<svg width="335" height="208" viewBox="0 0 335 208" fill="none" xmlns="http://www.w3.org/2000/svg">
<rect y="12" width="335" height="195.918" rx="12" fill="white"/>
<path d="M25.9149 55.991C27.0349 55.991 27.9309 56.243 28.5749 56.761C29.2469 57.293 29.6249 58.091 29.7229 59.141H28.5889C28.4629 58.413 28.1829 57.881 27.7489 57.531C27.3009 57.167 26.6709 56.999 25.8589 56.999C25.1169 56.999 24.5429 57.111 24.1229 57.363C23.6469 57.643 23.4089 58.063 23.4089 58.637C23.4089 59.141 23.6889 59.547 24.2629 59.855C24.5149 59.995 25.1309 60.205 26.0969 60.485C27.4129 60.877 28.2809 61.199 28.7009 61.451C29.5269 61.955 29.9469 62.655 29.9469 63.565C29.9469 64.433 29.5969 65.133 28.8969 65.637C28.1969 66.127 27.2589 66.379 26.0689 66.379C24.8929 66.379 23.9689 66.127 23.2969 65.623C22.5129 65.021 22.0789 64.111 21.9949 62.879H23.1289C23.2269 63.747 23.5349 64.391 24.0389 64.797C24.5009 65.161 25.1729 65.357 26.0689 65.357C26.8809 65.357 27.5529 65.203 28.0569 64.895C28.5609 64.587 28.8129 64.167 28.8129 63.635C28.8129 63.005 28.4769 62.515 27.8189 62.165C27.5389 61.997 26.8249 61.759 25.7049 61.437C24.5009 61.073 23.7309 60.793 23.4089 60.625C22.6389 60.177 22.2609 59.533 22.2609 58.693C22.2609 57.825 22.6249 57.139 23.3669 56.663C24.0249 56.215 24.8789 55.991 25.9149 55.991ZM31.2606 58.945H32.3806V63.369C32.3806 64.055 32.5206 64.573 32.8146 64.909C33.1086 65.245 33.5846 65.427 34.2426 65.427C34.7186 65.427 35.1526 65.231 35.5306 64.867C35.9226 64.475 36.1606 63.971 36.2446 63.355V58.945H37.3646V66.183H36.2446V65.063C35.6566 65.931 34.8726 66.379 33.8926 66.379C32.1286 66.379 31.2606 65.385 31.2606 63.425V58.945ZM39.0946 55.991H40.2146V60.275C40.7746 59.253 41.5726 58.749 42.6086 58.749C43.6306 58.749 44.4426 59.127 45.0306 59.911C45.5626 60.611 45.8426 61.479 45.8426 62.543C45.8426 63.635 45.5626 64.531 45.0306 65.231C44.4286 65.987 43.6026 66.379 42.5526 66.379C41.4326 66.379 40.6346 65.917 40.1446 64.993V66.183H39.0946V55.991ZM42.3706 59.673C41.7126 59.673 41.1806 59.925 40.7886 60.457C40.3686 60.975 40.1726 61.661 40.1726 62.501V62.641C40.1726 63.453 40.3546 64.111 40.7186 64.615C41.1106 65.175 41.6846 65.455 42.4126 65.455C43.1966 65.455 43.7846 65.161 44.1766 64.601C44.5126 64.097 44.6946 63.411 44.6946 62.543C44.6946 61.675 44.5126 61.003 44.1486 60.513C43.7426 59.953 43.1546 59.673 42.3706 59.673ZM50.4617 58.749C51.5677 58.749 52.3237 59.197 52.7297 60.121C53.0097 59.645 53.3457 59.295 53.7377 59.085C54.0877 58.861 54.5077 58.749 55.0117 58.749C55.7677 58.749 56.3697 58.987 56.8457 59.463C57.2937 59.953 57.5317 60.611 57.5317 61.437V66.183H56.4117V61.619C56.4117 60.975 56.2717 60.499 56.0057 60.191C55.7257 59.855 55.2777 59.701 54.6617 59.701C54.1857 59.701 53.7797 59.869 53.4717 60.233C53.1357 60.597 52.9817 61.059 52.9817 61.647V66.183H51.8617V61.619C51.8617 60.331 51.3017 59.701 50.1957 59.701C49.6777 59.701 49.2577 59.897 48.9217 60.317C48.5857 60.709 48.4177 61.199 48.4177 61.773V66.183H47.2977V58.945H48.4177V59.911C48.9637 59.127 49.6497 58.749 50.4617 58.749ZM60.1983 56.215C60.4363 56.215 60.6323 56.285 60.8003 56.453C60.9683 56.593 61.0523 56.789 61.0523 57.041C61.0523 57.279 60.9683 57.475 60.8003 57.643C60.6323 57.797 60.4363 57.881 60.1983 57.881C59.9603 57.881 59.7643 57.797 59.5963 57.643C59.4283 57.475 59.3583 57.279 59.3583 57.041C59.3583 56.789 59.4283 56.593 59.5963 56.453C59.7643 56.285 59.9603 56.215 60.1983 56.215ZM59.6383 58.945H60.7583V66.183H59.6383V58.945ZM64.7883 56.607V58.945H66.5803V59.883H64.7883V64.489C64.7883 64.755 64.8303 64.951 64.9423 65.063C65.0403 65.175 65.2223 65.245 65.4743 65.245H66.3983V66.183H65.3063C64.7183 66.183 64.2843 66.029 64.0323 65.721C63.7943 65.441 63.6823 65.035 63.6823 64.489V59.883H62.2263V58.945H63.6823V57.069L64.7883 56.607ZM71.697 58.945H72.915L75.127 64.657L77.269 58.945H78.501L74.539 68.955H73.321L74.567 66.015L71.697 58.945ZM82.6743 58.749C83.7523 58.749 84.6203 59.113 85.2643 59.869C85.8803 60.583 86.1883 61.479 86.1883 62.571C86.1883 63.649 85.8803 64.545 85.2783 65.245C84.6203 66.001 83.7523 66.379 82.6743 66.379C81.5823 66.379 80.7283 66.001 80.0843 65.245C79.4683 64.545 79.1603 63.649 79.1603 62.571C79.1603 61.479 79.4683 60.583 80.0843 59.869C80.7283 59.113 81.5823 58.749 82.6743 58.749ZM82.6743 59.687C81.9043 59.687 81.3023 59.981 80.8823 60.569C80.4903 61.101 80.3083 61.759 80.3083 62.571C80.3083 63.369 80.4903 64.027 80.8823 64.559C81.3023 65.147 81.9043 65.441 82.6743 65.441C83.4303 65.441 84.0323 65.147 84.4803 64.559C84.8583 64.027 85.0543 63.355 85.0543 62.571C85.0543 61.759 84.8583 61.101 84.4803 60.569C84.0323 59.981 83.4303 59.687 82.6743 59.687ZM87.6434 58.945H88.7634V63.369C88.7634 64.055 88.9034 64.573 89.1974 64.909C89.4914 65.245 89.9674 65.427 90.6254 65.427C91.1014 65.427 91.5354 65.231 91.9134 64.867C92.3054 64.475 92.5434 63.971 92.6274 63.355V58.945H93.7474V66.183H92.6274V65.063C92.0394 65.931 91.2554 66.379 90.2754 66.379C88.5114 66.379 87.6434 65.385 87.6434 63.425V58.945ZM98.6554 58.749C99.0474 58.749 99.3834 58.805 99.6494 58.917V60.037C99.2854 59.925 98.9214 59.883 98.5714 59.883C98.0114 59.883 97.5354 60.121 97.1574 60.625C96.7654 61.101 96.5834 61.675 96.5834 62.347V66.183H95.4774V58.945H96.5834V60.205C96.7794 59.785 97.0314 59.449 97.3394 59.211C97.7174 58.903 98.1514 58.749 98.6554 58.749ZM104.455 56.187H105.743L107.941 64.573H107.997L110.279 56.187H111.525L113.793 64.573H113.849L116.047 56.187H117.335L114.465 66.183H113.191L110.923 57.853H110.881L108.599 66.183H107.325L104.455 56.187ZM121.25 58.749C122.412 58.749 123.294 59.141 123.882 59.925C124.414 60.625 124.694 61.619 124.722 62.879H119.01C119.066 63.691 119.276 64.321 119.668 64.769C120.06 65.217 120.606 65.441 121.292 65.441C121.88 65.441 122.37 65.287 122.734 64.993C123.042 64.741 123.28 64.363 123.462 63.859H124.582C124.414 64.559 124.092 65.119 123.602 65.567C123 66.099 122.23 66.379 121.292 66.379C120.256 66.379 119.416 66.029 118.8 65.357C118.156 64.657 117.848 63.733 117.848 62.557C117.848 61.493 118.142 60.597 118.758 59.883C119.374 59.127 120.2 58.749 121.25 58.749ZM121.278 59.687C120.634 59.687 120.116 59.897 119.724 60.317C119.332 60.737 119.108 61.297 119.038 62.011H123.56C123.42 60.457 122.65 59.687 121.278 59.687ZM126.034 55.991H127.154V60.275C127.714 59.253 128.512 58.749 129.548 58.749C130.57 58.749 131.382 59.127 131.97 59.911C132.502 60.611 132.782 61.479 132.782 62.543C132.782 63.635 132.502 64.531 131.97 65.231C131.368 65.987 130.542 66.379 129.492 66.379C128.372 66.379 127.574 65.917 127.084 64.993V66.183H126.034V55.991ZM129.31 59.673C128.652 59.673 128.12 59.925 127.728 60.457C127.308 60.975 127.112 61.661 127.112 62.501V62.641C127.112 63.453 127.294 64.111 127.658 64.615C128.05 65.175 128.624 65.455 129.352 65.455C130.136 65.455 130.724 65.161 131.116 64.601C131.452 64.097 131.634 63.411 131.634 62.543C131.634 61.675 131.452 61.003 131.088 60.513C130.682 59.953 130.094 59.673 129.31 59.673ZM134.237 55.991H135.357V62.305L138.983 58.945H140.467L137.275 61.857L140.775 66.183H139.333L136.505 62.585L135.357 63.621V66.183H134.237V55.991ZM144.629 58.749C145.791 58.749 146.673 59.141 147.261 59.925C147.793 60.625 148.073 61.619 148.101 62.879H142.389C142.445 63.691 142.655 64.321 143.047 64.769C143.439 65.217 143.985 65.441 144.671 65.441C145.259 65.441 145.749 65.287 146.113 64.993C146.421 64.741 146.659 64.363 146.841 63.859H147.961C147.793 64.559 147.471 65.119 146.981 65.567C146.379 66.099 145.609 66.379 144.671 66.379C143.635 66.379 142.795 66.029 142.179 65.357C141.535 64.657 141.227 63.733 141.227 62.557C141.227 61.493 141.521 60.597 142.137 59.883C142.753 59.127 143.579 58.749 144.629 58.749ZM144.657 59.687C144.013 59.687 143.495 59.897 143.103 60.317C142.711 60.737 142.487 61.297 142.417 62.011H146.939C146.799 60.457 146.029 59.687 144.657 59.687ZM148.615 58.945H149.833L152.045 64.657L154.187 58.945H155.419L151.457 68.955H150.239L151.485 66.015L148.615 58.945ZM164.478 58.749C165.514 58.749 166.34 59.127 166.942 59.911C167.488 60.611 167.768 61.493 167.768 62.585C167.768 63.649 167.488 64.531 166.956 65.231C166.368 65.987 165.57 66.379 164.534 66.379C163.498 66.379 162.7 65.875 162.14 64.867V68.955H161.02V58.945H162.07V60.135C162.588 59.211 163.386 58.749 164.478 58.749ZM164.338 59.673C163.61 59.673 163.036 59.953 162.644 60.527C162.28 61.031 162.098 61.703 162.098 62.515V62.655C162.098 63.495 162.294 64.167 162.714 64.685C163.106 65.189 163.624 65.455 164.296 65.455C165.08 65.455 165.668 65.175 166.074 64.643C166.438 64.139 166.62 63.453 166.62 62.585C166.62 61.731 166.438 61.045 166.102 60.541C165.696 59.953 165.108 59.673 164.338 59.673ZM169.223 55.991H170.343V60.135C170.595 59.673 170.931 59.323 171.351 59.085C171.743 58.861 172.177 58.749 172.667 58.749C173.507 58.749 174.165 58.987 174.613 59.491C175.061 59.981 175.285 60.695 175.285 61.619V66.183H174.165V61.787C174.165 61.115 173.997 60.597 173.689 60.233C173.353 59.869 172.891 59.687 172.289 59.687C171.729 59.687 171.267 59.911 170.903 60.359C170.525 60.807 170.343 61.381 170.343 62.053V66.183H169.223V55.991ZM180.237 58.749C181.315 58.749 182.183 59.113 182.827 59.869C183.443 60.583 183.751 61.479 183.751 62.571C183.751 63.649 183.443 64.545 182.841 65.245C182.183 66.001 181.315 66.379 180.237 66.379C179.145 66.379 178.291 66.001 177.647 65.245C177.031 64.545 176.723 63.649 176.723 62.571C176.723 61.479 177.031 60.583 177.647 59.869C178.291 59.113 179.145 58.749 180.237 58.749ZM180.237 59.687C179.467 59.687 178.865 59.981 178.445 60.569C178.053 61.101 177.871 61.759 177.871 62.571C177.871 63.369 178.053 64.027 178.445 64.559C178.865 65.147 179.467 65.441 180.237 65.441C180.993 65.441 181.595 65.147 182.043 64.559C182.421 64.027 182.617 63.355 182.617 62.571C182.617 61.759 182.421 61.101 182.043 60.569C181.595 59.981 180.993 59.687 180.237 59.687ZM188.594 58.749C190.386 58.749 191.296 59.743 191.296 61.731V66.183H190.176V61.815C190.176 60.401 189.532 59.701 188.272 59.701C187.768 59.701 187.334 59.883 186.97 60.247C186.578 60.639 186.368 61.157 186.326 61.815V66.183H185.206V58.945H186.326V60.009C186.578 59.603 186.9 59.295 187.292 59.085C187.684 58.861 188.118 58.749 188.594 58.749ZM196.008 58.749C197.17 58.749 198.052 59.141 198.64 59.925C199.172 60.625 199.452 61.619 199.48 62.879H193.768C193.824 63.691 194.034 64.321 194.426 64.769C194.818 65.217 195.364 65.441 196.05 65.441C196.638 65.441 197.128 65.287 197.492 64.993C197.8 64.741 198.038 64.363 198.22 63.859H199.34C199.172 64.559 198.85 65.119 198.36 65.567C197.758 66.099 196.988 66.379 196.05 66.379C195.014 66.379 194.174 66.029 193.558 65.357C192.914 64.657 192.606 63.733 192.606 62.557C192.606 61.493 192.9 60.597 193.516 59.883C194.132 59.127 194.958 58.749 196.008 58.749ZM196.036 59.687C195.392 59.687 194.874 59.897 194.482 60.317C194.09 60.737 193.866 61.297 193.796 62.011H198.318C198.178 60.457 197.408 59.687 196.036 59.687ZM208.016 58.749C209.808 58.749 210.788 59.491 210.984 61.003H209.892C209.794 60.555 209.612 60.219 209.332 60.023C209.024 59.799 208.576 59.687 208.002 59.687C207.498 59.687 207.106 59.771 206.826 59.967C206.518 60.149 206.364 60.401 206.364 60.723C206.364 61.031 206.56 61.297 206.98 61.507C207.246 61.633 207.75 61.787 208.478 61.983C209.346 62.193 209.962 62.417 210.34 62.655C210.914 63.019 211.208 63.509 211.208 64.139C211.208 65.623 210.186 66.379 208.142 66.379C206.238 66.379 205.202 65.539 205.034 63.873H206.126C206.21 64.447 206.42 64.853 206.728 65.105C207.036 65.329 207.498 65.441 208.114 65.441C209.402 65.441 210.06 65.021 210.06 64.209C210.06 63.803 209.822 63.495 209.374 63.271C209.136 63.159 208.618 63.005 207.834 62.809C206.98 62.599 206.378 62.389 206.042 62.165C205.482 61.829 205.216 61.367 205.216 60.751C205.216 60.135 205.482 59.659 206.028 59.295C206.532 58.931 207.204 58.749 208.016 58.749ZM212.522 55.991H213.642V60.135C213.894 59.673 214.23 59.323 214.65 59.085C215.042 58.861 215.476 58.749 215.966 58.749C216.806 58.749 217.464 58.987 217.912 59.491C218.36 59.981 218.584 60.695 218.584 61.619V66.183H217.464V61.787C217.464 61.115 217.296 60.597 216.988 60.233C216.652 59.869 216.19 59.687 215.588 59.687C215.028 59.687 214.566 59.911 214.202 60.359C213.824 60.807 213.642 61.381 213.642 62.053V66.183H212.522V55.991ZM221.226 56.215C221.464 56.215 221.66 56.285 221.828 56.453C221.996 56.593 222.08 56.789 222.08 57.041C222.08 57.279 221.996 57.475 221.828 57.643C221.66 57.797 221.464 57.881 221.226 57.881C220.988 57.881 220.792 57.797 220.624 57.643C220.456 57.475 220.386 57.279 220.386 57.041C220.386 56.789 220.456 56.593 220.624 56.453C220.792 56.285 220.988 56.215 221.226 56.215ZM220.666 58.945H221.786V66.183H220.666V58.945ZM227.342 58.749C228.378 58.749 229.204 59.127 229.806 59.911C230.352 60.611 230.632 61.493 230.632 62.585C230.632 63.649 230.352 64.531 229.82 65.231C229.232 65.987 228.434 66.379 227.398 66.379C226.362 66.379 225.564 65.875 225.004 64.867V68.955H223.884V58.945H224.934V60.135C225.452 59.211 226.25 58.749 227.342 58.749ZM227.202 59.673C226.474 59.673 225.9 59.953 225.508 60.527C225.144 61.031 224.962 61.703 224.962 62.515V62.655C224.962 63.495 225.158 64.167 225.578 64.685C225.97 65.189 226.488 65.455 227.16 65.455C227.944 65.455 228.532 65.175 228.938 64.643C229.302 64.139 229.484 63.453 229.484 62.585C229.484 61.731 229.302 61.045 228.966 60.541C228.56 59.953 227.972 59.673 227.202 59.673ZM235.545 58.749C236.581 58.749 237.407 59.127 238.009 59.911C238.555 60.611 238.835 61.493 238.835 62.585C238.835 63.649 238.555 64.531 238.023 65.231C237.435 65.987 236.637 66.379 235.601 66.379C234.565 66.379 233.767 65.875 233.207 64.867V68.955H232.087V58.945H233.137V60.135C233.655 59.211 234.453 58.749 235.545 58.749ZM235.405 59.673C234.677 59.673 234.103 59.953 233.711 60.527C233.347 61.031 233.165 61.703 233.165 62.515V62.655C233.165 63.495 233.361 64.167 233.781 64.685C234.173 65.189 234.691 65.455 235.363 65.455C236.147 65.455 236.735 65.175 237.141 64.643C237.505 64.139 237.687 63.453 237.687 62.585C237.687 61.731 237.505 61.045 237.169 60.541C236.763 59.953 236.175 59.673 235.405 59.673ZM241.214 56.215C241.452 56.215 241.648 56.285 241.816 56.453C241.984 56.593 242.068 56.789 242.068 57.041C242.068 57.279 241.984 57.475 241.816 57.643C241.648 57.797 241.452 57.881 241.214 57.881C240.976 57.881 240.78 57.797 240.612 57.643C240.444 57.475 240.374 57.279 240.374 57.041C240.374 56.789 240.444 56.593 240.612 56.453C240.78 56.285 240.976 56.215 241.214 56.215ZM240.654 58.945H241.774V66.183H240.654V58.945ZM247.26 58.749C249.052 58.749 249.962 59.743 249.962 61.731V66.183H248.842V61.815C248.842 60.401 248.198 59.701 246.938 59.701C246.434 59.701 246 59.883 245.636 60.247C245.244 60.639 245.034 61.157 244.992 61.815V66.183H243.872V58.945H244.992V60.009C245.244 59.603 245.566 59.295 245.958 59.085C246.35 58.861 246.784 58.749 247.26 58.749ZM254.674 58.749C255.766 58.749 256.578 59.225 257.11 60.191V58.945H258.23V65.679C258.23 67.989 257.124 69.151 254.926 69.151C253.946 69.151 253.19 68.955 252.686 68.563C252.168 68.171 251.846 67.583 251.72 66.799H252.84C252.924 67.289 253.134 67.653 253.456 67.877C253.778 68.115 254.268 68.241 254.926 68.241C256.382 68.241 257.11 67.429 257.11 65.833V64.559C256.578 65.525 255.766 66.015 254.674 66.015C253.666 66.015 252.868 65.665 252.28 64.979C251.692 64.307 251.412 63.453 251.412 62.403C251.412 61.339 251.692 60.485 252.28 59.813C252.868 59.099 253.666 58.749 254.674 58.749ZM254.842 59.673C254.114 59.673 253.554 59.925 253.148 60.457C252.756 60.933 252.56 61.591 252.56 62.403C252.56 63.159 252.728 63.789 253.078 64.265C253.47 64.797 254.044 65.077 254.828 65.077C255.556 65.077 256.116 64.825 256.536 64.321C256.928 63.831 257.124 63.187 257.124 62.403C257.124 61.591 256.928 60.933 256.536 60.457C256.116 59.925 255.556 59.673 254.842 59.673ZM267.776 58.749C268.812 58.749 269.568 59.015 270.072 59.561C270.492 60.037 270.716 60.695 270.716 61.535V66.183H269.666V64.965C269.386 65.357 269.008 65.679 268.56 65.931C268.028 66.225 267.426 66.379 266.754 66.379C266.026 66.379 265.452 66.197 265.018 65.833C264.57 65.455 264.346 64.965 264.346 64.377C264.346 63.551 264.668 62.935 265.34 62.515C265.928 62.123 266.768 61.913 267.86 61.899L269.596 61.871V61.493C269.596 60.275 268.966 59.673 267.706 59.673C267.174 59.673 266.74 59.771 266.404 59.995C266.026 60.219 265.788 60.569 265.676 61.031L264.57 60.947C264.724 60.191 265.102 59.617 265.69 59.253C266.222 58.917 266.908 58.749 267.776 58.749ZM269.596 62.711L267.93 62.739C266.306 62.767 265.494 63.299 265.494 64.349C265.494 64.685 265.62 64.951 265.9 65.175C266.18 65.385 266.544 65.497 266.992 65.497C267.678 65.497 268.28 65.273 268.812 64.825C269.33 64.391 269.596 63.887 269.596 63.327V62.711ZM277.794 55.991H278.914V66.183H277.864V64.993C277.36 65.917 276.548 66.379 275.456 66.379C274.392 66.379 273.566 65.987 272.978 65.231C272.432 64.531 272.166 63.635 272.166 62.543C272.166 61.479 272.432 60.611 272.978 59.911C273.566 59.127 274.364 58.749 275.4 58.749C276.436 58.749 277.234 59.253 277.794 60.275V55.991ZM275.638 59.673C274.84 59.673 274.238 59.953 273.846 60.513C273.482 61.003 273.314 61.675 273.314 62.543C273.314 63.411 273.482 64.097 273.832 64.601C274.224 65.161 274.812 65.455 275.596 65.455C276.324 65.455 276.884 65.175 277.29 64.615C277.64 64.111 277.822 63.453 277.822 62.641V62.501C277.822 61.661 277.612 60.975 277.22 60.457C276.814 59.925 276.282 59.673 275.638 59.673ZM285.997 55.991H287.117V66.183H286.067V64.993C285.563 65.917 284.751 66.379 283.659 66.379C282.595 66.379 281.769 65.987 281.181 65.231C280.635 64.531 280.369 63.635 280.369 62.543C280.369 61.479 280.635 60.611 281.181 59.911C281.769 59.127 282.567 58.749 283.603 58.749C284.639 58.749 285.437 59.253 285.997 60.275V55.991ZM283.841 59.673C283.043 59.673 282.441 59.953 282.049 60.513C281.685 61.003 281.517 61.675 281.517 62.543C281.517 63.411 281.685 64.097 282.035 64.601C282.427 65.161 283.015 65.455 283.799 65.455C284.527 65.455 285.087 65.175 285.493 64.615C285.843 64.111 286.025 63.453 286.025 62.641V62.501C286.025 61.661 285.815 60.975 285.423 60.457C285.017 59.925 284.485 59.673 283.841 59.673ZM292.03 58.749C292.422 58.749 292.758 58.805 293.024 58.917V60.037C292.66 59.925 292.296 59.883 291.946 59.883C291.386 59.883 290.91 60.121 290.532 60.625C290.14 61.101 289.958 61.675 289.958 62.347V66.183H288.852V58.945H289.958V60.205C290.154 59.785 290.406 59.449 290.714 59.211C291.092 58.903 291.526 58.749 292.03 58.749ZM296.948 58.749C298.11 58.749 298.992 59.141 299.58 59.925C300.112 60.625 300.392 61.619 300.42 62.879H294.708C294.764 63.691 294.974 64.321 295.366 64.769C295.758 65.217 296.304 65.441 296.99 65.441C297.578 65.441 298.068 65.287 298.432 64.993C298.74 64.741 298.978 64.363 299.16 63.859H300.28C300.112 64.559 299.79 65.119 299.3 65.567C298.698 66.099 297.928 66.379 296.99 66.379C295.954 66.379 295.114 66.029 294.498 65.357C293.854 64.657 293.546 63.733 293.546 62.557C293.546 61.493 293.84 60.597 294.456 59.883C295.072 59.127 295.898 58.749 296.948 58.749ZM296.976 59.687C296.332 59.687 295.814 59.897 295.422 60.317C295.03 60.737 294.806 61.297 294.736 62.011H299.258C299.118 60.457 298.348 59.687 296.976 59.687ZM304.293 58.749C306.085 58.749 307.065 59.491 307.261 61.003H306.169C306.071 60.555 305.889 60.219 305.609 60.023C305.301 59.799 304.853 59.687 304.279 59.687C303.775 59.687 303.383 59.771 303.103 59.967C302.795 60.149 302.641 60.401 302.641 60.723C302.641 61.031 302.837 61.297 303.257 61.507C303.523 61.633 304.027 61.787 304.755 61.983C305.623 62.193 306.239 62.417 306.617 62.655C307.191 63.019 307.485 63.509 307.485 64.139C307.485 65.623 306.463 66.379 304.419 66.379C302.515 66.379 301.479 65.539 301.311 63.873H302.403C302.487 64.447 302.697 64.853 303.005 65.105C303.313 65.329 303.775 65.441 304.391 65.441C305.679 65.441 306.337 65.021 306.337 64.209C306.337 63.803 306.099 63.495 305.651 63.271C305.413 63.159 304.895 63.005 304.111 62.809C303.257 62.599 302.655 62.389 302.319 62.165C301.759 61.829 301.493 61.367 301.493 60.751C301.493 60.135 301.759 59.659 302.305 59.295C302.809 58.931 303.481 58.749 304.293 58.749ZM311.362 58.749C313.154 58.749 314.134 59.491 314.33 61.003H313.238C313.14 60.555 312.958 60.219 312.678 60.023C312.37 59.799 311.922 59.687 311.348 59.687C310.844 59.687 310.452 59.771 310.172 59.967C309.864 60.149 309.71 60.401 309.71 60.723C309.71 61.031 309.906 61.297 310.326 61.507C310.592 61.633 311.096 61.787 311.824 61.983C312.692 62.193 313.308 62.417 313.686 62.655C314.26 63.019 314.554 63.509 314.554 64.139C314.554 65.623 313.532 66.379 311.488 66.379C309.584 66.379 308.548 65.539 308.38 63.873H309.472C309.556 64.447 309.766 64.853 310.074 65.105C310.382 65.329 310.844 65.441 311.46 65.441C312.748 65.441 313.406 65.021 313.406 64.209C313.406 63.803 313.168 63.495 312.72 63.271C312.482 63.159 311.964 63.005 311.18 62.809C310.326 62.599 309.724 62.389 309.388 62.165C308.828 61.829 308.562 61.367 308.562 60.751C308.562 60.135 308.828 59.659 309.374 59.295C309.878 58.931 310.55 58.749 311.362 58.749ZM317.604 64.517C317.912 64.517 318.178 64.643 318.374 64.909C318.556 65.161 318.654 65.483 318.654 65.889C318.654 66.505 318.472 67.051 318.108 67.527C317.744 67.975 317.254 68.283 316.666 68.437V67.751C317.03 67.625 317.324 67.415 317.548 67.135C317.744 66.841 317.856 66.533 317.856 66.197C317.8 66.225 317.688 66.253 317.548 66.253C317.31 66.253 317.114 66.169 316.946 66.001C316.778 65.833 316.694 65.623 316.694 65.385C316.694 65.119 316.778 64.909 316.946 64.755C317.114 64.587 317.324 64.517 317.604 64.517ZM26.9229 80.991C28.4069 80.991 29.5969 81.481 30.4649 82.489C31.2769 83.441 31.6969 84.673 31.6969 86.199C31.6969 87.711 31.2769 88.929 30.4649 89.881C29.5969 90.875 28.4069 91.379 26.9089 91.379C25.4109 91.379 24.2349 90.875 23.3669 89.881C22.5409 88.929 22.1349 87.697 22.1349 86.199C22.1349 84.687 22.5409 83.455 23.3669 82.503C24.2349 81.495 25.4109 80.991 26.9229 80.991ZM26.9229 82.013C25.7749 82.013 24.8649 82.405 24.2069 83.203C23.5909 83.959 23.2829 84.953 23.2829 86.199C23.2829 87.431 23.5909 88.425 24.2069 89.181C24.8509 89.965 25.7609 90.357 26.9089 90.357C28.0569 90.357 28.9669 89.965 29.6109 89.209C30.2269 88.453 30.5489 87.459 30.5489 86.199C30.5489 84.925 30.2269 83.917 29.6109 83.161C28.9669 82.391 28.0709 82.013 26.9229 82.013ZM36.5353 83.749C38.3273 83.749 39.2373 84.743 39.2373 86.731V91.183H38.1173V86.815C38.1173 85.401 37.4733 84.701 36.2133 84.701C35.7093 84.701 35.2753 84.883 34.9113 85.247C34.5193 85.639 34.3093 86.157 34.2673 86.815V91.183H33.1473V83.945H34.2673V85.009C34.5193 84.603 34.8413 84.295 35.2333 84.085C35.6253 83.861 36.0593 83.749 36.5353 83.749ZM41.1916 80.991H42.2976V91.183H41.1916V80.991ZM43.4645 83.945H44.6825L46.8945 89.657L49.0365 83.945H50.2685L46.3065 93.955H45.0885L46.3345 91.015L43.4645 83.945ZM57.802 81.607V83.945H59.594V84.883H57.802V89.489C57.802 89.755 57.844 89.951 57.956 90.063C58.054 90.175 58.236 90.245 58.488 90.245H59.412V91.183H58.32C57.732 91.183 57.298 91.029 57.046 90.721C56.808 90.441 56.696 90.035 56.696 89.489V84.883H55.24V83.945H56.696V82.069L57.802 81.607ZM60.8465 80.991H61.9665V85.135C62.2185 84.673 62.5545 84.323 62.9745 84.085C63.3665 83.861 63.8005 83.749 64.2905 83.749C65.1305 83.749 65.7885 83.987 66.2365 84.491C66.6845 84.981 66.9085 85.695 66.9085 86.619V91.183H65.7885V86.787C65.7885 86.115 65.6205 85.597 65.3125 85.233C64.9765 84.869 64.5145 84.687 63.9125 84.687C63.3525 84.687 62.8905 84.911 62.5265 85.359C62.1485 85.807 61.9665 86.381 61.9665 87.053V91.183H60.8465V80.991ZM71.6078 83.749C72.7698 83.749 73.6518 84.141 74.2398 84.925C74.7718 85.625 75.0518 86.619 75.0798 87.879H69.3678C69.4238 88.691 69.6338 89.321 70.0258 89.769C70.4178 90.217 70.9638 90.441 71.6498 90.441C72.2378 90.441 72.7278 90.287 73.0918 89.993C73.3998 89.741 73.6378 89.363 73.8198 88.859H74.9398C74.7718 89.559 74.4498 90.119 73.9598 90.567C73.3578 91.099 72.5878 91.379 71.6498 91.379C70.6138 91.379 69.7738 91.029 69.1578 90.357C68.5138 89.657 68.2058 88.733 68.2058 87.557C68.2058 86.493 68.4998 85.597 69.1158 84.883C69.7318 84.127 70.5578 83.749 71.6078 83.749ZM71.6358 84.687C70.9918 84.687 70.4738 84.897 70.0818 85.317C69.6898 85.737 69.4658 86.297 69.3958 87.011H73.9178C73.7778 85.457 73.0078 84.687 71.6358 84.687ZM82.9855 81.607V83.945H84.7775V84.883H82.9855V89.489C82.9855 89.755 83.0275 89.951 83.1395 90.063C83.2375 90.175 83.4195 90.245 83.6715 90.245H84.5955V91.183H83.5035C82.9155 91.183 82.4815 91.029 82.2295 90.721C81.9915 90.441 81.8795 90.035 81.8795 89.489V84.883H80.4235V83.945H81.8795V82.069L82.9855 81.607ZM89.2641 83.749C90.3421 83.749 91.2101 84.113 91.8541 84.869C92.4701 85.583 92.7781 86.479 92.7781 87.571C92.7781 88.649 92.4701 89.545 91.8681 90.245C91.2101 91.001 90.3421 91.379 89.2641 91.379C88.1721 91.379 87.3181 91.001 86.6741 90.245C86.0581 89.545 85.7501 88.649 85.7501 87.571C85.7501 86.479 86.0581 85.583 86.6741 84.869C87.3181 84.113 88.1721 83.749 89.2641 83.749ZM89.2641 84.687C88.4941 84.687 87.8921 84.981 87.4721 85.569C87.0801 86.101 86.8981 86.759 86.8981 87.571C86.8981 88.369 87.0801 89.027 87.4721 89.559C87.8921 90.147 88.4941 90.441 89.2641 90.441C90.0201 90.441 90.6221 90.147 91.0701 89.559C91.4481 89.027 91.6441 88.355 91.6441 87.571C91.6441 86.759 91.4481 86.101 91.0701 85.569C90.6221 84.981 90.0201 84.687 89.2641 84.687ZM97.6912 83.749C98.7272 83.749 99.5532 84.127 100.155 84.911C100.701 85.611 100.981 86.493 100.981 87.585C100.981 88.649 100.701 89.531 100.169 90.231C99.5812 90.987 98.7832 91.379 97.7472 91.379C96.7112 91.379 95.9132 90.875 95.3532 89.867V93.955H94.2332V83.945H95.2832V85.135C95.8012 84.211 96.5992 83.749 97.6912 83.749ZM97.5512 84.673C96.8232 84.673 96.2492 84.953 95.8572 85.527C95.4932 86.031 95.3112 86.703 95.3112 87.515V87.655C95.3112 88.495 95.5072 89.167 95.9272 89.685C96.3192 90.189 96.8372 90.455 97.5092 90.455C98.2932 90.455 98.8812 90.175 99.2872 89.643C99.6512 89.139 99.8332 88.453 99.8332 87.585C99.8332 86.731 99.6512 86.045 99.3152 85.541C98.9092 84.953 98.3212 84.673 97.5512 84.673ZM109.45 81.187H110.346V91.183H109.198V82.587C108.568 83.231 107.784 83.679 106.846 83.959V82.811C107.294 82.685 107.77 82.489 108.246 82.209C108.722 81.901 109.114 81.565 109.45 81.187ZM116.05 80.991C117.24 80.991 118.136 81.509 118.752 82.573C119.284 83.469 119.55 84.673 119.55 86.185C119.55 87.697 119.284 88.901 118.752 89.797C118.136 90.847 117.24 91.379 116.05 91.379C114.846 91.379 113.95 90.847 113.348 89.797C112.816 88.901 112.55 87.697 112.55 86.185C112.55 84.673 112.816 83.469 113.348 82.573C113.95 81.509 114.846 80.991 116.05 80.991ZM116.05 81.971C115.154 81.971 114.51 82.447 114.118 83.413C113.838 84.085 113.698 85.009 113.698 86.185C113.698 87.347 113.838 88.271 114.118 88.957C114.51 89.909 115.154 90.399 116.05 90.399C116.946 90.399 117.59 89.909 117.982 88.957C118.262 88.271 118.416 87.347 118.416 86.185C118.416 85.009 118.262 84.085 117.982 83.413C117.59 82.447 116.946 81.971 116.05 81.971ZM124.444 80.991C125.634 80.991 126.53 81.509 127.146 82.573C127.678 83.469 127.944 84.673 127.944 86.185C127.944 87.697 127.678 88.901 127.146 89.797C126.53 90.847 125.634 91.379 124.444 91.379C123.24 91.379 122.344 90.847 121.742 89.797C121.21 88.901 120.944 87.697 120.944 86.185C120.944 84.673 121.21 83.469 121.742 82.573C122.344 81.509 123.24 80.991 124.444 80.991ZM124.444 81.971C123.548 81.971 122.904 82.447 122.512 83.413C122.232 84.085 122.092 85.009 122.092 86.185C122.092 87.347 122.232 88.271 122.512 88.957C122.904 89.909 123.548 90.399 124.444 90.399C125.34 90.399 125.984 89.909 126.376 88.957C126.656 88.271 126.81 87.347 126.81 86.185C126.81 85.009 126.656 84.085 126.376 83.413C125.984 82.447 125.34 81.971 124.444 81.971ZM137.347 83.749C137.739 83.749 138.075 83.805 138.341 83.917V85.037C137.977 84.925 137.613 84.883 137.263 84.883C136.703 84.883 136.227 85.121 135.849 85.625C135.457 86.101 135.275 86.675 135.275 87.347V91.183H134.169V83.945H135.275V85.205C135.471 84.785 135.723 84.449 136.031 84.211C136.409 83.903 136.843 83.749 137.347 83.749ZM142.432 83.749C143.468 83.749 144.224 84.015 144.728 84.561C145.148 85.037 145.372 85.695 145.372 86.535V91.183H144.322V89.965C144.042 90.357 143.664 90.679 143.216 90.931C142.684 91.225 142.082 91.379 141.41 91.379C140.682 91.379 140.108 91.197 139.674 90.833C139.226 90.455 139.002 89.965 139.002 89.377C139.002 88.551 139.324 87.935 139.996 87.515C140.584 87.123 141.424 86.913 142.516 86.899L144.252 86.871V86.493C144.252 85.275 143.622 84.673 142.362 84.673C141.83 84.673 141.396 84.771 141.06 84.995C140.682 85.219 140.444 85.569 140.332 86.031L139.226 85.947C139.38 85.191 139.758 84.617 140.346 84.253C140.878 83.917 141.564 83.749 142.432 83.749ZM144.252 87.711L142.586 87.739C140.962 87.767 140.15 88.299 140.15 89.349C140.15 89.685 140.276 89.951 140.556 90.175C140.836 90.385 141.2 90.497 141.648 90.497C142.334 90.497 142.936 90.273 143.468 89.825C143.986 89.391 144.252 88.887 144.252 88.327V87.711ZM150.49 83.749C152.282 83.749 153.192 84.743 153.192 86.731V91.183H152.072V86.815C152.072 85.401 151.428 84.701 150.168 84.701C149.664 84.701 149.23 84.883 148.866 85.247C148.474 85.639 148.264 86.157 148.222 86.815V91.183H147.102V83.945H148.222V85.009C148.474 84.603 148.796 84.295 149.188 84.085C149.58 83.861 150.014 83.749 150.49 83.749ZM154.923 80.991H156.043V87.305L159.669 83.945H161.153L157.961 86.857L161.461 91.183H160.019L157.191 87.585L156.043 88.621V91.183H154.923V80.991ZM165.315 83.749C166.477 83.749 167.359 84.141 167.947 84.925C168.479 85.625 168.759 86.619 168.787 87.879H163.075C163.131 88.691 163.341 89.321 163.733 89.769C164.125 90.217 164.671 90.441 165.357 90.441C165.945 90.441 166.435 90.287 166.799 89.993C167.107 89.741 167.345 89.363 167.527 88.859H168.647C168.479 89.559 168.157 90.119 167.667 90.567C167.065 91.099 166.295 91.379 165.357 91.379C164.321 91.379 163.481 91.029 162.865 90.357C162.221 89.657 161.913 88.733 161.913 87.557C161.913 86.493 162.207 85.597 162.823 84.883C163.439 84.127 164.265 83.749 165.315 83.749ZM165.343 84.687C164.699 84.687 164.181 84.897 163.789 85.317C163.397 85.737 163.173 86.297 163.103 87.011H167.625C167.485 85.457 166.715 84.687 165.343 84.687ZM175.446 80.991H176.566V91.183H175.516V89.993C175.012 90.917 174.2 91.379 173.108 91.379C172.044 91.379 171.218 90.987 170.63 90.231C170.084 89.531 169.818 88.635 169.818 87.543C169.818 86.479 170.084 85.611 170.63 84.911C171.218 84.127 172.016 83.749 173.052 83.749C174.088 83.749 174.886 84.253 175.446 85.275V80.991ZM173.29 84.673C172.492 84.673 171.89 84.953 171.498 85.513C171.134 86.003 170.966 86.675 170.966 87.543C170.966 88.411 171.134 89.097 171.484 89.601C171.876 90.161 172.464 90.455 173.248 90.455C173.976 90.455 174.536 90.175 174.942 89.615C175.292 89.111 175.474 88.453 175.474 87.641V87.501C175.474 86.661 175.264 85.975 174.872 85.457C174.466 84.925 173.934 84.673 173.29 84.673ZM182.964 83.945H184.084V88.369C184.084 89.055 184.224 89.573 184.518 89.909C184.812 90.245 185.288 90.427 185.946 90.427C186.422 90.427 186.856 90.231 187.234 89.867C187.626 89.475 187.864 88.971 187.948 88.355V83.945H189.068V91.183H187.948V90.063C187.36 90.931 186.576 91.379 185.596 91.379C183.832 91.379 182.964 90.385 182.964 88.425V83.945ZM193.36 83.749C195.152 83.749 196.132 84.491 196.328 86.003H195.236C195.138 85.555 194.956 85.219 194.676 85.023C194.368 84.799 193.92 84.687 193.346 84.687C192.842 84.687 192.45 84.771 192.17 84.967C191.862 85.149 191.708 85.401 191.708 85.723C191.708 86.031 191.904 86.297 192.324 86.507C192.59 86.633 193.094 86.787 193.822 86.983C194.69 87.193 195.306 87.417 195.684 87.655C196.258 88.019 196.552 88.509 196.552 89.139C196.552 90.623 195.53 91.379 193.486 91.379C191.582 91.379 190.546 90.539 190.378 88.873H191.47C191.554 89.447 191.764 89.853 192.072 90.105C192.38 90.329 192.842 90.441 193.458 90.441C194.746 90.441 195.404 90.021 195.404 89.209C195.404 88.803 195.166 88.495 194.718 88.271C194.48 88.159 193.962 88.005 193.178 87.809C192.324 87.599 191.722 87.389 191.386 87.165C190.826 86.829 190.56 86.367 190.56 85.751C190.56 85.135 190.826 84.659 191.372 84.295C191.876 83.931 192.548 83.749 193.36 83.749ZM200.848 83.749C202.01 83.749 202.892 84.141 203.48 84.925C204.012 85.625 204.292 86.619 204.32 87.879H198.608C198.664 88.691 198.874 89.321 199.266 89.769C199.658 90.217 200.204 90.441 200.89 90.441C201.478 90.441 201.968 90.287 202.332 89.993C202.64 89.741 202.878 89.363 203.06 88.859H204.18C204.012 89.559 203.69 90.119 203.2 90.567C202.598 91.099 201.828 91.379 200.89 91.379C199.854 91.379 199.014 91.029 198.398 90.357C197.754 89.657 197.446 88.733 197.446 87.557C197.446 86.493 197.74 85.597 198.356 84.883C198.972 84.127 199.798 83.749 200.848 83.749ZM200.876 84.687C200.232 84.687 199.714 84.897 199.322 85.317C198.93 85.737 198.706 86.297 198.636 87.011H203.158C203.018 85.457 202.248 84.687 200.876 84.687ZM208.81 83.749C209.202 83.749 209.538 83.805 209.804 83.917V85.037C209.44 84.925 209.076 84.883 208.726 84.883C208.166 84.883 207.69 85.121 207.312 85.625C206.92 86.101 206.738 86.675 206.738 87.347V91.183H205.632V83.945H206.738V85.205C206.934 84.785 207.186 84.449 207.494 84.211C207.872 83.903 208.306 83.749 208.81 83.749ZM213.307 83.749C215.099 83.749 216.079 84.491 216.275 86.003H215.183C215.085 85.555 214.903 85.219 214.623 85.023C214.315 84.799 213.867 84.687 213.293 84.687C212.789 84.687 212.397 84.771 212.117 84.967C211.809 85.149 211.655 85.401 211.655 85.723C211.655 86.031 211.851 86.297 212.271 86.507C212.537 86.633 213.041 86.787 213.769 86.983C214.637 87.193 215.253 87.417 215.631 87.655C216.205 88.019 216.499 88.509 216.499 89.139C216.499 90.623 215.477 91.379 213.433 91.379C211.529 91.379 210.493 90.539 210.325 88.873H211.417C211.501 89.447 211.711 89.853 212.019 90.105C212.327 90.329 212.789 90.441 213.405 90.441C214.693 90.441 215.351 90.021 215.351 89.209C215.351 88.803 215.113 88.495 214.665 88.271C214.427 88.159 213.909 88.005 213.125 87.809C212.271 87.599 211.669 87.389 211.333 87.165C210.773 86.829 210.507 86.367 210.507 85.751C210.507 85.135 210.773 84.659 211.319 84.295C211.823 83.931 212.495 83.749 213.307 83.749ZM225.625 83.749C226.661 83.749 227.417 84.015 227.921 84.561C228.341 85.037 228.565 85.695 228.565 86.535V91.183H227.515V89.965C227.235 90.357 226.857 90.679 226.409 90.931C225.877 91.225 225.275 91.379 224.603 91.379C223.875 91.379 223.301 91.197 222.867 90.833C222.419 90.455 222.195 89.965 222.195 89.377C222.195 88.551 222.517 87.935 223.189 87.515C223.777 87.123 224.617 86.913 225.709 86.899L227.445 86.871V86.493C227.445 85.275 226.815 84.673 225.555 84.673C225.023 84.673 224.589 84.771 224.253 84.995C223.875 85.219 223.637 85.569 223.525 86.031L222.419 85.947C222.573 85.191 222.951 84.617 223.539 84.253C224.071 83.917 224.757 83.749 225.625 83.749ZM227.445 87.711L225.779 87.739C224.155 87.767 223.343 88.299 223.343 89.349C223.343 89.685 223.469 89.951 223.749 90.175C224.029 90.385 224.393 90.497 224.841 90.497C225.527 90.497 226.129 90.273 226.661 89.825C227.179 89.391 227.445 88.887 227.445 88.327V87.711ZM233.474 83.749C233.866 83.749 234.202 83.805 234.468 83.917V85.037C234.104 84.925 233.74 84.883 233.39 84.883C232.83 84.883 232.354 85.121 231.976 85.625C231.584 86.101 231.402 86.675 231.402 87.347V91.183H230.296V83.945H231.402V85.205C231.598 84.785 231.85 84.449 232.158 84.211C232.536 83.903 232.97 83.749 233.474 83.749ZM238.391 83.749C239.553 83.749 240.435 84.141 241.023 84.925C241.555 85.625 241.835 86.619 241.863 87.879H236.151C236.207 88.691 236.417 89.321 236.809 89.769C237.201 90.217 237.747 90.441 238.433 90.441C239.021 90.441 239.511 90.287 239.875 89.993C240.183 89.741 240.421 89.363 240.603 88.859H241.723C241.555 89.559 241.233 90.119 240.743 90.567C240.141 91.099 239.371 91.379 238.433 91.379C237.397 91.379 236.557 91.029 235.941 90.357C235.297 89.657 234.989 88.733 234.989 87.557C234.989 86.493 235.283 85.597 235.899 84.883C236.515 84.127 237.341 83.749 238.391 83.749ZM238.419 84.687C237.775 84.687 237.257 84.897 236.865 85.317C236.473 85.737 236.249 86.297 236.179 87.011H240.701C240.561 85.457 239.791 84.687 238.419 84.687ZM250.819 83.749C251.981 83.749 252.863 84.141 253.451 84.925C253.983 85.625 254.263 86.619 254.291 87.879H248.579C248.635 88.691 248.845 89.321 249.237 89.769C249.629 90.217 250.175 90.441 250.861 90.441C251.449 90.441 251.939 90.287 252.303 89.993C252.611 89.741 252.849 89.363 253.031 88.859H254.151C253.983 89.559 253.661 90.119 253.171 90.567C252.569 91.099 251.799 91.379 250.861 91.379C249.825 91.379 248.985 91.029 248.369 90.357C247.725 89.657 247.417 88.733 247.417 87.557C247.417 86.493 247.711 85.597 248.327 84.883C248.943 84.127 249.769 83.749 250.819 83.749ZM250.847 84.687C250.203 84.687 249.685 84.897 249.293 85.317C248.901 85.737 248.677 86.297 248.607 87.011H253.129C252.989 85.457 252.219 84.687 250.847 84.687ZM255.826 80.991H256.932V91.183H255.826V80.991ZM259.821 81.215C260.059 81.215 260.255 81.285 260.423 81.453C260.591 81.593 260.675 81.789 260.675 82.041C260.675 82.279 260.591 82.475 260.423 82.643C260.255 82.797 260.059 82.881 259.821 82.881C259.583 82.881 259.387 82.797 259.219 82.643C259.051 82.475 258.981 82.279 258.981 82.041C258.981 81.789 259.051 81.593 259.219 81.453C259.387 81.285 259.583 81.215 259.821 81.215ZM259.261 83.945H260.381V91.183H259.261V83.945ZM265.461 83.749C266.553 83.749 267.365 84.225 267.897 85.191V83.945H269.017V90.679C269.017 92.989 267.911 94.151 265.713 94.151C264.733 94.151 263.977 93.955 263.473 93.563C262.955 93.171 262.633 92.583 262.507 91.799H263.627C263.711 92.289 263.921 92.653 264.243 92.877C264.565 93.115 265.055 93.241 265.713 93.241C267.169 93.241 267.897 92.429 267.897 90.833V89.559C267.365 90.525 266.553 91.015 265.461 91.015C264.453 91.015 263.655 90.665 263.067 89.979C262.479 89.307 262.199 88.453 262.199 87.403C262.199 86.339 262.479 85.485 263.067 84.813C263.655 84.099 264.453 83.749 265.461 83.749ZM265.629 84.673C264.901 84.673 264.341 84.925 263.935 85.457C263.543 85.933 263.347 86.591 263.347 87.403C263.347 88.159 263.515 88.789 263.865 89.265C264.257 89.797 264.831 90.077 265.615 90.077C266.343 90.077 266.903 89.825 267.323 89.321C267.715 88.831 267.911 88.187 267.911 87.403C267.911 86.591 267.715 85.933 267.323 85.457C266.903 84.925 266.343 84.673 265.629 84.673ZM271.675 81.215C271.913 81.215 272.109 81.285 272.277 81.453C272.445 81.593 272.529 81.789 272.529 82.041C272.529 82.279 272.445 82.475 272.277 82.643C272.109 82.797 271.913 82.881 271.675 82.881C271.437 82.881 271.241 82.797 271.073 82.643C270.905 82.475 270.835 82.279 270.835 82.041C270.835 81.789 270.905 81.593 271.073 81.453C271.241 81.285 271.437 81.215 271.675 81.215ZM271.115 83.945H272.235V91.183H271.115V83.945ZM274.333 80.991H275.453V85.275C276.013 84.253 276.811 83.749 277.847 83.749C278.869 83.749 279.681 84.127 280.269 84.911C280.801 85.611 281.081 86.479 281.081 87.543C281.081 88.635 280.801 89.531 280.269 90.231C279.667 90.987 278.841 91.379 277.791 91.379C276.671 91.379 275.873 90.917 275.383 89.993V91.183H274.333V80.991ZM277.609 84.673C276.951 84.673 276.419 84.925 276.027 85.457C275.607 85.975 275.411 86.661 275.411 87.501V87.641C275.411 88.453 275.593 89.111 275.957 89.615C276.349 90.175 276.923 90.455 277.651 90.455C278.435 90.455 279.023 90.161 279.415 89.601C279.751 89.097 279.933 88.411 279.933 87.543C279.933 86.675 279.751 86.003 279.387 85.513C278.981 84.953 278.393 84.673 277.609 84.673ZM282.76 80.991H283.866V91.183H282.76V80.991ZM288.813 83.749C289.975 83.749 290.857 84.141 291.445 84.925C291.977 85.625 292.257 86.619 292.285 87.879H286.573C286.629 88.691 286.839 89.321 287.231 89.769C287.623 90.217 288.169 90.441 288.855 90.441C289.443 90.441 289.933 90.287 290.297 89.993C290.605 89.741 290.843 89.363 291.025 88.859H292.145C291.977 89.559 291.655 90.119 291.165 90.567C290.563 91.099 289.793 91.379 288.855 91.379C287.819 91.379 286.979 91.029 286.363 90.357C285.719 89.657 285.411 88.733 285.411 87.557C285.411 86.493 285.705 85.597 286.321 84.883C286.937 84.127 287.763 83.749 288.813 83.749ZM288.841 84.687C288.197 84.687 287.679 84.897 287.287 85.317C286.895 85.737 286.671 86.297 286.601 87.011H291.123C290.983 85.457 290.213 84.687 288.841 84.687ZM300.191 81.607V83.945H301.983V84.883H300.191V89.489C300.191 89.755 300.233 89.951 300.345 90.063C300.443 90.175 300.625 90.245 300.877 90.245H301.801V91.183H300.709C300.121 91.183 299.687 91.029 299.435 90.721C299.197 90.441 299.085 90.035 299.085 89.489V84.883H297.629V83.945H299.085V82.069L300.191 81.607ZM306.469 83.749C307.547 83.749 308.415 84.113 309.059 84.869C309.675 85.583 309.983 86.479 309.983 87.571C309.983 88.649 309.675 89.545 309.073 90.245C308.415 91.001 307.547 91.379 306.469 91.379C305.377 91.379 304.523 91.001 303.879 90.245C303.263 89.545 302.955 88.649 302.955 87.571C302.955 86.479 303.263 85.583 303.879 84.869C304.523 84.113 305.377 83.749 306.469 83.749ZM306.469 84.687C305.699 84.687 305.097 84.981 304.677 85.569C304.285 86.101 304.103 86.759 304.103 87.571C304.103 88.369 304.285 89.027 304.677 89.559C305.097 90.147 305.699 90.441 306.469 90.441C307.225 90.441 307.827 90.147 308.275 89.559C308.653 89.027 308.849 88.355 308.849 87.571C308.849 86.759 308.653 86.101 308.275 85.569C307.827 84.981 307.225 84.687 306.469 84.687ZM24.9769 108.749C26.7689 108.749 27.7489 109.491 27.9449 111.003H26.8529C26.7549 110.555 26.5729 110.219 26.2929 110.023C25.9849 109.799 25.5369 109.687 24.9629 109.687C24.4589 109.687 24.0669 109.771 23.7869 109.967C23.4789 110.149 23.3249 110.401 23.3249 110.723C23.3249 111.031 23.5209 111.297 23.9409 111.507C24.2069 111.633 24.7109 111.787 25.4389 111.983C26.3069 112.193 26.9229 112.417 27.3009 112.655C27.8749 113.019 28.1689 113.509 28.1689 114.139C28.1689 115.623 27.1469 116.379 25.1029 116.379C23.1989 116.379 22.1629 115.539 21.9949 113.873H23.0869C23.1709 114.447 23.3809 114.853 23.6889 115.105C23.9969 115.329 24.4589 115.441 25.0749 115.441C26.3629 115.441 27.0209 115.021 27.0209 114.209C27.0209 113.803 26.7829 113.495 26.3349 113.271C26.0969 113.159 25.5789 113.005 24.7949 112.809C23.9409 112.599 23.3389 112.389 23.0029 112.165C22.4429 111.829 22.1769 111.367 22.1769 110.751C22.1769 110.135 22.4429 109.659 22.9889 109.295C23.4929 108.931 24.1649 108.749 24.9769 108.749ZM29.4832 108.945H30.6032V113.369C30.6032 114.055 30.7432 114.573 31.0372 114.909C31.3312 115.245 31.8072 115.427 32.4652 115.427C32.9412 115.427 33.3752 115.231 33.7532 114.867C34.1452 114.475 34.3832 113.971 34.4672 113.355V108.945H35.5872V116.183H34.4672V115.063C33.8792 115.931 33.0952 116.379 32.1152 116.379C30.3512 116.379 29.4832 115.385 29.4832 113.425V108.945ZM37.3172 105.991H38.4372V110.275C38.9972 109.253 39.7952 108.749 40.8312 108.749C41.8532 108.749 42.6652 109.127 43.2532 109.911C43.7852 110.611 44.0652 111.479 44.0652 112.543C44.0652 113.635 43.7852 114.531 43.2532 115.231C42.6512 115.987 41.8252 116.379 40.7752 116.379C39.6552 116.379 38.8572 115.917 38.3672 114.993V116.183H37.3172V105.991ZM40.5932 109.673C39.9352 109.673 39.4032 109.925 39.0112 110.457C38.5912 110.975 38.3952 111.661 38.3952 112.501V112.641C38.3952 113.453 38.5772 114.111 38.9412 114.615C39.3332 115.175 39.9072 115.455 40.6352 115.455C41.4192 115.455 42.0072 115.161 42.3992 114.601C42.7352 114.097 42.9172 113.411 42.9172 112.543C42.9172 111.675 42.7352 111.003 42.3712 110.513C41.9652 109.953 41.3772 109.673 40.5932 109.673ZM48.6843 108.749C49.7903 108.749 50.5463 109.197 50.9523 110.121C51.2323 109.645 51.5683 109.295 51.9603 109.085C52.3103 108.861 52.7303 108.749 53.2343 108.749C53.9903 108.749 54.5923 108.987 55.0683 109.463C55.5163 109.953 55.7543 110.611 55.7543 111.437V116.183H54.6343V111.619C54.6343 110.975 54.4943 110.499 54.2283 110.191C53.9483 109.855 53.5003 109.701 52.8843 109.701C52.4083 109.701 52.0023 109.869 51.6943 110.233C51.3583 110.597 51.2043 111.059 51.2043 111.647V116.183H50.0843V111.619C50.0843 110.331 49.5243 109.701 48.4183 109.701C47.9003 109.701 47.4803 109.897 47.1443 110.317C46.8083 110.709 46.6403 111.199 46.6403 111.773V116.183H45.5203V108.945H46.6403V109.911C47.1863 109.127 47.8723 108.749 48.6843 108.749ZM58.4209 106.215C58.6589 106.215 58.8549 106.285 59.0229 106.453C59.1909 106.593 59.2749 106.789 59.2749 107.041C59.2749 107.279 59.1909 107.475 59.0229 107.643C58.8549 107.797 58.6589 107.881 58.4209 107.881C58.1829 107.881 57.9869 107.797 57.8189 107.643C57.6509 107.475 57.5809 107.279 57.5809 107.041C57.5809 106.789 57.6509 106.593 57.8189 106.453C57.9869 106.285 58.1829 106.215 58.4209 106.215ZM57.8609 108.945H58.9809V116.183H57.8609V108.945ZM63.0109 106.607V108.945H64.8029V109.883H63.0109V114.489C63.0109 114.755 63.0529 114.951 63.1649 115.063C63.2629 115.175 63.4449 115.245 63.6969 115.245H64.6209V116.183H63.5289C62.9409 116.183 62.5069 116.029 62.2549 115.721C62.0169 115.441 61.9049 115.035 61.9049 114.489V109.883H60.4489V108.945H61.9049V107.069L63.0109 106.607ZM72.6496 106.607V108.945H74.4416V109.883H72.6496V114.489C72.6496 114.755 72.6916 114.951 72.8036 115.063C72.9016 115.175 73.0836 115.245 73.3356 115.245H74.2596V116.183H73.1676C72.5796 116.183 72.1456 116.029 71.8936 115.721C71.6556 115.441 71.5436 115.035 71.5436 114.489V109.883H70.0876V108.945H71.5436V107.069L72.6496 106.607ZM75.6942 105.991H76.8142V110.135C77.0662 109.673 77.4022 109.323 77.8222 109.085C78.2142 108.861 78.6482 108.749 79.1382 108.749C79.9782 108.749 80.6362 108.987 81.0842 109.491C81.5322 109.981 81.7562 110.695 81.7562 111.619V116.183H80.6362V111.787C80.6362 111.115 80.4682 110.597 80.1602 110.233C79.8242 109.869 79.3622 109.687 78.7602 109.687C78.2002 109.687 77.7382 109.911 77.3742 110.359C76.9962 110.807 76.8142 111.381 76.8142 112.053V116.183H75.6942V105.991ZM86.4555 108.749C87.6175 108.749 88.4995 109.141 89.0875 109.925C89.6195 110.625 89.8995 111.619 89.9275 112.879H84.2155C84.2715 113.691 84.4815 114.321 84.8735 114.769C85.2655 115.217 85.8115 115.441 86.4975 115.441C87.0855 115.441 87.5755 115.287 87.9395 114.993C88.2475 114.741 88.4855 114.363 88.6675 113.859H89.7875C89.6195 114.559 89.2975 115.119 88.8075 115.567C88.2055 116.099 87.4355 116.379 86.4975 116.379C85.4615 116.379 84.6215 116.029 84.0055 115.357C83.3615 114.657 83.0535 113.733 83.0535 112.557C83.0535 111.493 83.3475 110.597 83.9635 109.883C84.5795 109.127 85.4055 108.749 86.4555 108.749ZM86.4835 109.687C85.8395 109.687 85.3215 109.897 84.9295 110.317C84.5375 110.737 84.3135 111.297 84.2435 112.011H88.7655C88.6255 110.457 87.8555 109.687 86.4835 109.687ZM98.7992 106.187H100.185V107.153H98.9392C98.6312 107.153 98.3932 107.223 98.2532 107.391C98.1132 107.545 98.0432 107.797 98.0432 108.147V108.945H100.087V109.883H98.0432V116.183H96.9232V109.883H95.1032V108.945H96.9232V108.119C96.9232 107.503 97.0772 107.041 97.3852 106.705C97.7072 106.355 98.1832 106.187 98.7992 106.187ZM104.358 108.749C105.436 108.749 106.304 109.113 106.948 109.869C107.564 110.583 107.872 111.479 107.872 112.571C107.872 113.649 107.564 114.545 106.962 115.245C106.304 116.001 105.436 116.379 104.358 116.379C103.266 116.379 102.412 116.001 101.768 115.245C101.152 114.545 100.844 113.649 100.844 112.571C100.844 111.479 101.152 110.583 101.768 109.869C102.412 109.113 103.266 108.749 104.358 108.749ZM104.358 109.687C103.588 109.687 102.986 109.981 102.566 110.569C102.174 111.101 101.992 111.759 101.992 112.571C101.992 113.369 102.174 114.027 102.566 114.559C102.986 115.147 103.588 115.441 104.358 115.441C105.114 115.441 105.716 115.147 106.164 114.559C106.542 114.027 106.738 113.355 106.738 112.571C106.738 111.759 106.542 111.101 106.164 110.569C105.716 109.981 105.114 109.687 104.358 109.687ZM112.505 108.749C112.897 108.749 113.233 108.805 113.499 108.917V110.037C113.135 109.925 112.771 109.883 112.421 109.883C111.861 109.883 111.385 110.121 111.007 110.625C110.615 111.101 110.433 111.675 110.433 112.347V116.183H109.327V108.945H110.433V110.205C110.629 109.785 110.881 109.449 111.189 109.211C111.567 108.903 112.001 108.749 112.505 108.749ZM117.604 108.749C118.71 108.749 119.466 109.197 119.872 110.121C120.152 109.645 120.488 109.295 120.88 109.085C121.23 108.861 121.65 108.749 122.154 108.749C122.91 108.749 123.512 108.987 123.988 109.463C124.436 109.953 124.674 110.611 124.674 111.437V116.183H123.554V111.619C123.554 110.975 123.414 110.499 123.148 110.191C122.868 109.855 122.42 109.701 121.804 109.701C121.328 109.701 120.922 109.869 120.614 110.233C120.278 110.597 120.124 111.059 120.124 111.647V116.183H119.004V111.619C119.004 110.331 118.444 109.701 117.338 109.701C116.82 109.701 116.4 109.897 116.064 110.317C115.728 110.709 115.56 111.199 115.56 111.773V116.183H114.44V108.945H115.56V109.911C116.106 109.127 116.792 108.749 117.604 108.749ZM127.397 114.517C127.621 114.517 127.831 114.601 127.999 114.769C128.167 114.937 128.251 115.133 128.251 115.385C128.251 115.623 128.167 115.819 127.999 115.987C127.831 116.155 127.621 116.239 127.397 116.239C127.145 116.239 126.949 116.155 126.795 115.987C126.627 115.819 126.543 115.623 126.543 115.385C126.543 115.133 126.627 114.937 126.795 114.769C126.949 114.601 127.145 114.517 127.397 114.517Z" fill="black"/>
<rect x="20" y="138.366" width="295" height="40" rx="4" fill="url(#paint0_linear_12418_5074)"/>
<path d="M50.62 152.942H58.86V154.542H52.492V157.71H58.476V159.31H52.492V162.766H59.132V164.366H50.62V152.942ZM64.9976 155.87C67.0616 155.87 68.1016 156.99 68.1016 159.262V164.366H66.2776V159.422C66.2776 158.062 65.6536 157.39 64.4056 157.39C63.9576 157.39 63.5576 157.55 63.2216 157.87C62.8376 158.222 62.6136 158.734 62.5496 159.39V164.366H60.7256V156.094H62.5496V157.054C62.8696 156.67 63.2376 156.366 63.6376 156.174C64.0536 155.966 64.5016 155.87 64.9976 155.87ZM72.6145 153.422V156.094H74.4545V157.598H72.6145V162.27C72.6145 162.462 72.6465 162.606 72.7425 162.718C72.8385 162.814 72.9665 162.862 73.1585 162.862H74.2465V164.366H72.8545C72.1345 164.366 71.6065 164.174 71.2705 163.79C70.9505 163.438 70.7905 162.942 70.7905 162.27V157.598H69.3025V156.094H70.7905V154.174L72.6145 153.422ZM79.3394 155.87C80.6994 155.87 81.7394 156.318 82.4594 157.246C83.1154 158.078 83.4514 159.246 83.4514 160.734H77.2594C77.3234 161.502 77.5314 162.094 77.8834 162.494C78.2354 162.894 78.7474 163.102 79.4034 163.102C79.9634 163.102 80.4114 162.974 80.7634 162.718C81.0354 162.51 81.2754 162.174 81.4994 161.71H83.3234C83.1314 162.478 82.7474 163.134 82.1714 163.646C81.4354 164.27 80.5234 164.59 79.4194 164.59C78.1874 164.59 77.2114 164.206 76.4914 163.454C75.7234 162.67 75.3394 161.598 75.3394 160.222C75.3394 158.99 75.6914 157.966 76.4274 157.134C77.1314 156.286 78.1074 155.87 79.3394 155.87ZM79.3874 157.358C78.7794 157.358 78.3154 157.518 77.9634 157.87C77.6274 158.206 77.4034 158.702 77.2914 159.358H81.5474C81.3874 158.014 80.6674 157.358 79.3874 157.358ZM88.8015 155.87C89.2015 155.87 89.5535 155.934 89.8415 156.078V157.902C89.4255 157.774 89.0415 157.726 88.6575 157.726C88.1775 157.726 87.7455 157.902 87.3615 158.286C86.9135 158.718 86.7055 159.278 86.7055 159.982V164.366H84.8975V156.094H86.7055V157.278C86.9295 156.862 87.1855 156.542 87.4895 156.318C87.8575 156.014 88.2895 155.87 88.8015 155.87ZM95.33 156.094H97.314L99.506 161.982L101.602 156.094H103.586L99.106 167.534H97.154L98.61 164.174L95.33 156.094ZM108.472 155.87C109.72 155.87 110.728 156.27 111.496 157.102C112.248 157.918 112.632 158.958 112.632 160.238C112.632 161.502 112.248 162.542 111.512 163.342C110.744 164.174 109.72 164.59 108.472 164.59C107.208 164.59 106.2 164.174 105.432 163.342C104.68 162.542 104.312 161.502 104.312 160.238C104.312 158.958 104.68 157.918 105.448 157.102C106.2 156.27 107.208 155.87 108.472 155.87ZM108.472 157.358C107.704 157.358 107.128 157.646 106.712 158.254C106.36 158.766 106.184 159.438 106.184 160.238C106.184 161.038 106.36 161.694 106.712 162.206C107.128 162.798 107.704 163.102 108.472 163.102C109.224 163.102 109.816 162.798 110.232 162.206C110.584 161.678 110.776 161.022 110.776 160.238C110.776 159.438 110.584 158.766 110.232 158.254C109.816 157.646 109.224 157.358 108.472 157.358ZM114.226 156.094H116.05V161.134C116.05 161.806 116.178 162.286 116.466 162.606C116.754 162.91 117.202 163.07 117.842 163.07C118.242 163.07 118.626 162.894 118.994 162.558C119.362 162.206 119.634 161.742 119.794 161.15V156.094H121.618V164.366H119.794V163.294C119.09 164.158 118.226 164.59 117.202 164.59C115.218 164.59 114.226 163.47 114.226 161.246V156.094ZM127.442 155.87C127.842 155.87 128.194 155.934 128.482 156.078V157.902C128.066 157.774 127.682 157.726 127.298 157.726C126.818 157.726 126.386 157.902 126.002 158.286C125.554 158.718 125.346 159.278 125.346 159.982V164.366H123.538V156.094H125.346V157.278C125.57 156.862 125.826 156.542 126.13 156.318C126.498 156.014 126.93 155.87 127.442 155.87ZM137.971 155.87C140.147 155.87 141.347 156.734 141.539 158.494H139.763C139.635 158.078 139.443 157.774 139.187 157.614C138.915 157.438 138.499 157.358 137.939 157.358C137.459 157.358 137.091 157.422 136.851 157.566C136.563 157.71 136.435 157.934 136.435 158.254C136.435 158.51 136.643 158.75 137.091 158.942C137.363 159.054 137.907 159.214 138.739 159.422C139.667 159.646 140.371 159.902 140.819 160.206C141.475 160.622 141.811 161.214 141.811 161.95C141.811 163.71 140.563 164.59 138.083 164.59C135.779 164.59 134.547 163.614 134.371 161.678H136.147C136.243 162.206 136.435 162.574 136.707 162.798C136.979 162.99 137.411 163.102 138.019 163.102C139.299 163.102 139.939 162.75 139.939 162.078C139.939 161.694 139.699 161.39 139.219 161.166C138.963 161.038 138.419 160.894 137.587 160.702C136.611 160.478 135.923 160.238 135.523 159.982C134.883 159.582 134.563 159.022 134.563 158.302C134.563 157.534 134.867 156.942 135.507 156.526C136.131 156.078 136.947 155.87 137.971 155.87ZM143.257 152.718H145.081V157.198C145.385 156.734 145.769 156.398 146.217 156.174C146.617 155.966 147.081 155.87 147.609 155.87C148.617 155.87 149.369 156.158 149.865 156.75C150.329 157.31 150.569 158.142 150.569 159.246V164.366H148.745V159.566C148.745 158.862 148.601 158.318 148.329 157.95C148.009 157.55 147.545 157.358 146.921 157.358C146.345 157.358 145.897 157.582 145.577 158.03C145.241 158.478 145.081 159.038 145.081 159.742V164.366H143.257V152.718ZM153.723 152.718C154.075 152.718 154.379 152.83 154.619 153.054C154.843 153.278 154.971 153.566 154.971 153.918C154.971 154.27 154.843 154.574 154.603 154.798C154.363 155.022 154.075 155.134 153.723 155.134C153.371 155.134 153.083 155.022 152.843 154.798C152.603 154.558 152.491 154.27 152.491 153.918C152.491 153.566 152.603 153.278 152.843 153.054C153.083 152.83 153.371 152.718 153.723 152.718ZM152.811 156.094H154.635V164.366H152.811V156.094ZM161.09 155.87C162.306 155.87 163.266 156.302 163.97 157.166C164.61 157.966 164.93 158.99 164.93 160.27C164.93 161.486 164.61 162.494 163.986 163.294C163.314 164.158 162.37 164.59 161.186 164.59C160.226 164.59 159.394 164.126 158.722 163.23V167.534H156.898V156.094H158.594V156.974C159.17 156.238 160.002 155.87 161.09 155.87ZM160.818 157.342C160.098 157.342 159.554 157.614 159.17 158.19C158.818 158.686 158.658 159.342 158.658 160.174V160.302C158.658 161.166 158.866 161.87 159.298 162.398C159.682 162.878 160.161 163.118 160.754 163.118C161.554 163.118 162.162 162.846 162.546 162.334C162.882 161.854 163.058 161.166 163.058 160.27C163.058 159.374 162.898 158.686 162.594 158.206C162.21 157.63 161.618 157.342 160.818 157.342ZM170.715 155.87C171.931 155.87 172.891 156.302 173.595 157.166C174.235 157.966 174.555 158.99 174.555 160.27C174.555 161.486 174.235 162.494 173.611 163.294C172.939 164.158 171.995 164.59 170.811 164.59C169.851 164.59 169.019 164.126 168.347 163.23V167.534H166.523V156.094H168.219V156.974C168.795 156.238 169.627 155.87 170.715 155.87ZM170.443 157.342C169.723 157.342 169.179 157.614 168.795 158.19C168.443 158.686 168.283 159.342 168.283 160.174V160.302C168.283 161.166 168.491 161.87 168.923 162.398C169.307 162.878 169.786 163.118 170.379 163.118C171.179 163.118 171.787 162.846 172.171 162.334C172.507 161.854 172.683 161.166 172.683 160.27C172.683 159.374 172.523 158.686 172.219 158.206C171.835 157.63 171.243 157.342 170.443 157.342ZM177.38 152.718C177.732 152.718 178.036 152.83 178.276 153.054C178.5 153.278 178.628 153.566 178.628 153.918C178.628 154.27 178.5 154.574 178.26 154.798C178.02 155.022 177.732 155.134 177.38 155.134C177.028 155.134 176.74 155.022 176.5 154.798C176.26 154.558 176.148 154.27 176.148 153.918C176.148 153.566 176.26 153.278 176.5 153.054C176.74 152.83 177.028 152.718 177.38 152.718ZM176.468 156.094H178.292V164.366H176.468V156.094ZM184.826 155.87C186.89 155.87 187.93 156.99 187.93 159.262V164.366H186.106V159.422C186.106 158.062 185.482 157.39 184.234 157.39C183.786 157.39 183.386 157.55 183.05 157.87C182.666 158.222 182.442 158.734 182.378 159.39V164.366H180.554V156.094H182.378V157.054C182.698 156.67 183.066 156.366 183.466 156.174C183.882 155.966 184.33 155.87 184.826 155.87ZM193.291 155.87C194.315 155.87 195.131 156.27 195.739 157.102V156.094H197.563V163.838C197.563 166.446 196.267 167.758 193.675 167.758C192.507 167.758 191.627 167.534 191.019 167.118C190.411 166.67 190.027 165.998 189.867 165.07H191.691C191.787 165.534 191.979 165.854 192.283 166.046C192.571 166.222 193.035 166.318 193.675 166.318C195.051 166.318 195.739 165.582 195.739 164.11V162.894C195.131 163.742 194.315 164.174 193.291 164.174C192.171 164.174 191.259 163.79 190.571 163.054C189.867 162.302 189.531 161.294 189.531 160.046C189.531 158.798 189.867 157.79 190.571 157.022C191.259 156.254 192.171 155.87 193.291 155.87ZM193.579 157.342C192.891 157.342 192.363 157.582 191.979 158.062C191.595 158.526 191.403 159.182 191.403 160.046C191.403 160.83 191.547 161.438 191.851 161.886C192.203 162.414 192.763 162.686 193.563 162.686C194.267 162.686 194.811 162.446 195.195 161.998C195.563 161.518 195.755 160.878 195.755 160.046C195.755 159.198 195.563 158.542 195.195 158.062C194.811 157.582 194.267 157.342 193.579 157.342ZM208.564 155.87C209.78 155.87 210.692 156.174 211.268 156.782C211.78 157.31 212.036 158.078 212.036 159.086V164.366H210.34V163.278C210.02 163.694 209.62 163.998 209.156 164.222C208.628 164.462 208.004 164.59 207.284 164.59C206.42 164.59 205.748 164.366 205.252 163.934C204.74 163.486 204.484 162.926 204.484 162.238C204.484 161.31 204.836 160.59 205.572 160.094C206.244 159.614 207.188 159.358 208.404 159.326L210.212 159.278V158.958C210.212 157.87 209.62 157.342 208.436 157.342C207.924 157.342 207.524 157.422 207.22 157.614C206.868 157.822 206.628 158.142 206.532 158.574L204.724 158.43C204.9 157.518 205.348 156.846 206.068 156.43C206.676 156.046 207.508 155.87 208.564 155.87ZM210.212 160.59L208.532 160.638C207.076 160.67 206.356 161.182 206.356 162.174C206.356 162.462 206.468 162.702 206.724 162.894C206.98 163.086 207.3 163.198 207.7 163.198C208.404 163.198 208.996 162.99 209.476 162.59C209.956 162.174 210.212 161.646 210.212 161.006V160.59ZM219.848 152.718H221.672V164.366H219.976V163.486C219.4 164.222 218.568 164.59 217.48 164.59C216.248 164.59 215.288 164.158 214.6 163.294C213.96 162.494 213.64 161.454 213.64 160.19C213.64 158.974 213.944 157.966 214.584 157.166C215.256 156.302 216.2 155.87 217.384 155.87C218.344 155.87 219.16 156.318 219.848 157.23V152.718ZM217.816 157.342C216.984 157.342 216.392 157.614 216.008 158.158C215.672 158.622 215.512 159.294 215.512 160.19C215.512 161.086 215.656 161.774 215.976 162.254C216.344 162.83 216.936 163.118 217.752 163.118C218.456 163.118 219.016 162.83 219.4 162.27C219.736 161.758 219.912 161.086 219.912 160.286V160.158C219.912 159.278 219.688 158.574 219.272 158.062C218.888 157.582 218.392 157.342 217.816 157.342ZM229.473 152.718H231.297V164.366H229.601V163.486C229.025 164.222 228.193 164.59 227.105 164.59C225.873 164.59 224.913 164.158 224.225 163.294C223.585 162.494 223.265 161.454 223.265 160.19C223.265 158.974 223.569 157.966 224.209 157.166C224.881 156.302 225.825 155.87 227.009 155.87C227.969 155.87 228.785 156.318 229.473 157.23V152.718ZM227.441 157.342C226.609 157.342 226.017 157.614 225.633 158.158C225.297 158.622 225.137 159.294 225.137 160.19C225.137 161.086 225.281 161.774 225.601 162.254C225.969 162.83 226.561 163.118 227.377 163.118C228.081 163.118 228.641 162.83 229.025 162.27C229.361 161.758 229.537 161.086 229.537 160.286V160.158C229.537 159.278 229.313 158.574 228.897 158.062C228.513 157.582 228.017 157.342 227.441 157.342ZM237.114 155.87C237.514 155.87 237.866 155.934 238.154 156.078V157.902C237.738 157.774 237.354 157.726 236.97 157.726C236.49 157.726 236.058 157.902 235.674 158.286C235.226 158.718 235.018 159.278 235.018 159.982V164.366H233.21V156.094H235.018V157.278C235.242 156.862 235.498 156.542 235.802 156.318C236.17 156.014 236.602 155.87 237.114 155.87ZM242.714 155.87C244.074 155.87 245.114 156.318 245.834 157.246C246.49 158.078 246.826 159.246 246.826 160.734H240.634C240.698 161.502 240.906 162.094 241.258 162.494C241.61 162.894 242.122 163.102 242.778 163.102C243.338 163.102 243.786 162.974 244.138 162.718C244.41 162.51 244.65 162.174 244.874 161.71H246.698C246.506 162.478 246.122 163.134 245.546 163.646C244.81 164.27 243.898 164.59 242.794 164.59C241.562 164.59 240.586 164.206 239.866 163.454C239.098 162.67 238.714 161.598 238.714 160.222C238.714 158.99 239.066 157.966 239.802 157.134C240.506 156.286 241.482 155.87 242.714 155.87ZM242.762 157.358C242.154 157.358 241.69 157.518 241.338 157.87C241.002 158.206 240.778 158.702 240.666 159.358H244.922C244.762 158.014 244.042 157.358 242.762 157.358ZM251.393 155.87C253.569 155.87 254.769 156.734 254.961 158.494H253.185C253.057 158.078 252.865 157.774 252.609 157.614C252.337 157.438 251.921 157.358 251.361 157.358C250.881 157.358 250.513 157.422 250.273 157.566C249.985 157.71 249.857 157.934 249.857 158.254C249.857 158.51 250.065 158.75 250.513 158.942C250.785 159.054 251.329 159.214 252.161 159.422C253.089 159.646 253.793 159.902 254.241 160.206C254.897 160.622 255.233 161.214 255.233 161.95C255.233 163.71 253.985 164.59 251.505 164.59C249.201 164.59 247.969 163.614 247.793 161.678H249.569C249.664 162.206 249.857 162.574 250.129 162.798C250.401 162.99 250.833 163.102 251.441 163.102C252.721 163.102 253.361 162.75 253.361 162.078C253.361 161.694 253.121 161.39 252.641 161.166C252.385 161.038 251.841 160.894 251.009 160.702C250.033 160.478 249.345 160.238 248.945 159.982C248.305 159.582 247.985 159.022 247.985 158.302C247.985 157.534 248.289 156.942 248.929 156.526C249.553 156.078 250.369 155.87 251.393 155.87ZM259.799 155.87C261.975 155.87 263.175 156.734 263.367 158.494H261.591C261.463 158.078 261.271 157.774 261.015 157.614C260.743 157.438 260.327 157.358 259.767 157.358C259.287 157.358 258.919 157.422 258.679 157.566C258.391 157.71 258.263 157.934 258.263 158.254C258.263 158.51 258.471 158.75 258.919 158.942C259.191 159.054 259.735 159.214 260.567 159.422C261.495 159.646 262.199 159.902 262.647 160.206C263.303 160.622 263.639 161.214 263.639 161.95C263.639 163.71 262.391 164.59 259.911 164.59C257.607 164.59 256.375 163.614 256.199 161.678H257.975C258.071 162.206 258.263 162.574 258.535 162.798C258.807 162.99 259.239 163.102 259.847 163.102C261.127 163.102 261.767 162.75 261.767 162.078C261.767 161.694 261.527 161.39 261.047 161.166C260.791 161.038 260.247 160.894 259.415 160.702C258.439 160.478 257.751 160.238 257.351 159.982C256.711 159.582 256.391 159.022 256.391 158.302C256.391 157.534 256.695 156.942 257.335 156.526C257.959 156.078 258.775 155.87 259.799 155.87ZM281.229 155.006L285.101 158.606L281.229 162.206L280.493 161.422L282.333 159.31H269.805V157.902H282.333L280.493 155.79L281.229 155.006Z" fill="white"/>
<path d="M0 12C0 5.37258 5.37258 0 12 0H147.313C150.082 0 152.014 2.74593 151.078 5.35209L141.021 33.3521C140.451 34.9406 138.944 36 137.257 36H0V12Z" fill="url(#paint1_linear_12418_5074)"/>
<path d="M26.8238 12.352C28.1678 12.352 29.2878 12.704 30.1518 13.408C30.9838 14.08 31.4798 15.008 31.6558 16.16H29.8318C29.6398 15.408 29.2878 14.864 28.7598 14.512C28.2478 14.16 27.5918 14 26.7918 14C25.5918 14 24.6958 14.4 24.0878 15.232C23.5278 15.968 23.2558 16.992 23.2558 18.304C23.2558 19.648 23.5278 20.688 24.0718 21.408C24.6638 22.176 25.5918 22.576 26.8398 22.576C27.6558 22.576 28.3278 22.368 28.8398 21.984C29.3838 21.552 29.7678 20.896 29.9918 20.032H31.8158C31.5598 21.376 30.9678 22.416 30.0238 23.168C29.1438 23.872 28.0878 24.224 26.8558 24.224C24.9518 24.224 23.5278 23.616 22.5998 22.432C21.7838 21.408 21.3838 20.032 21.3838 18.304C21.3838 16.608 21.7998 15.216 22.6478 14.16C23.6078 12.944 24.9998 12.352 26.8238 12.352ZM33.5825 12.352H35.4065V24H33.5825V12.352ZM41.245 15.504C42.461 15.504 43.373 15.808 43.949 16.416C44.461 16.944 44.717 17.712 44.717 18.72V24H43.021V22.912C42.701 23.328 42.301 23.632 41.837 23.856C41.309 24.096 40.685 24.224 39.965 24.224C39.101 24.224 38.429 24 37.933 23.568C37.421 23.12 37.165 22.56 37.165 21.872C37.165 20.944 37.517 20.224 38.253 19.728C38.925 19.248 39.869 18.992 41.085 18.96L42.893 18.912V18.592C42.893 17.504 42.301 16.976 41.117 16.976C40.605 16.976 40.205 17.056 39.901 17.248C39.549 17.456 39.309 17.776 39.213 18.208L37.405 18.064C37.581 17.152 38.029 16.48 38.749 16.064C39.357 15.68 40.189 15.504 41.245 15.504ZM42.893 20.224L41.213 20.272C39.757 20.304 39.037 20.816 39.037 21.808C39.037 22.096 39.149 22.336 39.405 22.528C39.661 22.72 39.981 22.832 40.381 22.832C41.085 22.832 41.677 22.624 42.157 22.224C42.637 21.808 42.893 21.28 42.893 20.64V20.224ZM47.8733 12.352C48.2253 12.352 48.5293 12.464 48.7693 12.688C48.9933 12.912 49.1213 13.2 49.1213 13.552C49.1213 13.904 48.9933 14.208 48.7533 14.432C48.5133 14.656 48.2253 14.768 47.8733 14.768C47.5213 14.768 47.2333 14.656 46.9933 14.432C46.7533 14.192 46.6413 13.904 46.6413 13.552C46.6413 13.2 46.7533 12.912 46.9933 12.688C47.2333 12.464 47.5213 12.352 47.8733 12.352ZM46.9613 15.728H48.7853V24H46.9613V15.728ZM55.1115 15.504C56.3275 15.504 57.1915 15.952 57.7195 16.848C58.1035 16.336 58.5035 15.984 58.9195 15.792C59.2875 15.6 59.7515 15.504 60.3115 15.504C61.1595 15.504 61.8635 15.776 62.4395 16.352C62.9835 16.928 63.2715 17.664 63.2715 18.576V24H61.4475V18.896C61.4475 18.24 61.3035 17.76 61.0315 17.472C60.7435 17.168 60.2955 17.024 59.6555 17.024C59.2075 17.024 58.8395 17.184 58.5355 17.536C58.2155 17.872 58.0715 18.336 58.0715 18.944V24H56.2475V18.912C56.2475 17.648 55.7035 17.024 54.6155 17.024C54.0875 17.024 53.6715 17.216 53.3515 17.632C53.0315 18.016 52.8715 18.496 52.8715 19.04V24H51.0475V15.728H52.8715V16.576C53.5595 15.856 54.3115 15.504 55.1115 15.504ZM74.4203 15.504C74.8203 15.504 75.1723 15.568 75.4603 15.712V17.536C75.0443 17.408 74.6603 17.36 74.2763 17.36C73.7963 17.36 73.3643 17.536 72.9803 17.92C72.5323 18.352 72.3243 18.912 72.3243 19.616V24H70.5163V15.728H72.3243V16.912C72.5483 16.496 72.8043 16.176 73.1083 15.952C73.4763 15.648 73.9083 15.504 74.4203 15.504ZM80.0206 15.504C81.3806 15.504 82.4206 15.952 83.1406 16.88C83.7966 17.712 84.1326 18.88 84.1326 20.368H77.9406C78.0046 21.136 78.2126 21.728 78.5646 22.128C78.9166 22.528 79.4286 22.736 80.0846 22.736C80.6446 22.736 81.0926 22.608 81.4446 22.352C81.7166 22.144 81.9566 21.808 82.1806 21.344H84.0047C83.8126 22.112 83.4286 22.768 82.8526 23.28C82.1166 23.904 81.2046 24.224 80.1006 24.224C78.8686 24.224 77.8926 23.84 77.1726 23.088C76.4046 22.304 76.0206 21.232 76.0206 19.856C76.0206 18.624 76.3726 17.6 77.1086 16.768C77.8126 15.92 78.7886 15.504 80.0206 15.504ZM80.0686 16.992C79.4606 16.992 78.9966 17.152 78.6446 17.504C78.3086 17.84 78.0846 18.336 77.9726 18.992H82.2286C82.0686 17.648 81.3486 16.992 80.0686 16.992ZM84.6988 15.728H86.7148L88.3628 21.84L89.9948 15.728H91.6748L93.3068 21.84L94.9548 15.728H96.9708L94.1868 24H92.4908L90.8428 17.952L89.1788 24H87.4828L84.6988 15.728ZM101.776 15.504C102.992 15.504 103.904 15.808 104.48 16.416C104.992 16.944 105.248 17.712 105.248 18.72V24H103.552V22.912C103.232 23.328 102.832 23.632 102.368 23.856C101.84 24.096 101.216 24.224 100.496 24.224C99.6323 24.224 98.9603 24 98.4643 23.568C97.9523 23.12 97.6963 22.56 97.6963 21.872C97.6963 20.944 98.0483 20.224 98.7843 19.728C99.4563 19.248 100.4 18.992 101.616 18.96L103.424 18.912V18.592C103.424 17.504 102.832 16.976 101.648 16.976C101.136 16.976 100.736 17.056 100.432 17.248C100.08 17.456 99.8403 17.776 99.7443 18.208L97.9363 18.064C98.1123 17.152 98.5603 16.48 99.2803 16.064C99.8883 15.68 100.72 15.504 101.776 15.504ZM103.424 20.224L101.744 20.272C100.288 20.304 99.5683 20.816 99.5683 21.808C99.5683 22.096 99.6803 22.336 99.9363 22.528C100.192 22.72 100.512 22.832 100.912 22.832C101.616 22.832 102.208 22.624 102.688 22.224C103.168 21.808 103.424 21.28 103.424 20.64V20.224ZM111.077 15.504C111.477 15.504 111.829 15.568 112.117 15.712V17.536C111.701 17.408 111.317 17.36 110.933 17.36C110.453 17.36 110.021 17.536 109.637 17.92C109.189 18.352 108.981 18.912 108.981 19.616V24H107.173V15.728H108.981V16.912C109.205 16.496 109.461 16.176 109.765 15.952C110.133 15.648 110.565 15.504 111.077 15.504ZM119.045 12.352H120.869V24H119.173V23.12C118.597 23.856 117.765 24.224 116.677 24.224C115.445 24.224 114.485 23.792 113.797 22.928C113.157 22.128 112.837 21.088 112.837 19.824C112.837 18.608 113.141 17.6 113.781 16.8C114.453 15.936 115.397 15.504 116.581 15.504C117.541 15.504 118.357 15.952 119.045 16.864V12.352ZM117.013 16.976C116.181 16.976 115.589 17.248 115.205 17.792C114.869 18.256 114.709 18.928 114.709 19.824C114.709 20.72 114.853 21.408 115.173 21.888C115.541 22.464 116.133 22.752 116.949 22.752C117.653 22.752 118.213 22.464 118.597 21.904C118.933 21.392 119.109 20.72 119.109 19.92V19.792C119.109 18.912 118.885 18.208 118.469 17.696C118.085 17.216 117.589 16.976 117.013 16.976Z" fill="white"/>
<defs>
<linearGradient id="paint0_linear_12418_5074" x1="12.8494" y1="153.734" x2="301.38" y2="153.734" gradientUnits="userSpaceOnUse">
<stop stop-color="#FA966E"/>
<stop offset="1" stop-color="#FF5D5E"/>
</linearGradient>
<linearGradient id="paint1_linear_12418_5074" x1="-3.70862" y1="13.8308" x2="145.936" y2="13.8308" gradientUnits="userSpaceOnUse">
<stop stop-color="#FA966E"/>
<stop offset="1" stop-color="#FF5D5E"/>
</linearGradient>
</defs>
</svg>
