<svg width="335" height="270" viewBox="0 0 335 270" fill="none" xmlns="http://www.w3.org/2000/svg">
<rect y="12" width="335" height="258" rx="12" fill="white"/>
<path d="M28.316 63.168H29.684C31.934 65.688 34.526 67.686 37.478 69.126L36.452 70.944C35.498 70.44 34.598 69.882 33.77 69.288V70.53H24.23V69.27C23.366 69.864 22.448 70.44 21.476 70.98L20.468 69.144C23.618 67.542 26.228 65.544 28.316 63.168ZM25.004 68.712H32.978C31.502 67.578 30.17 66.3 29 64.878C27.866 66.282 26.534 67.56 25.004 68.712ZM34.94 72.294V79.854H33.122V78.936H24.878V79.854H23.06V72.294H34.94ZM24.878 77.154H33.122V74.058H24.878V77.154ZM39.188 65.562H41.6V63.312H43.472V65.562H45.632V67.362H43.472V69.774H45.884V71.574H43.382L43.274 72.6C44.246 73.464 45.218 74.436 46.19 75.516L45.146 77.118C44.282 75.948 43.562 75.03 42.986 74.364C42.446 76.74 41.51 78.594 40.178 79.944L38.774 78.702C40.34 77.118 41.258 74.742 41.51 71.574H38.954V69.774H41.6V67.362H39.188V65.562ZM54.182 63.816V73.968H52.364V65.544H48.134V73.968H46.316V63.816H54.182ZM53.462 79.602H51.842C50.78 79.602 50.258 79.026 50.258 77.91V75.03C50.06 75.552 49.844 76.038 49.592 76.47C48.692 77.964 47.216 79.116 45.2 79.926L44.228 78.36C46.208 77.532 47.558 76.488 48.242 75.246C48.926 73.914 49.322 72.168 49.394 70.044V66.678H51.104V70.044C51.068 71.52 50.888 72.816 50.6 73.95H51.968V77.532C51.968 77.802 52.094 77.946 52.382 77.946H53.156C53.336 77.946 53.462 77.856 53.552 77.676C53.66 77.46 53.732 76.866 53.768 75.858L55.388 76.38C55.262 77.946 55.046 78.882 54.758 79.188C54.47 79.458 54.038 79.602 53.462 79.602ZM57.08 64.5H64.046V63.24H65.954V64.5H72.902V66.192H65.954V67.326H71.966V69H58.07V67.326H64.046V66.192H57.08V64.5ZM64.244 71.574H60.248V72.564C60.248 72.762 60.23 72.96 60.23 73.158H64.244V71.574ZM66.134 73.158H69.824V71.574H66.134V73.158ZM60.086 74.814C59.798 76.776 59.168 78.522 58.196 80.034L56.648 78.648C57.8 77.082 58.376 75.048 58.394 72.564V69.918H71.642V74.814H60.086ZM81.11 64.032V76.974H77.15V78.288H75.278V64.032H81.11ZM77.15 75.138H79.292V71.268H77.15V75.138ZM77.15 69.45H79.292V65.868H77.15V69.45ZM84.584 69.774V72.33H88.598V69.774H84.584ZM88.598 68.028V65.472H84.584V68.028H88.598ZM84.458 74.094C84.206 76.47 83.45 78.45 82.19 80.034L80.696 78.666C81.992 77.046 82.64 74.958 82.676 72.438V63.654H90.506V77.766C90.506 79.062 89.84 79.71 88.544 79.71H86.276L85.754 77.874C86.546 77.928 87.284 77.964 87.932 77.964C88.364 77.964 88.598 77.676 88.598 77.1V74.094H84.458ZM96.5 66.732C96.896 66.732 97.22 66.858 97.508 67.146C97.778 67.416 97.922 67.758 97.922 68.154C97.922 68.55 97.778 68.874 97.508 69.144C97.22 69.414 96.896 69.558 96.5 69.558C96.104 69.558 95.762 69.414 95.492 69.144C95.222 68.874 95.096 68.55 95.096 68.154C95.096 67.758 95.222 67.416 95.492 67.146C95.762 66.858 96.104 66.732 96.5 66.732ZM96.5 73.32C96.896 73.32 97.22 73.446 97.508 73.734C97.778 74.004 97.922 74.346 97.922 74.742C97.922 75.138 97.778 75.462 97.508 75.732C97.22 76.002 96.896 76.146 96.5 76.146C96.104 76.146 95.762 76.002 95.492 75.732C95.222 75.462 95.096 75.138 95.096 74.742C95.096 74.346 95.222 74.004 95.492 73.734C95.762 73.446 96.104 73.32 96.5 73.32ZM32.06 175.578C31.988 175.83 31.934 176.064 31.862 176.316C32.258 178.098 32.744 179.664 33.338 181.014C33.878 179.43 34.184 177.612 34.256 175.578H32.06ZM32.474 182.94C31.898 181.752 31.394 180.42 30.962 178.944C30.692 179.538 30.404 180.096 30.116 180.6L28.946 179.142C29.936 177.162 30.602 174.516 30.944 171.204L32.78 171.528C32.672 172.32 32.564 173.058 32.438 173.76H36.938V175.578H35.948C35.84 178.476 35.318 180.942 34.364 182.994C35.228 184.434 36.254 185.568 37.442 186.378L36.398 187.908C35.282 187.08 34.292 186 33.446 184.668C32.6 185.928 31.556 187.008 30.332 187.89L29.36 186.306C30.656 185.442 31.7 184.326 32.474 182.94ZM23.96 179.556L25.724 179.772C25.616 180.042 25.526 180.312 25.436 180.564H29.054V182.076C28.748 183.12 28.208 184.056 27.416 184.848C28.118 185.154 28.802 185.478 29.468 185.838L28.46 187.314C27.776 186.9 26.948 186.468 25.976 186.018C24.788 186.774 23.312 187.368 21.53 187.836L20.666 186.27C21.962 185.982 23.078 185.604 24.032 185.172C23.312 184.866 22.538 184.56 21.746 184.254C22.178 183.534 22.556 182.832 22.88 182.166H21.098V180.564H23.6C23.726 180.204 23.852 179.88 23.96 179.556ZM25.724 184.146C26.462 183.57 27.02 182.904 27.398 182.166H24.734C24.5 182.634 24.248 183.084 23.996 183.516C24.572 183.696 25.148 183.912 25.724 184.146ZM22.862 171.474C23.24 172.14 23.582 172.86 23.87 173.634L22.538 174.228C22.178 173.364 21.8 172.608 21.404 171.942L22.862 171.474ZM27.92 171.456L29.234 172.086C28.874 172.842 28.424 173.58 27.866 174.3L26.552 173.634C27.128 172.896 27.596 172.176 27.92 171.456ZM21.134 174.498H24.482V171.24H26.21V174.498H29.27V176.136H26.21V176.172C27.146 176.55 28.1 176.982 29.072 177.468L28.1 178.944C27.344 178.35 26.714 177.882 26.21 177.54V179.43H24.482V176.604C23.87 177.828 22.934 178.89 21.638 179.826L20.702 178.314C21.872 177.648 22.736 176.928 23.276 176.136H21.134V174.498ZM40.97 187.71H39.44L39.044 185.946C39.494 186.018 39.926 186.072 40.34 186.072C40.718 186.072 40.916 185.838 40.916 185.388V181.752C40.304 181.968 39.71 182.184 39.098 182.382L38.612 180.528C39.386 180.348 40.16 180.132 40.916 179.88V176.28H38.972V174.462H40.916V171.276H42.752V174.462H44.282V176.28H42.752V179.142C43.256 178.908 43.742 178.674 44.21 178.422V180.258C43.706 180.51 43.22 180.744 42.752 180.978V185.856C42.752 187.08 42.158 187.71 40.97 187.71ZM46.658 179.952C46.442 182.958 45.758 185.604 44.624 187.908L43.148 186.594C44.318 184.308 44.912 181.356 44.93 177.756V171.78H54.794V176.55H51.554V178.242H55.19V179.952H51.554V181.68H54.398V187.872H52.67V187.134H48.62V187.872H46.892V181.68H49.718V179.952H46.658ZM49.718 176.55H46.748V177.756C46.748 177.918 46.73 178.08 46.73 178.242H49.718V176.55ZM48.62 185.478H52.67V183.336H48.62V185.478ZM52.958 173.49H46.748V174.894H52.958V173.49ZM72.182 182.094H62.93V180.51H70.364V179.664H63.326V178.08H70.364V177.216H63.596V176.298C63.452 176.406 63.308 176.496 63.182 176.586L62.12 175.2C61.796 176.136 61.454 177.09 61.094 178.062C61.958 179.736 62.426 181.176 62.498 182.4C62.498 183.264 62.354 183.894 62.066 184.29C61.598 184.758 60.824 184.992 59.726 185.01L59.096 183.12C59.51 183.174 59.852 183.21 60.104 183.21C60.32 183.174 60.482 183.102 60.572 182.994C60.644 182.886 60.68 182.688 60.68 182.4C60.68 181.194 60.212 179.844 59.276 178.35C59.978 176.568 60.536 174.966 60.95 173.544H59.06V187.89H57.224V171.78H62.786V173.256C62.588 173.868 62.39 174.462 62.174 175.074C63.812 173.994 64.91 172.698 65.486 171.15L67.358 171.384C67.25 171.708 67.124 172.014 66.98 172.302H70.976V173.652C70.526 174.39 70.076 175.038 69.626 175.596H72.182V182.094ZM66.026 173.904C65.558 174.516 65.036 175.074 64.46 175.596H67.592C68.006 175.11 68.438 174.552 68.87 173.904H66.026ZM72.092 182.49C72.65 183.606 73.136 184.812 73.568 186.09L72.002 186.792C71.552 185.352 71.048 184.092 70.508 182.994L72.092 182.49ZM63.056 182.904L64.676 183.246C64.334 184.812 63.848 186.162 63.236 187.296L61.688 186.306C62.318 185.226 62.768 184.092 63.056 182.904ZM69.338 187.728H66.782C65.63 187.728 65.072 187.044 65.072 185.676V182.76H66.8V185.316C66.8 185.82 66.962 186.072 67.322 186.072H69.05C69.194 186.072 69.32 186 69.41 185.874C69.518 185.73 69.59 185.316 69.626 184.596L71.228 185.136C71.102 186.396 70.886 187.152 70.598 187.386C70.31 187.602 69.896 187.728 69.338 187.728ZM68.51 182.238C69.122 182.976 69.608 183.624 69.95 184.182L68.564 185.136C68.222 184.524 67.754 183.84 67.16 183.084L68.51 182.238ZM88.76 178.494C89.714 181.086 90.56 184.038 91.316 187.386L89.444 187.872C89.3 187.224 89.174 186.594 89.03 186C86.69 186.432 84.17 186.828 81.47 187.224L81.128 185.424C81.632 185.28 81.92 185.082 82.01 184.812L85.61 171.726L87.482 171.978L83.846 185.01C85.682 184.74 87.266 184.47 88.598 184.218C88.148 182.454 87.644 180.726 87.086 179.07L88.76 178.494ZM75.116 175.866H78.104V173.814C77.276 173.922 76.43 174.012 75.566 174.084L75.17 172.284C77.762 172.104 80.066 171.762 82.1 171.258L82.748 172.986C81.884 173.202 80.966 173.382 79.994 173.544V175.866H82.694V177.684H79.994V178.188C80.84 178.98 81.704 179.862 82.568 180.834L81.524 182.418C80.93 181.428 80.426 180.618 79.994 180.006V187.818H78.104V180.492C77.42 181.95 76.574 183.282 75.566 184.506L74.72 182.346C76.196 180.978 77.276 179.412 77.96 177.684H75.116V175.866ZM96.5 174.732C96.896 174.732 97.22 174.858 97.508 175.146C97.778 175.416 97.922 175.758 97.922 176.154C97.922 176.55 97.778 176.874 97.508 177.144C97.22 177.414 96.896 177.558 96.5 177.558C96.104 177.558 95.762 177.414 95.492 177.144C95.222 176.874 95.096 176.55 95.096 176.154C95.096 175.758 95.222 175.416 95.492 175.146C95.762 174.858 96.104 174.732 96.5 174.732ZM96.5 181.32C96.896 181.32 97.22 181.446 97.508 181.734C97.778 182.004 97.922 182.346 97.922 182.742C97.922 183.138 97.778 183.462 97.508 183.732C97.22 184.002 96.896 184.146 96.5 184.146C96.104 184.146 95.762 184.002 95.492 183.732C95.222 183.462 95.096 183.138 95.096 182.742C95.096 182.346 95.222 182.004 95.492 181.734C95.762 181.446 96.104 181.32 96.5 181.32Z" fill="#FF605F"/>
<path d="M22.556 96.384V98.484H25.604V96.384H22.556ZM22.508 99.276C22.376 100.812 21.932 102.084 21.164 103.092L20.504 102.504C21.272 101.436 21.668 100.08 21.692 98.436V92.676H30.632V101.664C30.632 102.504 30.212 102.924 29.372 102.924H27.992L27.764 102.072C28.244 102.096 28.688 102.12 29.096 102.12C29.528 102.12 29.756 101.868 29.756 101.364V99.276H26.492V102.792H25.604V99.276H22.508ZM29.756 98.484V96.384H26.492V98.484H29.756ZM29.756 95.58V93.516H26.492V95.58H29.756ZM25.604 93.516H22.556V95.58H25.604V93.516ZM41.588 94.524H34.736V96.864H41.588V94.524ZM34.736 97.704C34.676 99.852 34.112 101.7 33.032 103.248L32.396 102.672C33.368 101.328 33.86 99.576 33.884 97.428V93.672H37.796C37.58 93.168 37.352 92.7 37.1 92.268L38.024 92.124C38.24 92.58 38.456 93.096 38.672 93.672H42.464V97.704H34.736ZM44.684 97.896H55.316V98.64H50.252L49.844 99.504H54.512V102.132C54.512 102.828 54.152 103.188 53.444 103.188H52.592L52.4 102.444L53.204 102.48C53.516 102.48 53.672 102.3 53.672 101.952V100.248H51.74V103.092H50.912V100.248H49.136V103.092H48.308V100.248H46.508V103.236H45.692V99.504H48.968L49.376 98.64H44.684V97.896ZM45.416 92.604H54.596V93.312H50.42V94.068H55.028V96.54H54.2V94.752H50.42V97.404H49.58V94.752H45.8V96.54H44.972V94.068H49.58V93.312H45.416V92.604ZM46.448 95.424H48.944V96H46.448V95.424ZM46.448 96.624H48.944V97.2H46.448V96.624ZM51.044 95.424H53.528V96H51.044V95.424ZM51.056 96.624H53.564V97.2H51.056V96.624ZM60.308 94.416H62.264V93.768H59.768V93.072H61.88C61.76 92.796 61.616 92.544 61.472 92.304L62.288 92.172C62.42 92.436 62.552 92.736 62.672 93.072H64.172C64.34 92.772 64.46 92.46 64.544 92.148L65.384 92.268C65.288 92.556 65.168 92.832 65.012 93.072H67.04V93.768H64.628V94.416H66.608V98.556H65.684V99.192H67.16V99.876H65.684V100.752C65.684 101.316 65.348 101.604 64.7 101.604H63.5L63.344 100.896C63.728 100.92 64.1 100.944 64.448 100.944C64.712 100.944 64.856 100.812 64.856 100.572V99.876H61.292C61.88 100.224 62.372 100.572 62.768 100.908L62.264 101.412C61.904 101.064 61.424 100.704 60.8 100.32L61.256 99.876H59.732V99.192H64.856V98.556H60.308V94.416ZM63.908 94.416V93.768H62.984V94.416H63.908ZM65.852 97.932V97.32H61.064V97.932H65.852ZM61.064 96.756H65.852V96.252H64.748C64.184 96.252 63.908 96.024 63.908 95.568V95.016H62.972C62.912 95.7 62.504 96.204 61.748 96.54L61.256 96.096C61.868 95.856 62.204 95.496 62.252 95.016H61.064V96.756ZM64.628 95.016V95.496C64.628 95.652 64.736 95.736 64.964 95.736H65.852V95.016H64.628ZM57.5 92.388C58.292 93.012 58.952 93.636 59.492 94.26L58.892 94.86C58.412 94.26 57.752 93.624 56.912 92.952L57.5 92.388ZM64.508 102.984C63.836 102.984 63.116 102.972 62.336 102.96C61.556 102.948 60.92 102.876 60.428 102.744C59.948 102.6 59.528 102.312 59.144 101.868C58.976 101.664 58.82 101.568 58.676 101.568C58.388 101.568 57.908 102.108 57.248 103.212L56.636 102.648C57.26 101.628 57.812 101.016 58.292 100.812V97.152H56.648V96.36H59.096V100.848C59.192 100.92 59.3 101.004 59.396 101.124C59.696 101.472 60.02 101.736 60.356 101.904C60.74 102.072 61.28 102.156 62 102.18C62.648 102.192 63.44 102.204 64.388 102.204C64.952 102.204 65.528 102.192 66.116 102.192C66.692 102.18 67.148 102.168 67.46 102.144L67.256 102.984H64.508ZM68.9 96.936H75.704V95.136H76.58V96.936H79.088V97.764H76.58V101.928C76.58 102.72 76.172 103.116 75.356 103.116H73.76L73.568 102.288C74.096 102.312 74.588 102.336 75.056 102.336C75.488 102.336 75.704 102.12 75.704 101.712V97.764H68.9V96.936ZM71.204 98.472C72.128 99.168 72.896 99.876 73.52 100.572L72.896 101.208C72.332 100.536 71.564 99.804 70.604 99.036L71.204 98.472ZM78.824 93.384V95.952H77.948V94.224H70.04V95.94H69.164V93.384H73.64C73.448 92.952 73.232 92.568 73.016 92.208L73.952 92.064C74.156 92.46 74.348 92.904 74.54 93.384H78.824ZM81.476 96.108H85.568V92.316H86.48V96.108H90.524V103.116H89.648V102.648H81.404V101.808H89.648V99.744H82.04V98.916H89.648V96.948H81.476V96.108ZM89.78 92.832L90.56 93.192C90.176 94.032 89.672 94.836 89.048 95.616L88.268 95.208C88.892 94.416 89.396 93.624 89.78 92.832ZM82.328 92.94C82.988 93.768 83.492 94.5 83.852 95.124L83.12 95.628C82.748 94.956 82.244 94.212 81.596 93.396L82.328 92.94ZM103.076 94.512C103.076 96.936 103.016 98.412 102.896 98.94C102.776 99.444 102.26 99.708 101.36 99.708H101.288L101.048 98.856C101.228 98.868 101.396 98.88 101.54 98.88C101.864 98.88 102.068 98.748 102.14 98.484C102.2 98.232 102.236 97.284 102.248 95.652L100.496 96.18V100.716H99.656V96.432L97.904 96.96V101.616C97.904 101.976 98.108 102.168 98.528 102.168H101.9C102.152 102.168 102.332 102.084 102.428 101.928C102.56 101.736 102.656 101.148 102.704 100.176L103.508 100.428C103.424 101.64 103.268 102.372 103.028 102.636C102.824 102.864 102.5 102.984 102.056 102.984H98.264C97.46 102.984 97.064 102.576 97.064 101.784V97.212L96.056 97.524V96.684L97.064 96.372V93.42H97.904V96.108L99.656 95.568V92.196H100.496V95.304L103.076 94.512ZM96.212 99.612V100.464C95.108 100.98 93.92 101.412 92.648 101.748L92.432 100.884C92.936 100.776 93.44 100.644 93.944 100.5V96.228H92.576V95.388H93.944V92.292H94.796V95.388H96.044V96.228H94.796V100.212C95.276 100.032 95.756 99.828 96.212 99.612ZM110.984 92.196H111.872V94.128H114.956V94.968H111.872V97.212H115.28V98.052H111.344C110.576 99.888 109.904 101.184 109.328 101.94C110.804 101.784 112.28 101.556 113.768 101.268C113.42 100.548 113.06 99.888 112.7 99.288L113.528 99.012C114.248 100.212 114.884 101.508 115.424 102.876L114.608 103.236C114.44 102.816 114.284 102.42 114.116 102.036C112.304 102.372 110.336 102.648 108.212 102.852L108.008 102.096C108.08 102.072 108.14 102.036 108.188 102.012C108.752 101.52 109.496 100.2 110.408 98.052H107.564V97.212H110.984V94.968H108.14V94.128H110.984V92.196ZM105.536 92.388C106.316 92.976 106.976 93.564 107.504 94.164L106.892 94.788C106.412 94.212 105.764 93.612 104.924 92.976L105.536 92.388ZM105.248 95.196C105.968 95.784 106.568 96.384 107.06 96.984L106.436 97.596C106.004 97.032 105.404 96.432 104.636 95.784L105.248 95.196ZM106.628 98.52L107.408 98.832C106.892 100.344 106.316 101.772 105.68 103.104L104.816 102.732C105.512 101.364 106.124 99.96 106.628 98.52ZM126.416 97.68H123.86V98.7H126.692V99.468H123.86V100.584H127.352V101.376H123.86V103.224H122.972V101.376H119.96V100.584H122.972V99.468H120.548V98.7H122.972V97.68H120.692V96.912H122.972V95.844H120.152V95.088H122.972V94.008H120.764V93.24H122.972V92.196H123.86V93.24H126.416V95.088H127.484V95.844H126.416V97.68ZM123.86 94.008V95.088H125.6V94.008H123.86ZM123.86 95.844V96.912H125.6V95.844H123.86ZM118.136 98.124C117.728 98.556 117.272 98.952 116.792 99.324L116.54 98.496C117.692 97.56 118.532 96.504 119.06 95.316L119.816 95.652C119.576 96.156 119.3 96.648 118.976 97.104V103.2H118.136V98.124ZM118.952 92.16L119.708 92.508C119.108 93.816 118.124 94.968 116.768 95.976L116.516 95.136C117.632 94.272 118.448 93.276 118.952 92.16ZM134.984 92.196H135.872V94.128H138.956V94.968H135.872V97.212H139.28V98.052H135.344C134.576 99.888 133.904 101.184 133.328 101.94C134.804 101.784 136.28 101.556 137.768 101.268C137.42 100.548 137.06 99.888 136.7 99.288L137.528 99.012C138.248 100.212 138.884 101.508 139.424 102.876L138.608 103.236C138.44 102.816 138.284 102.42 138.116 102.036C136.304 102.372 134.336 102.648 132.212 102.852L132.008 102.096C132.08 102.072 132.14 102.036 132.188 102.012C132.752 101.52 133.496 100.2 134.408 98.052H131.564V97.212H134.984V94.968H132.14V94.128H134.984V92.196ZM129.536 92.388C130.316 92.976 130.976 93.564 131.504 94.164L130.892 94.788C130.412 94.212 129.764 93.612 128.924 92.976L129.536 92.388ZM129.248 95.196C129.968 95.784 130.568 96.384 131.06 96.984L130.436 97.596C130.004 97.032 129.404 96.432 128.636 95.784L129.248 95.196ZM130.628 98.52L131.408 98.832C130.892 100.344 130.316 101.772 129.68 103.104L128.816 102.732C129.512 101.364 130.124 99.96 130.628 98.52ZM140.852 93.936H142.568V92.292H143.432V93.936H145.028V94.764H143.432V96.744H145.196V97.584H143.384C143.36 97.896 143.324 98.196 143.288 98.484C143.96 99.12 144.656 99.852 145.352 100.668L144.872 101.412C144.2 100.5 143.624 99.792 143.156 99.276C142.808 100.968 142.148 102.288 141.164 103.236L140.528 102.672C141.692 101.544 142.352 99.852 142.52 97.584H140.684V96.744H142.568V94.764H140.852V93.936ZM150.596 92.7V99.288H149.768V93.504H146.564V99.288H145.736V92.7H150.596ZM150.272 103.044H149.276C148.652 103.044 148.352 102.708 148.352 102.048V99.348H149.132V101.868C149.132 102.132 149.252 102.264 149.516 102.264H150.128C150.332 102.264 150.476 102.204 150.56 102.084C150.668 101.928 150.74 101.472 150.788 100.728L151.532 100.968C151.46 101.952 151.316 102.552 151.124 102.768C150.932 102.948 150.656 103.044 150.272 103.044ZM147.776 94.5H148.556V96.624C148.532 98.412 148.208 99.84 147.596 100.908C146.996 101.892 146.012 102.672 144.668 103.236L144.212 102.504C145.532 101.964 146.456 101.232 146.984 100.32C147.476 99.372 147.74 98.136 147.776 96.624V94.5ZM154.232 100.572C154.496 100.572 154.724 100.68 154.892 100.908C155.048 101.124 155.132 101.4 155.132 101.748C155.132 102.276 154.976 102.744 154.664 103.152C154.352 103.536 153.932 103.8 153.428 103.932V103.344C153.74 103.236 153.992 103.056 154.184 102.816C154.352 102.564 154.448 102.3 154.448 102.012C154.4 102.036 154.304 102.06 154.184 102.06C153.98 102.06 153.812 101.988 153.668 101.844C153.524 101.7 153.452 101.52 153.452 101.316C153.452 101.088 153.524 100.908 153.668 100.776C153.812 100.632 153.992 100.572 154.232 100.572ZM165.164 92.736H174.86V93.576H170.396V98.112H175.316V98.94H170.396V103.188H169.508V98.94H164.684V98.112H169.508V93.576H165.164V92.736ZM166.628 94.344C167.084 95.184 167.516 96.096 167.924 97.092L167.12 97.488C166.712 96.456 166.28 95.544 165.824 94.74L166.628 94.344ZM173.432 94.284L174.224 94.656C173.864 95.604 173.384 96.528 172.796 97.44L172.028 97.044C172.616 96.108 173.084 95.196 173.432 94.284ZM186.008 98.208V103.212H185.132V102.612H178.868V103.212H177.992V98.208H186.008ZM178.868 101.784H185.132V99.036H178.868V101.784ZM177.14 96.972L176.972 96.156C178.028 95.796 179.336 94.464 180.896 92.172L181.784 92.472C180.704 94.008 179.612 95.232 178.532 96.12C180.836 96.024 183.02 95.868 185.084 95.676C184.628 95.028 184.16 94.416 183.68 93.864L184.46 93.492C185.492 94.692 186.452 96.024 187.34 97.476L186.5 97.884C186.2 97.38 185.9 96.912 185.612 96.456C183.08 96.684 180.26 96.852 177.14 96.972ZM188.9 92.82H199.1V93.672H195.188C194.972 94.164 194.72 94.644 194.444 95.1V103.224H193.556V96.372C192.428 97.776 190.952 99.024 189.128 100.116L188.564 99.36C191.276 97.8 193.172 95.904 194.228 93.672H188.9V92.82ZM195.956 96.048C197.336 97.14 198.488 98.232 199.424 99.324L198.764 99.996C197.924 98.94 196.784 97.824 195.332 96.636L195.956 96.048ZM202.484 92.628H209.432V93.444C208.592 93.996 207.632 94.536 206.576 95.064V95.856H208.052V96.66H206.576V97.788H208.292V98.58H206.576V99.708H208.808V100.524H206.576V102.216C206.576 102.864 206.264 103.2 205.64 103.2H204.26L204.032 102.396C204.428 102.408 204.86 102.42 205.328 102.42C205.568 102.42 205.7 102.252 205.7 101.916V100.524H203.372V99.708H205.7V98.58H203.804V97.788H205.7V96.66H204.068V95.856H205.7V94.668C206.78 94.164 207.608 93.756 208.172 93.444H202.484V92.628ZM210.812 95.172L211.52 95.604C211.232 96.132 210.944 96.552 210.656 96.888C210.392 97.188 210.068 97.488 209.672 97.788C209.984 99.372 210.596 100.752 211.508 101.916L210.896 102.528C209.384 100.536 208.628 98.052 208.616 95.076H209.408C209.408 95.736 209.444 96.36 209.528 96.96C209.72 96.78 209.9 96.588 210.068 96.384C210.332 96.048 210.584 95.64 210.812 95.172ZM200.708 95.508H203.468V96.252C203.312 98.94 202.496 101.04 201.008 102.528L200.456 101.856C201.752 100.5 202.508 98.652 202.7 96.324H200.708V95.508ZM217.412 93.024H222.632V100.296H217.412V93.024ZM221.804 99.516V97.068H218.24V99.516H221.804ZM218.24 96.3H221.804V93.804H218.24V96.3ZM216.26 101.844H223.484V102.66H216.26V101.844ZM216.8 96.996V97.86C216.284 98.124 215.756 98.364 215.216 98.58V101.88C215.216 102.636 214.856 103.02 214.16 103.02H213.02L212.828 102.192C213.188 102.228 213.524 102.252 213.86 102.252C214.208 102.252 214.388 102.048 214.388 101.664V98.892C213.836 99.096 213.272 99.276 212.696 99.444L212.492 98.616C213.14 98.46 213.776 98.28 214.388 98.064V95.22H212.72V94.38H214.388V92.22H215.216V94.38H216.728V95.22H215.216V97.752C215.756 97.524 216.284 97.272 216.8 96.996ZM226.676 95.868H229.592C229.652 95.328 229.688 94.752 229.688 94.128H230.528C230.528 94.752 230.492 95.328 230.432 95.868H233.324V96.684H230.324C230.276 96.948 230.216 97.212 230.144 97.452C231.416 98.472 232.496 99.492 233.36 100.512L232.736 101.136C232.028 100.2 231.08 99.228 229.904 98.196C229.412 99.396 228.464 100.38 227.048 101.16L226.508 100.5C227.852 99.768 228.752 98.844 229.184 97.716C229.292 97.392 229.388 97.044 229.46 96.684H226.676V95.868ZM234.848 92.748V103.176H233.984V102.636H226.016V103.176H225.152V92.748H234.848ZM226.016 101.82H233.984V93.564H226.016V101.82ZM236.744 95.796H240.788C241.016 95.484 241.196 95.16 241.328 94.824C240.26 94.872 239.156 94.908 238.016 94.944L237.884 94.188C238.664 93.996 239.648 93.312 240.836 92.136L241.676 92.424C240.98 93.144 240.284 93.72 239.6 94.164C241.208 94.116 242.72 94.032 244.16 93.936C243.812 93.624 243.44 93.312 243.044 92.988L243.704 92.568C244.892 93.492 245.804 94.296 246.428 94.98L245.708 95.484C245.468 95.196 245.192 94.92 244.892 94.632C244.028 94.68 243.128 94.74 242.204 94.788C242.072 95.136 241.904 95.472 241.712 95.796H247.184V96.588H244.196C244.916 97.308 246.02 97.884 247.508 98.304L247.136 99.096C245.336 98.448 244.052 97.62 243.284 96.588H241.112C240.176 97.632 238.772 98.484 236.9 99.156L236.504 98.388C238.016 97.944 239.204 97.344 240.056 96.588H236.744V95.796ZM242.036 97.008L242.708 97.416C241.904 98.424 240.656 99.216 238.964 99.804L238.592 99.132C240.152 98.604 241.304 97.896 242.036 97.008ZM245.132 98.868L245.9 99.204C244.796 101.172 242.396 102.552 238.712 103.332L238.22 102.66C241.844 101.892 244.148 100.62 245.132 98.868ZM243.56 98.004L244.232 98.46C242.828 100.056 241.052 101.04 238.892 101.424L238.4 100.764C240.62 100.404 242.336 99.48 243.56 98.004ZM256.448 98.52C256.076 98.256 255.776 97.992 255.536 97.716H252.428C252.164 98.004 251.864 98.268 251.516 98.52H256.448ZM256.424 97.716C257.084 98.244 258.068 98.652 259.364 98.964L259.016 99.696C258.368 99.492 257.792 99.264 257.3 99.024V101.328H256.46V99.216H251.66V101.328H250.82V98.952C250.292 99.228 249.704 99.48 249.044 99.72L248.6 99C249.896 98.652 250.88 98.22 251.528 97.716H248.924V97.02H252.188V96.3H250.652V95.664H252.188V94.944H250.412V94.284H252.188V93.612H249.968V94.824H249.128V92.88H253.604C253.46 92.64 253.304 92.412 253.148 92.22L254.06 92.064C254.204 92.304 254.36 92.568 254.504 92.88H258.872V94.824H258.032V93.612H255.8V94.284H257.588V94.944H255.8V95.664H257.36V96.3H255.8V97.02H259.1V97.716H256.424ZM254.96 93.612H253.04V94.284H254.96V93.612ZM253.04 97.02H254.96V96.3H253.04V97.02ZM254.96 95.664V94.944H253.04V95.664H254.96ZM254.78 101.172C256.1 101.568 257.312 102.048 258.404 102.6L257.972 103.284C256.796 102.66 255.584 102.156 254.348 101.796L254.78 101.172ZM253.532 99.6L254.336 99.672C254.192 100.944 253.88 101.796 253.4 102.228C252.872 102.768 251.672 103.116 249.8 103.26L249.476 102.528C251.108 102.444 252.176 102.18 252.704 101.736C253.184 101.316 253.46 100.608 253.532 99.6ZM260.588 98.844H267.896V98.088H268.76V98.844H271.4V99.684H268.76V102.228C268.76 102.9 268.388 103.236 267.668 103.236H266.132L265.94 102.384C266.444 102.42 266.912 102.444 267.368 102.444C267.716 102.444 267.896 102.3 267.896 102.012V99.684H260.588V98.844ZM269.588 92.664V95.52H262.712V96.384C262.712 96.708 262.892 96.876 263.228 96.876H269.648C269.888 96.864 270.044 96.78 270.14 96.636C270.212 96.504 270.284 96.192 270.332 95.688L271.148 95.952C271.088 96.492 271.004 96.876 270.908 97.116C270.74 97.476 270.404 97.656 269.9 97.68H262.916C262.196 97.68 261.848 97.344 261.848 96.696V92.664H269.588ZM262.712 94.728H268.724V93.444H262.712V94.728ZM263.348 100.044C264.152 100.668 264.824 101.304 265.376 101.928L264.728 102.576C264.248 101.964 263.576 101.316 262.736 100.632L263.348 100.044ZM279.644 94.86C279.584 95.076 279.524 95.292 279.476 95.508C279.788 96.924 280.208 98.136 280.724 99.168C281.276 97.932 281.564 96.492 281.612 94.86H279.644ZM280.304 99.996C279.812 99.06 279.404 98.004 279.068 96.816C278.828 97.44 278.576 97.98 278.288 98.46L277.736 97.788C278.504 96.396 279.02 94.536 279.284 92.184L280.088 92.328C280.016 92.928 279.92 93.492 279.824 94.032H283.232V94.86H282.416C282.344 96.876 281.948 98.592 281.204 100.008C281.852 101.064 282.632 101.892 283.532 102.468L283.04 103.176C282.152 102.576 281.396 101.772 280.76 100.764C280.088 101.772 279.236 102.612 278.192 103.284L277.736 102.564C278.828 101.892 279.68 101.04 280.304 99.996ZM277.592 101.1V101.928C276.104 102.312 274.496 102.624 272.78 102.876L272.576 102.06C273.32 101.964 274.04 101.856 274.748 101.736V99.576H272.948V98.736H274.748V97.224H275.576V98.736H277.328V99.576H275.576V101.58C276.26 101.436 276.932 101.268 277.592 101.1ZM272.552 92.7H277.7V93.516H275.432C274.844 94.752 274.328 95.64 273.896 96.192C274.772 96.12 275.636 96.036 276.476 95.916C276.26 95.424 276.032 94.98 275.816 94.572L276.548 94.344C277.016 95.172 277.424 96.06 277.772 96.996L277.04 97.32C276.944 97.068 276.86 96.828 276.764 96.6C275.564 96.756 274.28 96.876 272.888 96.972L272.696 96.216C272.768 96.192 272.828 96.168 272.864 96.144C273.296 95.82 273.872 94.944 274.568 93.516H272.552V92.7ZM288.848 94.272V102.456H288.008V101.772H285.824V102.804H284.984V94.272H286.1C286.34 93.6 286.508 92.904 286.616 92.184L287.48 92.304C287.336 93.012 287.156 93.672 286.916 94.272H288.848ZM285.824 100.968H288.008V98.34H285.824V100.968ZM285.824 97.56H288.008V95.088H285.824V97.56ZM290.936 97.056C291.8 98.052 292.448 98.928 292.904 99.672L292.22 100.152C291.728 99.36 291.068 98.472 290.24 97.488L290.936 97.056ZM295.052 94.284C295.052 98.268 294.992 100.74 294.872 101.676C294.752 102.588 294.2 103.056 293.192 103.056C292.952 103.056 292.544 103.032 291.968 103.008L291.764 102.216C292.268 102.24 292.7 102.252 293.072 102.252C293.636 102.252 293.96 101.94 294.056 101.328C294.128 100.656 294.176 98.58 294.2 95.124H290.9C290.564 95.88 290.168 96.564 289.7 97.176L289.184 96.492C290.024 95.316 290.588 93.876 290.9 92.172L291.752 92.28C291.608 92.988 291.44 93.66 291.224 94.284H295.052ZM301.532 94.776H304.34C304.784 93.972 305.168 93.096 305.504 92.148L306.32 92.436C305.996 93.324 305.636 94.104 305.228 94.776H306.608V98.58H305.324V101.808C305.324 102.096 305.432 102.252 305.66 102.252H306.188C306.356 102.252 306.476 102.168 306.548 102.024C306.644 101.844 306.704 101.304 306.74 100.404L307.496 100.644C307.424 101.772 307.304 102.468 307.112 102.72C306.944 102.936 306.692 103.044 306.332 103.044H305.408C304.82 103.044 304.532 102.684 304.532 101.988V98.58H303.428C303.332 100.728 302.6 102.288 301.22 103.26L300.764 102.504C301.916 101.712 302.54 100.404 302.636 98.58H301.532V94.776ZM305.816 97.812V95.544H302.336V97.812H305.816ZM302.528 92.304C302.9 92.928 303.26 93.624 303.608 94.368L302.888 94.728C302.552 93.948 302.204 93.252 301.82 92.64L302.528 92.304ZM296.804 95.448H298.532V93.684C298.004 93.768 297.464 93.84 296.912 93.9L296.744 93.108C298.196 92.964 299.492 92.724 300.62 92.364L300.92 93.168C300.428 93.312 299.912 93.432 299.372 93.54V95.448H300.848V96.276H299.372V97.032C299.948 97.632 300.524 98.316 301.112 99.072L300.632 99.804C300.152 99.012 299.732 98.388 299.372 97.908V103.116H298.532V97.86C298.112 98.988 297.56 100.008 296.888 100.932L296.504 99.936C297.416 98.856 298.076 97.644 298.472 96.276H296.804V95.448ZM24.128 116.16L25.004 116.28C24.872 116.604 24.716 116.904 24.548 117.192H29.78V117.888C29.012 118.776 28.076 119.532 26.972 120.156C28.328 120.732 29.84 121.104 31.508 121.272L31.112 122.076C29.216 121.86 27.524 121.38 26.036 120.636C24.572 121.308 22.856 121.8 20.912 122.1L20.516 121.284C22.256 121.044 23.78 120.66 25.1 120.132C24.428 119.736 23.804 119.28 23.228 118.776C22.772 119.184 22.28 119.556 21.728 119.892L21.2 119.196C22.64 118.368 23.624 117.36 24.128 116.16ZM26.024 119.712C26.996 119.232 27.836 118.656 28.544 118.008H23.96L23.804 118.2C24.476 118.788 25.22 119.292 26.024 119.712ZM25.292 121.5H26.144C26.144 121.98 26.096 122.436 26.024 122.868H30.248C30.224 124.896 30.044 126.108 29.696 126.504C29.348 126.9 28.748 127.104 27.896 127.104C27.512 127.104 27.044 127.08 26.492 127.056L26.276 126.276L27.692 126.336C28.412 126.324 28.856 126.168 29.048 125.88C29.228 125.592 29.336 124.848 29.372 123.648H25.82C25.724 123.96 25.592 124.26 25.436 124.548C24.824 125.628 23.42 126.528 21.212 127.224L20.636 126.516C22.604 125.94 23.912 125.208 24.536 124.332C24.68 124.116 24.812 123.888 24.908 123.648H21.332V122.868H25.148C25.244 122.436 25.292 121.98 25.292 121.5ZM33.272 119.844H37.676V123.504H33.272V119.844ZM36.824 122.724V120.648H34.136V122.724H36.824ZM38.048 124.188V125.028C36.452 125.46 34.724 125.832 32.876 126.132L32.66 125.28C34.532 125.04 36.32 124.68 38.048 124.188ZM42.092 127.164C41.492 127.152 40.928 126.768 40.376 126C40.208 125.772 40.064 125.532 39.944 125.28C39.272 126.096 38.528 126.744 37.724 127.224L37.256 126.48C38.108 125.964 38.876 125.268 39.548 124.38C39.38 123.924 39.248 123.432 39.128 122.904C38.852 121.68 38.708 120.24 38.696 118.584H32.66V117.744H38.696V116.208H39.56V117.744H41.324C41.12 117.312 40.892 116.904 40.652 116.544L41.528 116.4C41.744 116.796 41.96 117.24 42.164 117.744H43.328V118.584H39.572C39.596 120.048 39.704 121.344 39.908 122.472C39.98 122.844 40.052 123.192 40.148 123.516C40.82 122.412 41.384 121.104 41.84 119.592L42.596 120C42.032 121.812 41.336 123.324 40.496 124.548C40.616 124.824 40.736 125.076 40.868 125.292C41.288 125.916 41.66 126.228 41.996 126.228C42.284 126.228 42.536 125.544 42.74 124.176L43.484 124.668C43.16 126.324 42.692 127.164 42.092 127.164ZM49.688 116.184H50.312C51.836 117.948 53.6 119.34 55.592 120.348L55.124 121.176C53.12 120.096 51.416 118.692 50 116.964C48.692 118.596 46.964 120 44.828 121.2L44.372 120.372C46.508 119.244 48.272 117.852 49.688 116.184ZM53.792 122.352V127.188H52.952V126.468H47.048V127.188H46.208V122.352H53.792ZM47.048 125.64H52.952V123.168H47.048V125.64ZM46.88 120H53.12V120.828H46.88V120ZM56.852 117.936H58.568V116.292H59.432V117.936H61.028V118.764H59.432V120.744H61.196V121.584H59.384C59.36 121.896 59.324 122.196 59.288 122.484C59.96 123.12 60.656 123.852 61.352 124.668L60.872 125.412C60.2 124.5 59.624 123.792 59.156 123.276C58.808 124.968 58.148 126.288 57.164 127.236L56.528 126.672C57.692 125.544 58.352 123.852 58.52 121.584H56.684V120.744H58.568V118.764H56.852V117.936ZM66.596 116.7V123.288H65.768V117.504H62.564V123.288H61.736V116.7H66.596ZM66.272 127.044H65.276C64.652 127.044 64.352 126.708 64.352 126.048V123.348H65.132V125.868C65.132 126.132 65.252 126.264 65.516 126.264H66.128C66.332 126.264 66.476 126.204 66.56 126.084C66.668 125.928 66.74 125.472 66.788 124.728L67.532 124.968C67.46 125.952 67.316 126.552 67.124 126.768C66.932 126.948 66.656 127.044 66.272 127.044ZM63.776 118.5H64.556V120.624C64.532 122.412 64.208 123.84 63.596 124.908C62.996 125.892 62.012 126.672 60.668 127.236L60.212 126.504C61.532 125.964 62.456 125.232 62.984 124.32C63.476 123.372 63.74 122.136 63.776 120.624V118.5ZM72.044 118.944C72.74 119.808 73.388 120.636 73.976 121.428C74.456 120.528 74.84 119.556 75.128 118.524L75.98 118.668C75.62 119.964 75.14 121.14 74.54 122.196C75.272 123.228 75.896 124.188 76.412 125.064L75.632 125.592C75.152 124.764 74.624 123.9 74.024 123.012C73.28 124.092 72.404 125.016 71.372 125.796L70.796 125.064C71.864 124.248 72.764 123.312 73.484 122.232C72.836 121.308 72.116 120.36 71.336 119.376L72.044 118.944ZM69.908 116.676H77.672V121.476C77.672 123.444 77.732 124.704 77.876 125.256C78.008 125.796 78.164 126.072 78.356 126.072C78.512 126.072 78.644 125.52 78.752 124.428L79.52 124.8C79.376 125.7 79.22 126.312 79.052 126.648C78.872 126.936 78.668 127.08 78.452 127.08C77.876 127.08 77.468 126.696 77.204 125.952C76.916 125.22 76.784 123.732 76.784 121.476V117.516H70.772V121.332C70.748 123.66 70.256 125.616 69.308 127.2L68.588 126.612C69.428 125.208 69.872 123.444 69.908 121.332V116.676ZM81.02 116.712H84.572V117.372C84.212 118.452 83.792 119.592 83.312 120.768C84.056 121.836 84.452 122.808 84.512 123.672C84.512 124.164 84.392 124.524 84.152 124.752C83.816 125.016 83.252 125.16 82.448 125.172L82.172 124.308C82.352 124.332 82.508 124.356 82.628 124.356C83.036 124.332 83.324 124.272 83.468 124.176C83.6 124.08 83.672 123.912 83.672 123.672C83.672 122.844 83.264 121.92 82.46 120.9C83 119.652 83.42 118.512 83.72 117.504H81.86V127.212H81.02V116.712ZM85.988 119.748C85.532 120.216 85.052 120.624 84.548 120.984L84.116 120.3C85.556 119.256 86.672 117.9 87.452 116.244H88.232C88.88 117.78 90.02 119.112 91.64 120.264L91.172 120.984C90.632 120.6 90.152 120.204 89.732 119.772V120.468H85.988V119.748ZM89.636 119.676C88.88 118.896 88.28 118.032 87.836 117.096C87.308 118.104 86.72 118.956 86.06 119.676H89.636ZM84.26 125.952H88.472C89.036 124.656 89.528 123.072 89.936 121.2L90.776 121.428C90.38 123.132 89.9 124.632 89.336 125.952H91.376V126.78H84.26V125.952ZM85.652 121.632C86.06 122.64 86.432 123.792 86.768 125.088L86.012 125.28C85.724 124.104 85.352 122.964 84.908 121.884L85.652 121.632ZM87.56 121.164C87.908 122.136 88.22 123.252 88.484 124.512L87.74 124.704C87.5 123.552 87.188 122.46 86.816 121.404L87.56 121.164ZM95 124.368C95.408 124.368 95.756 124.5 96.056 124.776C96.344 125.052 96.488 125.4 96.488 125.808C96.488 126.216 96.344 126.552 96.056 126.84C95.756 127.104 95.408 127.248 95 127.248C94.592 127.248 94.232 127.104 93.944 126.84C93.656 126.564 93.512 126.216 93.512 125.808C93.512 125.388 93.656 125.04 93.944 124.776C94.232 124.5 94.592 124.368 95 124.368ZM95 124.872C94.724 124.872 94.496 124.956 94.316 125.148C94.124 125.316 94.028 125.544 94.028 125.808C94.028 126.072 94.124 126.288 94.316 126.468C94.496 126.648 94.724 126.744 95 126.744C95.264 126.744 95.492 126.648 95.684 126.468C95.876 126.288 95.972 126.072 95.972 125.808C95.972 125.544 95.876 125.328 95.684 125.148C95.492 124.956 95.264 124.872 95 124.872ZM22.556 204.384V206.484H25.604V204.384H22.556ZM22.508 207.276C22.376 208.812 21.932 210.084 21.164 211.092L20.504 210.504C21.272 209.436 21.668 208.08 21.692 206.436V200.676H30.632V209.664C30.632 210.504 30.212 210.924 29.372 210.924H27.992L27.764 210.072C28.244 210.096 28.688 210.12 29.096 210.12C29.528 210.12 29.756 209.868 29.756 209.364V207.276H26.492V210.792H25.604V207.276H22.508ZM29.756 206.484V204.384H26.492V206.484H29.756ZM29.756 203.58V201.516H26.492V203.58H29.756ZM25.604 201.516H22.556V203.58H25.604V201.516ZM41.588 202.524H34.736V204.864H41.588V202.524ZM34.736 205.704C34.676 207.852 34.112 209.7 33.032 211.248L32.396 210.672C33.368 209.328 33.86 207.576 33.884 205.428V201.672H37.796C37.58 201.168 37.352 200.7 37.1 200.268L38.024 200.124C38.24 200.58 38.456 201.096 38.672 201.672H42.464V205.704H34.736ZM44.696 201.624H49.652C49.436 201.132 49.196 200.688 48.932 200.28L49.892 200.112C50.132 200.568 50.372 201.072 50.588 201.624H55.316V202.452H44.696V201.624ZM51.896 202.812C53.228 203.868 54.344 204.912 55.244 205.968L54.608 206.604C53.816 205.596 52.712 204.528 51.308 203.376L51.896 202.812ZM52.016 205.056L52.808 205.404C52.232 206.508 51.536 207.456 50.708 208.26C52.004 209.196 53.576 209.892 55.448 210.372L54.908 211.176C52.964 210.624 51.344 209.856 50.048 208.848C48.704 209.928 47.072 210.72 45.152 211.224L44.624 210.432C46.52 209.952 48.092 209.232 49.352 208.272C48.476 207.48 47.756 206.568 47.192 205.56L47.936 205.14C48.464 206.124 49.16 206.976 50.012 207.708C50.828 206.94 51.5 206.064 52.016 205.056ZM48.032 202.824L48.656 203.376C47.744 204.564 46.616 205.608 45.272 206.496L44.72 205.764C46.028 204.924 47.132 203.952 48.032 202.824ZM60.02 204.864H58.352V200.64H65.708V204.864H60.992C60.776 205.2 60.512 205.524 60.224 205.836H66.584C66.548 207.12 66.476 208.164 66.368 208.956C66.248 209.736 66.068 210.288 65.816 210.6C65.564 210.888 65.156 211.056 64.58 211.08H63.032L62.804 210.276C63.284 210.3 63.74 210.312 64.172 210.312C64.76 210.312 65.144 210.084 65.336 209.628C65.528 209.148 65.648 208.14 65.708 206.604H64.556C63.524 208.908 61.88 210.42 59.612 211.164L59.12 210.444C61.232 209.772 62.756 208.5 63.68 206.604H62.096C61.256 207.948 59.9 208.992 58.016 209.736L57.476 209.076C59.204 208.44 60.44 207.612 61.196 206.604H59.36C58.772 207.048 58.088 207.456 57.296 207.816L56.828 207.048C58.28 206.472 59.348 205.752 60.02 204.864ZM64.856 204.132V203.1H59.204V204.132H64.856ZM59.204 202.404H64.856V201.384H59.204V202.404ZM75.896 202.86L75.74 203.484C76.04 204.888 76.424 206.1 76.904 207.108C77.372 205.896 77.624 204.48 77.672 202.86H75.896ZM76.508 207.972C76.04 207.048 75.644 205.992 75.32 204.792C75.104 205.344 74.864 205.836 74.612 206.268L74.072 205.608C74.78 204.264 75.26 202.452 75.5 200.172L76.34 200.316C76.268 200.928 76.172 201.504 76.076 202.032H79.244V202.86H78.464C78.404 204.864 78.032 206.58 77.36 207.996C77.984 209.076 78.716 209.904 79.58 210.492L79.112 211.2C78.272 210.6 77.552 209.784 76.952 208.776C76.376 209.736 75.632 210.54 74.732 211.188L74.288 210.468C75.224 209.82 75.956 208.992 76.508 207.972ZM70.82 205.776L71.624 205.872C71.54 206.1 71.456 206.316 71.384 206.532H73.892V207.24C73.628 208.032 73.184 208.716 72.56 209.292C73.136 209.556 73.688 209.82 74.216 210.108L73.748 210.78C73.22 210.468 72.608 210.144 71.9 209.832C71.108 210.384 70.112 210.828 68.912 211.164L68.504 210.444C69.488 210.18 70.34 209.856 71.036 209.46C70.508 209.232 69.956 209.004 69.368 208.788C69.68 208.26 69.956 207.768 70.196 207.288H68.78V206.532H70.532C70.64 206.268 70.736 206.016 70.82 205.776ZM71.768 208.956C72.368 208.476 72.824 207.912 73.112 207.288H71.048C70.856 207.696 70.64 208.08 70.4 208.44C70.88 208.608 71.336 208.776 71.768 208.956ZM69.728 200.424C70.016 200.892 70.256 201.396 70.472 201.924L69.848 202.212C69.596 201.624 69.332 201.108 69.044 200.652L69.728 200.424ZM73.376 200.388L74 200.676C73.76 201.204 73.46 201.72 73.076 202.224L72.464 201.912C72.848 201.396 73.16 200.892 73.376 200.388ZM68.804 202.5H71.144V200.208H71.948V202.5H74.132V203.256H71.948V203.388C72.596 203.712 73.268 204.084 73.94 204.492L73.496 205.164C72.896 204.684 72.38 204.3 71.948 204.012V205.572H71.144V203.292C70.748 204.24 70.028 205.056 68.996 205.752L68.576 205.056C69.5 204.516 70.148 203.916 70.508 203.256H68.804V202.5ZM81.968 211.092H80.948L80.768 210.276C81.08 210.312 81.392 210.336 81.68 210.336C81.98 210.336 82.136 210.156 82.136 209.82V206.88C81.656 207.06 81.188 207.228 80.72 207.372L80.504 206.532C81.056 206.4 81.608 206.232 82.136 206.04V203.328H80.696V202.5H82.136V200.232H82.976V202.5H84.128V203.328H82.976V205.692C83.36 205.524 83.732 205.344 84.092 205.152V206.004C83.72 206.196 83.348 206.364 82.976 206.532V210.036C82.976 210.732 82.64 211.092 81.968 211.092ZM85.556 205.788C85.412 207.84 84.944 209.64 84.152 211.2L83.48 210.6C84.332 209.016 84.764 206.952 84.776 204.432V200.676H91.1V203.592H88.844V205.008H91.412V205.788H88.844V207.264H90.86V211.2H90.056V210.612H86.804V211.2H86V207.264H88.004V205.788H85.556ZM88.004 203.592H85.616V204.432C85.616 204.624 85.604 204.816 85.604 205.008H88.004V203.592ZM86.804 209.844H90.056V208.032H86.804V209.844ZM90.26 201.48H85.616V202.812H90.26V201.48ZM95.084 200.124L95.888 200.508C95.6 201.396 95.252 202.224 94.832 203.016V211.224H93.956V204.42C93.572 204.96 93.152 205.476 92.696 205.968L92.42 205.08C93.644 203.64 94.532 201.984 95.084 200.124ZM102.956 211.2C101.684 210.312 100.628 209.364 99.788 208.356C98.852 209.508 97.712 210.456 96.38 211.212L95.792 210.492C97.172 209.748 98.312 208.8 99.224 207.648C97.94 205.896 97.208 203.94 97.016 201.78H96.392V200.952H102.596V201.72C102.188 204.06 101.42 206.052 100.292 207.684C101.156 208.716 102.248 209.652 103.544 210.504L102.956 211.2ZM99.728 206.964C100.7 205.512 101.36 203.784 101.72 201.78H97.832C98 203.7 98.624 205.428 99.728 206.964ZM106.556 204.384V206.484H109.604V204.384H106.556ZM106.508 207.276C106.376 208.812 105.932 210.084 105.164 211.092L104.504 210.504C105.272 209.436 105.668 208.08 105.692 206.436V200.676H114.632V209.664C114.632 210.504 114.212 210.924 113.372 210.924H111.992L111.764 210.072C112.244 210.096 112.688 210.12 113.096 210.12C113.528 210.12 113.756 209.868 113.756 209.364V207.276H110.492V210.792H109.604V207.276H106.508ZM113.756 206.484V204.384H110.492V206.484H113.756ZM113.756 203.58V201.516H110.492V203.58H113.756ZM109.604 201.516H106.556V203.58H109.604V201.516ZM117.452 200.664H126.464V201.504H122.54V204.768H127.304V205.632H122.54V209.892C122.54 210.672 122.132 211.068 121.328 211.068H119.456L119.276 210.24C119.888 210.264 120.476 210.288 121.028 210.288C121.448 210.288 121.664 210.084 121.664 209.676V205.632H116.696V204.768H121.664V201.504H117.452V200.664ZM134.24 200.208H135.068V211.2H134.24V208.56H131.876V207.768H134.24V205.692H132.548V204.9H134.24V202.908H132.356V202.128H134.24V200.208ZM129.86 211.092H128.756L128.564 210.252C128.912 210.276 129.248 210.3 129.56 210.3C129.896 210.3 130.076 210.156 130.076 209.868V207C129.644 207.168 129.2 207.336 128.756 207.48L128.552 206.604C129.068 206.472 129.572 206.316 130.076 206.124V203.328H128.78V202.5H130.076V200.232H130.916V202.5H131.984V203.328H130.916V205.776C131.312 205.584 131.696 205.392 132.08 205.176V206.064C131.696 206.268 131.312 206.46 130.916 206.64V210.084C130.916 210.756 130.556 211.092 129.86 211.092ZM136.496 200.208H137.336V202.128H139.388V202.908H137.336V204.9H139.136V205.692H137.336V207.768H139.472V208.56H137.336V211.2H136.496V200.208ZM144.26 210.456V211.164H143.396V206.928C142.652 207.168 141.872 207.384 141.032 207.588L140.576 206.76C142.652 206.328 144.38 205.776 145.76 205.08C145.232 204.636 144.512 204.156 143.6 203.64L144.344 203.172C145.256 203.736 145.976 204.24 146.492 204.684C147.716 203.952 148.604 203.1 149.168 202.116H144.728C143.912 202.872 142.88 203.544 141.608 204.144L141.032 203.4C143.084 202.524 144.464 201.444 145.184 200.172L146.132 200.28C145.94 200.64 145.724 200.976 145.484 201.3H150.164V202.068C149.3 203.712 147.752 205.056 145.496 206.1H150.5V211.164H149.624V210.456H144.26ZM149.624 209.616V206.904H144.26V209.616H149.624ZM156.584 208.464V209.292C155.48 209.844 154.232 210.3 152.84 210.636L152.732 209.772C154.196 209.448 155.48 209.016 156.584 208.464ZM154.664 200.172L155.492 200.508C154.892 202.044 154.28 203.268 153.656 204.18C154.184 204.108 154.712 204.012 155.24 203.916C155.456 203.508 155.672 203.088 155.9 202.632L156.68 202.932C155.624 204.924 154.748 206.352 154.052 207.216C154.892 207 155.732 206.712 156.584 206.34V207.144C155.324 207.672 154.112 208.02 152.96 208.212L152.72 207.42C152.876 207.348 153.008 207.252 153.116 207.156C153.572 206.676 154.136 205.872 154.796 204.72C154.148 204.84 153.488 204.96 152.828 205.056L152.6 204.264C152.744 204.204 152.864 204.096 152.984 203.928C153.632 202.836 154.184 201.588 154.664 200.172ZM156.992 205.44L156.8 204.672C156.872 204.648 156.92 204.624 156.968 204.612C157.376 204.312 157.892 203.544 158.54 202.296H156.488V201.468H159.548C159.38 201.012 159.2 200.604 159.008 200.232L159.884 200.088C160.064 200.496 160.244 200.964 160.412 201.468H163.112V202.296H159.44C158.912 203.34 158.444 204.096 158.036 204.576C159.152 204.48 160.268 204.348 161.372 204.168C161.108 203.784 160.82 203.388 160.52 203.004L161.18 202.596C161.996 203.64 162.632 204.552 163.076 205.344L162.404 205.812C162.236 205.5 162.056 205.2 161.852 204.888C160.364 205.128 158.744 205.308 156.992 205.44ZM157.964 205.932H158.804C158.744 207.444 158.552 208.56 158.24 209.268C157.892 210.012 157.316 210.648 156.5 211.176L155.948 210.492C156.656 210.036 157.16 209.508 157.46 208.896C157.748 208.272 157.916 207.288 157.964 205.932ZM162.236 210.984H161.396C160.676 210.984 160.316 210.636 160.316 209.94V205.824H161.144V209.796C161.144 210.048 161.228 210.18 161.42 210.204H162.2C162.464 210.18 162.62 210.036 162.668 209.772C162.716 209.436 162.752 208.92 162.752 208.212L163.496 208.476C163.496 209.604 163.412 210.312 163.256 210.576C163.1 210.816 162.764 210.96 162.236 210.984ZM168.296 203.796H171.548V200.184H172.436V203.796H175.52V204.66H172.436V211.224H171.548V204.66H168.296V203.796ZM165.944 200.316C166.76 200.928 167.444 201.54 167.996 202.164L167.408 202.764C166.904 202.176 166.208 201.552 165.344 200.904L165.944 200.316ZM164.54 203.868H167.132V209.208C167.564 208.848 168.044 208.44 168.548 207.96L168.764 208.848C168.02 209.568 167.216 210.204 166.364 210.768L166.028 209.988C166.208 209.844 166.304 209.676 166.304 209.484V204.696H164.54V203.868ZM178.232 208.572C178.496 208.572 178.724 208.68 178.892 208.908C179.048 209.124 179.132 209.4 179.132 209.748C179.132 210.276 178.976 210.744 178.664 211.152C178.352 211.536 177.932 211.8 177.428 211.932V211.344C177.74 211.236 177.992 211.056 178.184 210.816C178.352 210.564 178.448 210.3 178.448 210.012C178.4 210.036 178.304 210.06 178.184 210.06C177.98 210.06 177.812 209.988 177.668 209.844C177.524 209.7 177.452 209.52 177.452 209.316C177.452 209.088 177.524 208.908 177.668 208.776C177.812 208.632 177.992 208.572 178.232 208.572ZM193.556 200.244H194.444V201.888H198.56V202.728H194.444V204.852H199.196V205.692H195.236C196.04 207.204 197.432 208.548 199.4 209.736L198.8 210.504C196.76 209.064 195.332 207.468 194.54 205.692H194.444V211.164H193.556V205.692H193.448C192.584 207.66 191.132 209.268 189.092 210.54L188.6 209.736C190.52 208.68 191.912 207.336 192.776 205.692H188.804V204.852H193.556V202.728H189.524V201.888H193.556V200.244ZM207.524 207.3H205.172V206.46H210.776V207.3H208.412V209.952H211.328V210.792H204.632V209.952H207.524V207.3ZM208.352 203.916C207.476 204.684 206.372 205.332 205.052 205.848L204.512 205.14C206.756 204.3 208.316 203.1 209.18 201.564H205.076V200.736H210.212V201.42C209.9 202.14 209.468 202.788 208.916 203.376C209.924 204.012 210.788 204.648 211.484 205.284L210.848 205.92C210.224 205.284 209.396 204.612 208.352 203.916ZM204.512 208.536V209.352C203.384 209.928 202.1 210.396 200.684 210.756L200.564 209.928C202.064 209.58 203.384 209.112 204.512 208.536ZM202.604 200.184L203.432 200.508C202.832 202.044 202.232 203.256 201.62 204.168C202.172 204.12 202.724 204.048 203.288 203.952C203.516 203.532 203.756 203.088 203.996 202.62L204.788 202.92C203.684 204.948 202.76 206.388 202.028 207.252C202.868 207.072 203.696 206.832 204.536 206.532V207.324C203.3 207.756 202.112 208.044 200.972 208.2L200.744 207.408C200.888 207.348 201.02 207.264 201.128 207.168C201.608 206.688 202.184 205.872 202.856 204.72C202.172 204.828 201.488 204.924 200.804 205.02L200.588 204.228C200.72 204.168 200.84 204.06 200.948 203.904C201.584 202.824 202.136 201.576 202.604 200.184ZM215.864 205.668H216.716C216.62 207.276 216.332 208.464 215.828 209.22C215.3 210.012 214.4 210.684 213.128 211.26L212.588 210.564C213.74 210.084 214.556 209.508 215.036 208.848C215.504 208.188 215.78 207.132 215.864 205.668ZM221.6 210.96H219.932C219.164 210.96 218.792 210.564 218.792 209.784V205.524H219.644V209.604C219.644 209.976 219.824 210.168 220.184 210.168H221.444C221.792 210.168 222.044 210.072 222.188 209.892C222.38 209.676 222.512 209.028 222.572 207.948L223.388 208.212C223.292 209.52 223.1 210.312 222.812 210.588C222.548 210.828 222.152 210.96 221.6 210.96ZM220.184 201.54C221.072 202.788 221.9 204.144 222.68 205.62L221.864 206.028C221.624 205.536 221.372 205.068 221.12 204.624C218.888 204.852 216.404 205.02 213.668 205.14L213.512 204.348C214.388 203.976 215.492 202.584 216.824 200.184L217.628 200.46C216.716 202.068 215.804 203.352 214.892 204.312C216.944 204.216 218.876 204.06 220.688 203.868C220.268 203.172 219.848 202.512 219.416 201.912L220.184 201.54ZM229.976 202.62C229.568 203.46 229.04 204.18 228.416 204.768L227.864 204.096C228.896 203.124 229.58 201.804 229.94 200.148L230.78 200.292C230.66 200.832 230.504 201.324 230.336 201.78H235.124V202.62H232.604V205.524H235.568V206.352H232.604V211.212H231.728V206.352H228.164V205.524H231.728V202.62H229.976ZM225.884 200.316C226.7 200.928 227.384 201.54 227.936 202.164L227.348 202.764C226.844 202.176 226.148 201.552 225.284 200.904L225.884 200.316ZM224.552 203.868H227.072V209.184C227.504 208.824 227.96 208.416 228.452 207.936L228.692 208.836C227.948 209.556 227.156 210.18 226.316 210.732L225.98 209.964C226.148 209.808 226.244 209.64 226.244 209.448V204.696H224.552V203.868ZM236.9 200.82H247.1V201.672H243.188C242.972 202.164 242.72 202.644 242.444 203.1V211.224H241.556V204.372C240.428 205.776 238.952 207.024 237.128 208.116L236.564 207.36C239.276 205.8 241.172 203.904 242.228 201.672H236.9V200.82ZM243.956 204.048C245.336 205.14 246.488 206.232 247.424 207.324L246.764 207.996C245.924 206.94 244.784 205.824 243.332 204.636L243.956 204.048ZM251.804 204.468H256.232V208.668H251.804V204.468ZM255.392 207.852V205.284H252.644V207.852H255.392ZM253.22 200.16L254.12 200.28C253.976 200.88 253.772 201.432 253.508 201.948H258.8V209.952C258.8 210.732 258.428 211.128 257.708 211.128H255.908L255.668 210.252L257.42 210.288C257.756 210.288 257.936 210.108 257.936 209.76V202.776H250.16V211.176H249.296V201.948H252.596C252.884 201.372 253.088 200.784 253.22 200.16ZM265.664 204.156H261.668V203.364H270.416V206.1H266.504V207.276H270.836C270.836 208.692 270.74 209.592 270.56 209.952C270.368 210.36 269.948 210.564 269.3 210.576C268.796 210.576 268.304 210.564 267.824 210.552L267.608 209.736C268.16 209.76 268.688 209.772 269.168 209.772C269.528 209.772 269.756 209.628 269.852 209.364C269.924 209.124 269.96 208.68 269.96 208.032H266.504V211.212H265.664V208.032H265.628C264.836 209.184 263.372 210.168 261.212 210.984L260.72 210.192C262.64 209.556 263.96 208.836 264.68 208.032H261.392L261.944 205.308H265.664V204.156ZM265.664 206.1H262.7L262.412 207.276H265.664V206.1ZM266.504 205.308H269.528V204.156H266.504V205.308ZM262.376 201.792C262.088 202.224 261.764 202.632 261.404 203.004L260.648 202.536C261.416 201.804 261.968 201 262.316 200.112L263.144 200.292C263.036 200.556 262.928 200.796 262.82 201.036H266.012V201.792H264.032C264.332 202.152 264.572 202.488 264.752 202.8L263.972 203.088C263.732 202.644 263.444 202.212 263.108 201.792H262.376ZM267.44 201.756C267.176 202.212 266.888 202.632 266.552 203.016L265.808 202.548C266.48 201.816 266.96 201 267.272 200.112L268.1 200.292C268.016 200.532 267.92 200.772 267.824 201H271.364V201.756H269.192C269.492 202.14 269.732 202.488 269.912 202.812L269.144 203.1C268.904 202.632 268.604 202.188 268.268 201.756H267.44ZM273.476 201.108H282.548V201.948H273.476V201.108ZM274.28 205.26H281.732V206.1H274.28V205.26ZM272.588 209.7H283.412V210.564H272.588V209.7ZM284.78 201.972H289.952C289.712 201.444 289.424 200.928 289.076 200.448L289.892 200.148C290.228 200.652 290.54 201.264 290.828 201.972H295.316V202.8H288.992L288.884 204.936V204.96H293.864C293.84 207.336 293.744 208.86 293.588 209.532C293.348 210.552 292.76 211.08 291.812 211.116C291.428 211.116 290.96 211.092 290.432 211.068L290.168 210.288C290.792 210.312 291.308 210.324 291.728 210.324C292.34 210.3 292.712 209.868 292.856 209.028C292.928 208.524 292.964 207.432 292.988 205.776H288.788C288.632 206.748 288.332 207.624 287.9 208.416C287.312 209.448 286.496 210.384 285.44 211.236L284.816 210.636C286.088 209.556 286.94 208.56 287.36 207.636C287.768 206.712 287.996 205.68 288.056 204.54C288.092 203.784 288.116 203.208 288.128 202.8H284.78V201.972ZM303.56 200.196H304.424V201.708H307.22V202.128C307.076 202.824 306.872 203.508 306.584 204.18L305.78 203.964C305.996 203.532 306.176 203.04 306.32 202.512H304.424V204.912H306.476V205.644C306.176 206.88 305.648 207.948 304.88 208.836C305.624 209.448 306.524 209.988 307.58 210.444L307.112 211.2C305.996 210.672 305.06 210.084 304.316 209.424C303.524 210.168 302.54 210.768 301.376 211.248L300.824 210.576C301.988 210.132 302.948 209.556 303.716 208.848C302.828 207.912 302.24 206.868 301.952 205.704H301.52C301.412 207.828 300.896 209.664 299.96 211.212L299.288 210.624C300.2 209.148 300.68 207.276 300.728 204.996V201.708H303.56V200.196ZM303.56 202.512H301.544V204.912H303.56V202.512ZM304.268 208.272C304.892 207.528 305.348 206.664 305.612 205.704H302.744C303.02 206.664 303.524 207.516 304.268 208.272ZM298.004 211.092H296.9L296.72 210.276C297.068 210.312 297.404 210.336 297.716 210.336C297.956 210.336 298.076 210.168 298.076 209.856V206.94C297.62 207.12 297.164 207.288 296.708 207.432L296.492 206.58C297.02 206.436 297.548 206.28 298.076 206.088V203.328H296.648V202.5H298.076V200.232H298.94V202.5H300.068V203.328H298.94V205.74C299.336 205.56 299.732 205.368 300.116 205.152V206.004C299.732 206.208 299.336 206.4 298.94 206.58V210.072C298.94 210.744 298.628 211.092 298.004 211.092ZM21.356 229.08H25.016V231.48H23.828V232.332H25.124V232.98H23.828V233.988C24.38 233.892 24.896 233.784 25.4 233.676V234.36C24.128 234.648 22.64 234.924 20.936 235.176L20.732 234.456C20.96 234.42 21.188 234.396 21.404 234.372V232.02H22.1V234.276C22.436 234.228 22.76 234.168 23.084 234.12V231.48H21.356V229.08ZM24.284 230.844V229.704H22.076V230.844H24.284ZM30.56 232.524V235.224H29.804V234.828H27.02V235.224H26.252V232.524H30.56ZM27.02 234.192H29.804V233.148H27.02V234.192ZM27.452 228.636L28.112 228.804C28.016 228.984 27.92 229.152 27.824 229.308H30.644V229.8C30.284 230.352 29.768 230.832 29.096 231.264C29.816 231.552 30.656 231.78 31.616 231.948L31.184 232.56C30.092 232.344 29.156 232.056 28.376 231.672C27.596 232.068 26.66 232.404 25.58 232.692L25.112 232.092C26.096 231.852 26.96 231.588 27.68 231.276C27.296 231.024 26.96 230.748 26.672 230.448C26.384 230.652 26.06 230.844 25.724 231.024L25.28 230.424C26.348 229.944 27.068 229.344 27.452 228.636ZM27.164 230.052C27.5 230.388 27.908 230.676 28.388 230.94C28.964 230.616 29.432 230.268 29.78 229.896H27.332C27.272 229.944 27.212 230.004 27.164 230.052ZM21.416 224.424H30.572V225.096H26.408V225.768H31.004V227.748H30.212V226.404H26.408V228.612H25.592V226.404H21.788V227.748H20.996V225.768H25.592V225.096H21.416V224.424ZM22.472 226.968H24.944V227.448H22.472V226.968ZM22.46 227.94H24.932V228.42H22.46V227.94ZM27.056 226.968H29.516V227.448H27.056V226.968ZM27.056 227.94H29.54V228.42H27.056V227.94ZM35 232.296C35.432 232.296 35.792 232.44 36.104 232.728C36.404 233.016 36.56 233.376 36.56 233.808C36.56 234.228 36.404 234.588 36.104 234.876C35.792 235.164 35.432 235.308 35 235.308C34.568 235.308 34.196 235.164 33.896 234.888C33.584 234.6 33.44 234.24 33.44 233.808C33.44 233.376 33.584 233.016 33.896 232.728C34.196 232.44 34.568 232.296 35 232.296ZM35 232.92C34.748 232.92 34.532 233.004 34.364 233.184C34.172 233.352 34.088 233.556 34.088 233.808C34.088 234.048 34.172 234.252 34.364 234.42C34.532 234.588 34.748 234.684 35 234.684C35.24 234.684 35.456 234.588 35.636 234.42C35.816 234.252 35.912 234.048 35.912 233.808C35.912 233.556 35.816 233.352 35.636 233.184C35.456 233.004 35.24 232.92 35 232.92Z" fill="#2A2A2A"/>
<path d="M0 12C0 5.37258 5.37258 0 12 0H108.313C111.082 0 113.014 2.74593 112.078 5.35209L102.021 33.3521C101.451 34.9406 99.9445 36 98.2566 36H0V12Z" fill="url(#paint0_linear_12353_5382)"/>
<path d="M23.0158 10.992C24.1038 11.792 25.0318 12.576 25.7998 13.36L24.6158 14.56C23.9598 13.808 23.0318 13.008 21.8158 12.144L23.0158 10.992ZM22.6318 14.736C23.6718 15.536 24.5518 16.336 25.2718 17.136L24.0878 18.32C23.4638 17.584 22.5838 16.768 21.4478 15.888L22.6318 14.736ZM24.2318 19.264L25.7358 19.888C25.0318 21.888 24.2318 23.776 23.3518 25.536L21.6718 24.8C22.6478 23.008 23.4958 21.152 24.2318 19.264ZM26.1678 13.376H30.1998C29.9278 12.624 29.6078 11.904 29.2558 11.216L30.8078 10.768C31.2558 11.728 31.6078 12.592 31.8478 13.376H35.7358V15.008H31.8318V18.256H35.3038V19.856H31.8318V23.504H36.0718V25.136H25.7838V23.504H30.1518V19.856H26.6158V18.256H30.1518V15.008H26.1678V13.376ZM40.9358 13.104H38.4878V11.696H43.6718C43.5598 11.456 43.4478 11.232 43.3358 11.024L45.1438 10.736C45.2718 11.024 45.3838 11.344 45.5118 11.696H50.9998V13.104H48.5038L48.0878 13.936H51.7518V15.376H37.7358V13.936H41.2718L40.9358 13.104ZM43.0158 13.936H46.3438L46.7598 13.104H42.6798L43.0158 13.936ZM39.3358 15.936H50.1518V21.024H45.2398C45.8478 21.632 46.3118 22.176 46.6318 22.64L45.2398 23.616C44.8878 23.104 44.4078 22.528 43.7998 21.888L45.1918 21.024H39.3358V15.936ZM48.5198 19.776V19.072H40.9678V19.776H48.5198ZM40.9678 17.888H48.5198V17.2H40.9678V17.888ZM38.7278 21.6L40.3598 21.936C39.9918 23.2 39.4798 24.288 38.8238 25.216L37.3838 24.304C38.0238 23.456 38.4718 22.56 38.7278 21.6ZM46.9998 25.408H43.0958C41.7998 25.408 41.1598 24.832 41.1598 23.712V21.68H42.8558V23.344C42.8558 23.728 43.0958 23.936 43.5758 23.936H46.6798C46.9518 23.936 47.1438 23.872 47.2558 23.744C47.4158 23.616 47.5118 23.216 47.5598 22.56L49.1438 23.088C49.0158 24.208 48.7758 24.88 48.4238 25.104C48.1198 25.296 47.6398 25.408 46.9998 25.408ZM50.1838 21.328C51.0478 22.368 51.7198 23.264 52.1838 24.032L50.7918 25.008C50.3118 24.16 49.6558 23.216 48.8398 22.176L50.1838 21.328ZM55.1758 13.728H59.9118V13.008H53.8318V11.6H59.9118V10.816H61.5758V11.6H67.6558V13.008H61.5758V13.728H66.3118V17.088H61.5758V17.824H66.5198V19.904H68.0878V21.232H66.5198V23.328H61.5758V24.064C61.5758 25.088 61.0158 25.6 59.9118 25.6H57.9438L57.5918 24.032C58.1998 24.096 58.7918 24.144 59.3518 24.144C59.7198 24.144 59.9118 23.984 59.9118 23.664V23.328H54.8398V22.016H59.9118V21.232H53.3998V19.904H59.9118V19.104H54.8558V17.824H59.9118V17.088H55.1758V13.728ZM64.6478 15.872V14.96H61.5758V15.872H64.6478ZM59.9118 15.872V14.96H56.8398V15.872H59.9118ZM61.5758 19.104V19.904H64.9358V19.104H61.5758ZM64.9358 21.232H61.5758V22.016H64.9358V21.232ZM71.2718 13.872H69.5598V12.24H74.6478V13.872H72.9678V20.416C73.5758 20.208 74.1358 20 74.6798 19.792V21.456C73.2718 22.032 71.6718 22.576 69.8478 23.072L69.3518 21.424C70.0238 21.264 70.6638 21.088 71.2718 20.928V13.872ZM75.0958 11.36H84.1198V12.992H80.4238C80.3598 13.408 80.2798 13.824 80.1838 14.208H83.5278V22.032H81.8958V15.744H77.2718V22.032H75.6558V14.208H78.5358C78.6318 13.808 78.7118 13.408 78.7758 12.992H75.0958V11.36ZM81.1438 21.888C82.3918 22.784 83.4318 23.68 84.2958 24.56L83.0958 25.76C82.3758 24.896 81.3518 23.952 80.0238 22.96L81.1438 21.888ZM78.7118 16.464H80.3758V19.28C80.2798 21.024 79.7998 22.432 78.9358 23.488C78.0878 24.448 76.7118 25.2 74.7918 25.728L73.8798 24.304C75.7358 23.792 76.9998 23.168 77.6558 22.432C78.2798 21.632 78.6318 20.576 78.7118 19.28V16.464Z" fill="white"/>
<defs>
<linearGradient id="paint0_linear_12353_5382" x1="-2.76329" y1="13.8308" x2="108.737" y2="13.8308" gradientUnits="userSpaceOnUse">
<stop stop-color="#FA966E"/>
<stop offset="1" stop-color="#FF5D5E"/>
</linearGradient>
</defs>
</svg>
